<?xml version="1.0" standalone="no"?>
<!DOCTYPE svg PUBLIC "-//W3C//DTD SVG 20010904//EN"
 "http://www.w3.org/TR/2001/REC-SVG-20010904/DTD/svg10.dtd">
<svg version="1.0" xmlns="http://www.w3.org/2000/svg"
 width="300.000000pt" height="177.000000pt" viewBox="0 0 300.000000 177.000000"
 preserveAspectRatio="xMidYMid meet">
<metadata>
Created by potrace 1.10, written by Peter Selinger 2001-2011
</metadata>
<g transform="translate(0.000000,177.000000) scale(0.100000,-0.100000)"
fill="#000000" stroke="none">
<path d="M1164 1643 c-21 -27 -51 -63 -68 -80 -16 -18 -25 -33 -18 -33 7 0 14
0 17 0 3 0 5 3 4 6 0 3 27 34 60 70 34 36 61 69 61 74 0 21 -20 8 -56 -37z"/>
<path d="M1800 1663 c0 -11 50 -58 105 -100 66 -49 67 -47 7 15 -58 61 -112
101 -112 85z"/>
<path d="M2035 1532 c13 -14 176 -84 182 -78 5 4 -104 56 -119 56 -5 0 -23 7
-41 16 -18 9 -27 12 -22 6z"/>
<path d="M1890 1500 c0 -4 14 -10 31 -14 17 -3 28 -10 25 -15 -3 -5 4 -7 16
-3 l22 5 -22 8 c-12 5 -22 12 -22 17 0 5 -11 10 -25 10 -14 0 -25 -4 -25 -8z"/>
<path d="M870 1485 c-25 -7 -54 -11 -66 -8 -11 2 -26 -3 -33 -11 -12 -14 -10
-16 7 -16 23 0 152 38 152 45 0 6 -4 5 -60 -10z"/>
<path d="M970 1475 c-14 -7 -38 -17 -55 -22 -16 -5 -28 -13 -25 -18 7 -14 41
-8 62 12 10 9 21 13 25 10 7 -8 33 11 33 24 0 12 -9 10 -40 -6z"/>
<path d="M2030 1452 c0 -8 84 -52 98 -52 8 0 -85 60 -93 60 -3 0 -5 -4 -5 -8z"/>
<path d="M665 1435 c-22 -7 -98 -32 -170 -55 -125 -40 -173 -59 -110 -45 26 6
269 80 345 105 l25 8 -25 0 c-14 0 -43 -6 -65 -13z"/>
<path d="M2244 1439 c55 -34 144 -51 316 -59 96 -5 207 -14 246 -20 51 -9 80
-10 100 -2 29 10 29 10 -12 11 -22 1 -90 8 -150 16 -60 9 -160 15 -224 14 -96
-2 -127 1 -189 20 -40 12 -81 25 -90 28 -11 3 -10 1 3 -8z"/>
<path d="M870 1401 c-18 -5 -25 -15 -27 -34 -1 -15 2 -27 8 -27 5 0 9 4 9 10
0 5 12 21 27 35 29 26 26 28 -17 16z"/>
<path d="M800 1386 c0 -18 3 -17 -70 -22 -133 -9 -156 -12 -170 -17 -8 -3 -28
-8 -44 -12 -56 -12 -18 -15 83 -5 56 5 129 7 161 3 l60 -6 0 31 c0 17 -4 34
-10 37 -5 3 -10 -1 -10 -9z"/>
<path d="M2935 1330 c-3 -5 -15 -10 -25 -10 -30 0 -34 -19 -6 -30 29 -11 33
-31 11 -50 -9 -7 -14 -15 -11 -17 2 -2 15 7 30 22 25 25 25 26 6 38 -23 14
-27 32 -5 23 10 -4 15 1 15 14 0 22 -5 25 -15 10z"/>
<path d="M836 1318 c-10 -22 32 -104 46 -90 7 7 4 19 -10 39 -11 15 -22 37
-24 48 -4 17 -6 18 -12 3z"/>
<path d="M2246 1295 c8 -13 22 -26 30 -29 8 -3 14 -13 14 -23 0 -12 3 -14 10
-7 17 17 -9 62 -41 73 -28 10 -29 10 -13 -14z"/>
<path d="M182 1258 c-29 -12 -51 -23 -48 -25 7 -7 116 30 116 39 0 11 -8 10
-68 -14z"/>
<path d="M592 1258 c-4 -3 -31 -9 -60 -12 -29 -3 -57 -8 -63 -12 -6 -3 -20 -8
-32 -10 -69 -12 -87 -17 -87 -24 0 -4 -10 -10 -22 -13 -12 -4 -20 -9 -17 -12
3 -3 32 4 65 15 85 30 243 60 310 60 31 0 55 2 52 5 -8 9 -138 11 -146 3z"/>
<path d="M1085 1220 c-3 -5 -12 -7 -20 -3 -10 3 -15 -1 -15 -15 0 -18 38 -40
41 -24 4 20 6 52 3 52 -1 0 -5 -4 -9 -10z"/>
<path d="M887 1214 c-10 -10 34 -73 56 -80 12 -4 29 -17 39 -29 38 -48 228
-86 228 -45 0 13 -6 13 -30 -2 -15 -10 -24 -10 -39 -1 -10 6 -36 15 -57 19
-39 7 -92 37 -107 61 -4 7 -14 10 -21 7 -9 -3 -17 3 -21 15 -3 12 -11 21 -16
21 -5 0 -9 6 -9 14 0 16 -14 29 -23 20z"/>
<path d="M2800 1207 c-53 -6 -78 -12 -66 -17 26 -9 12 -16 -45 -25 -29 -4 -55
-3 -68 4 -15 9 -51 8 -137 0 -85 -9 -121 -9 -134 -1 -19 12 -30 6 -30 -15 0
-10 25 -13 108 -13 59 0 126 -5 149 -10 32 -7 48 -6 70 5 15 8 36 15 45 15 24
0 181 50 193 61 5 5 7 8 5 8 -3 -1 -43 -6 -90 -12z"/>
<path d="M96 1192 c-3 -3 -1 -11 5 -18 11 -13 39 -9 39 6 0 10 -37 20 -44 12z"/>
<path d="M285 1170 c-4 -6 -10 -8 -13 -6 -15 9 -132 -60 -132 -78 0 -3 36 13
80 35 44 22 80 44 80 49 0 13 -7 13 -15 0z"/>
<path d="M123 1149 c-18 -18 -5 -41 17 -29 9 5 21 6 25 2 4 -4 6 2 3 13 -4 23
-28 31 -45 14z"/>
<path d="M1777 1135 c3 -8 -2 -17 -10 -21 -9 -3 -13 -12 -10 -21 10 -26 -18
-65 -44 -60 -13 2 -24 -2 -27 -10 -3 -8 -10 -11 -16 -8 -6 3 -13 -1 -16 -10
-10 -26 5 -30 29 -7 13 13 32 20 44 18 24 -5 77 44 56 51 -16 6 -17 30 -1 35
16 6 18 36 3 42 -9 3 -12 0 -8 -9z"/>
<path d="M1267 1113 c-10 -10 -23 -18 -30 -18 -6 0 -13 -4 -14 -10 -2 -12 47
-9 60 4 5 5 7 16 5 25 -3 15 -5 15 -21 -1z"/>
<path d="M1628 1119 c-12 -8 -2 -29 14 -29 5 0 7 7 4 16 -3 8 -2 12 4 9 5 -3
18 -1 27 4 15 9 14 10 -10 9 -15 -2 -33 -5 -39 -9z"/>
<path d="M1881 1121 c-9 -6 -7 -10 8 -14 13 -3 21 -13 21 -26 0 -12 6 -21 15
-21 8 0 15 -4 15 -9 0 -5 10 -13 23 -17 12 -4 28 -15 35 -26 12 -17 22 -18 85
-12 43 4 78 12 87 21 13 14 12 15 -10 8 -14 -4 -48 -10 -77 -12 -48 -4 -54 -2
-92 32 -22 20 -45 34 -51 30 -5 -3 -10 0 -10 8 0 21 -33 47 -49 38z"/>
<path d="M1355 1103 c38 -8 67 -27 81 -55 12 -24 18 -26 49 -21 28 4 35 2 33
-8 -4 -20 33 -18 54 3 25 25 22 29 -7 14 -22 -11 -31 -10 -68 8 -24 12 -57 31
-74 44 -17 12 -44 21 -60 21 -19 -1 -22 -3 -8 -6z"/>
<path d="M678 1078 c-2 -12 -14 -28 -28 -35 -30 -14 -60 -37 -104 -78 -18 -16
-23 -23 -12 -14 12 8 32 21 46 27 57 29 124 82 125 102 2 27 -23 26 -27 -2z"/>
<path d="M938 1084 c19 -35 41 -59 42 -46 0 9 8 7 27 -5 44 -29 19 -1 -32 36
-33 24 -44 28 -37 15z"/>
<path d="M2760 1090 c0 -6 20 -16 46 -22 48 -13 48 -13 28 -80 -7 -22 9 -23
26 -3 16 20 -3 95 -25 95 -7 0 -16 6 -18 13 -4 9 -6 9 -6 0 -1 -9 -8 -10 -26
-3 -16 6 -25 6 -25 0z"/>
<path d="M889 1048 c-13 -32 -21 -35 -39 -13 -14 17 -67 20 -90 5 -13 -9 -13
-11 0 -19 8 -6 17 -7 20 -3 10 13 57 13 71 0 8 -7 24 -13 36 -12 12 1 30 -7
39 -17 22 -25 38 -24 22 0 -7 11 -21 22 -33 26 -18 5 -19 6 -2 16 21 12 23 46
3 46 -8 0 -20 -13 -27 -29z"/>
<path d="M1315 1067 c-46 -11 -72 -22 -100 -43 -20 -15 -20 -16 10 -39 32 -27
66 -34 107 -23 31 7 41 -2 32 -27 -4 -10 -12 -14 -23 -9 -40 16 -51 17 -45 1
4 -11 -2 -17 -18 -19 -13 -3 9 -4 48 -4 61 1 70 3 60 15 -9 12 -8 14 7 8 14
-5 17 -1 17 23 0 23 4 28 16 23 9 -3 14 -13 11 -23 -4 -14 3 -16 50 -12 46 4
52 2 47 -12 -3 -9 -16 -16 -28 -17 -11 0 -36 -6 -55 -13 -31 -11 -36 -19 -53
-76 -9 -35 -16 -66 -14 -68 2 -2 7 6 11 17 9 29 22 26 43 -7 9 -16 22 -27 28
-25 6 2 22 -1 36 -6 22 -8 27 -18 33 -61 5 -33 11 -48 17 -42 11 11 14 133 3
185 -7 33 -10 37 -39 37 -30 0 -56 15 -56 32 0 13 28 9 61 -7 l29 -16 -1 45
-2 44 -56 17 c-49 15 -59 22 -76 58 -24 48 -41 46 -38 -3 1 -35 1 -35 -44 -38
-29 -2 -54 3 -69 13 -29 18 -23 35 11 35 13 0 26 4 30 10 3 5 12 7 19 4 12 -4
44 23 35 29 -2 2 -22 -1 -44 -6z m153 -242 c12 -14 28 -25 35 -25 8 0 21 -8
31 -19 13 -15 14 -20 4 -29 -10 -8 -27 -3 -67 20 -56 33 -72 55 -50 69 20 13
23 12 47 -16z"/>
<path d="M1812 1038 c-7 -7 -12 -19 -12 -28 0 -26 -31 -47 -80 -55 -53 -9 -80
-21 -80 -37 0 -9 3 -9 12 0 15 15 68 16 68 1 0 -5 5 -7 11 -3 6 3 15 0 20 -7
11 -19 33 3 34 34 0 27 18 35 25 10 7 -25 92 -30 143 -9 42 18 45 26 18 50
-23 21 -44 12 -36 -14 8 -24 -23 -34 -76 -25 -35 6 -39 9 -33 28 4 12 7 28 7
35 0 10 11 12 41 7 40 -6 40 -5 16 9 -30 19 -62 20 -78 4z"/>
<path d="M1050 1021 c0 -6 12 -18 28 -28 15 -10 30 -21 33 -26 3 -4 13 -5 21
-2 9 4 35 -3 58 -15 30 -15 46 -18 53 -11 7 7 3 14 -14 21 -13 6 -39 22 -58
35 -19 14 -46 25 -62 25 -15 0 -34 3 -43 6 -9 3 -16 1 -16 -5z"/>
<path d="M200 995 c-28 -30 -40 -32 -40 -5 0 11 -7 20 -16 20 -17 0 -11 -34
11 -60 7 -8 11 -27 8 -41 -3 -15 0 -30 7 -34 7 -5 11 -1 10 11 -7 59 1 82 31
102 17 11 27 22 22 25 -6 4 -21 -5 -33 -18z"/>
<path d="M970 996 c0 -16 6 -26 14 -26 8 0 17 -7 20 -16 5 -12 8 -13 20 -2 17
16 11 28 -15 28 -10 0 -19 6 -19 14 0 8 -4 18 -10 21 -6 4 -10 -5 -10 -19z"/>
<path d="M2765 1006 c-18 -13 -18 -14 3 -25 17 -9 25 -8 41 6 15 13 17 19 8
25 -18 11 -31 10 -52 -6z"/>
<path d="M2900 967 c0 -9 -3 -16 -7 -15 -16 3 -43 -15 -37 -24 4 -6 10 -5 15
3 16 27 20 0 4 -30 -15 -31 -15 -31 3 -20 18 11 38 86 26 98 -2 2 -4 -3 -4
-12z"/>
<path d="M2008 951 c-13 -11 -44 -25 -68 -32 -40 -12 -42 -14 -18 -17 15 -2
48 8 77 22 63 33 103 34 124 4 14 -20 18 -21 26 -8 8 11 6 17 -7 22 -9 4 -12
7 -7 8 14 3 -45 17 -76 19 -15 0 -37 -8 -51 -18z"/>
<path d="M2430 957 c0 -9 -5 -17 -11 -17 -5 0 -8 3 -6 8 7 10 -175 4 -186 -7
-5 -5 5 -13 24 -20 19 -6 46 -23 61 -38 l27 -26 48 41 49 40 158 -3 c87 -2
161 -7 164 -10 15 -14 -111 -79 -140 -72 -12 4 -22 -1 -26 -11 -9 -24 -28 -42
-37 -34 -4 4 -5 2 -3 -3 4 -14 -42 -69 -71 -84 -17 -10 -26 -10 -37 0 -19 16
-18 20 15 57 17 17 27 32 24 32 -4 0 4 11 17 25 35 37 20 38 -27 2 -22 -18
-49 -37 -59 -43 -16 -10 -16 -12 -1 -44 9 -18 17 -41 17 -51 0 -33 15 -28 80
27 36 29 71 54 78 54 6 0 11 5 10 11 -2 6 26 28 62 48 181 100 177 111 -38
111 -117 0 -172 4 -180 12 -9 9 -12 8 -12 -5z m-65 -23 c13 -5 14 -8 3 -15
-21 -13 -45 -10 -52 6 -6 16 18 20 49 9z"/>
<path d="M658 952 c-22 -4 -24 -22 -3 -22 8 0 19 -9 25 -20 6 -11 17 -20 25
-20 22 0 18 18 -4 25 -11 3 -21 14 -23 23 -2 11 -10 16 -20 14z"/>
<path d="M820 954 c0 -5 9 -15 20 -22 11 -7 20 -19 20 -27 0 -8 7 -15 15 -15
26 0 21 8 -33 54 -12 11 -22 15 -22 10z"/>
<path d="M275 940 c-9 -15 26 -60 68 -87 32 -20 44 -23 62 -15 17 8 21 16 17
41 -2 17 -8 33 -12 36 -5 3 -6 -4 -3 -15 3 -11 0 -20 -6 -20 -6 0 -11 -7 -11
-15 0 -18 -19 -19 -42 -1 -27 20 -22 34 15 45 l32 10 -37 -2 c-23 -1 -46 5
-58 15 -10 10 -22 13 -25 8z"/>
<path d="M565 940 c11 -5 17 -9 13 -9 -10 -1 24 -41 33 -41 4 0 9 8 11 18 4
18 -32 43 -61 41 -12 0 -12 -2 4 -9z"/>
<path d="M756 932 c-3 -3 -6 -12 -6 -21 0 -14 2 -14 10 -1 8 12 10 10 11 -10
0 -23 1 -23 9 -5 7 17 9 17 9 3 1 -30 21 -20 21 10 0 22 -5 27 -24 28 -14 1
-27 -1 -30 -4z"/>
<path d="M1568 928 c7 -7 12 -30 13 -52 l1 -41 11 32 c7 17 15 35 19 38 13 14
-5 35 -30 35 -20 0 -23 -3 -14 -12z"/>
<path d="M962 897 c-1 -18 3 -39 8 -47 7 -11 10 -3 10 27 0 49 -16 67 -18 20z"/>
<path d="M1812 890 c11 -32 15 -35 36 -22 9 6 4 14 -17 30 l-30 22 11 -30z"/>
<path d="M526 902 c-6 -11 71 -38 81 -29 3 4 -3 7 -15 7 -12 0 -21 6 -19 12 2
15 -39 23 -47 10z"/>
<path d="M2024 895 c-18 -15 -18 -15 0 -13 10 2 21 -3 23 -9 3 -7 -2 -13 -10
-13 -8 0 -19 -6 -25 -12 -8 -10 -4 -13 13 -14 21 -2 26 3 54 61 3 6 -3 4 -12
-4 -15 -12 -21 -9 -18 12 2 10 -3 9 -25 -8z"/>
<path d="M492 888 c-8 -8 -5 -16 11 -29 14 -12 17 -18 8 -19 -7 0 -11 -6 -7
-15 7 -19 -18 -20 -33 -1 -10 12 -16 12 -42 -2 -35 -20 -37 -29 -6 -34 12 -2
21 -9 19 -16 -1 -7 2 -22 8 -33 8 -14 7 -25 -4 -40 -14 -21 -12 -49 5 -49 4 0
6 7 3 15 -7 17 11 21 21 5 3 -5 11 -10 18 -10 6 0 2 6 -8 14 -17 12 -16 48 2
45 4 -1 18 2 29 6 17 5 21 14 20 36 -2 33 -10 44 -25 34 -15 -9 -3 -27 12 -19
7 3 3 -2 -7 -10 -11 -9 -14 -16 -7 -16 7 0 9 -4 6 -10 -11 -18 -22 -11 -21 13
1 15 -4 22 -16 21 -10 -1 -18 4 -18 12 0 8 -10 15 -22 15 -17 1 -19 2 -5 6 9
2 17 9 17 15 0 6 8 0 19 -13 15 -19 21 -21 34 -11 23 19 30 60 14 82 -10 14
-16 17 -25 8z"/>
<path d="M1156 891 c-12 -18 -160 -82 -211 -91 -68 -12 -155 -39 -180 -56 -19
-14 -19 -14 1 -14 11 0 39 9 62 20 57 28 88 26 96 -5 4 -14 11 -25 17 -25 8 0
7 5 -1 15 -18 21 -8 19 91 -21 61 -24 102 -34 127 -32 37 3 37 3 -23 22 -33
10 -71 24 -85 31 -14 8 -42 17 -62 20 -21 3 -38 9 -38 13 0 4 28 15 63 25 34
10 84 29 110 43 55 27 66 29 103 12 25 -12 26 -14 21 -80 -3 -38 -11 -75 -17
-83 -10 -12 -9 -15 4 -15 9 0 16 -4 16 -10 0 -5 -12 -10 -27 -10 l-26 0 26
-23 c32 -27 33 -34 10 -40 -13 -3 -8 -7 14 -12 29 -7 93 -58 93 -75 0 -10 47
-30 70 -30 11 0 20 5 20 10 0 6 6 10 13 10 16 0 20 69 4 85 -7 6 -17 10 -24 8
-7 -3 -9 3 -6 16 6 24 -14 54 -30 44 -5 -3 -18 5 -28 18 -10 13 -21 21 -24 17
-4 -4 9 -24 29 -45 20 -21 34 -43 32 -50 -3 -6 4 -13 15 -16 20 -5 26 -41 9
-52 -6 -4 -8 -11 -5 -16 4 -5 -6 -9 -20 -9 -14 0 -24 4 -21 9 3 5 -10 23 -29
40 -20 17 -47 47 -60 67 -26 38 -33 84 -14 84 8 0 8 4 0 14 -8 10 -7 31 4 86
8 40 14 74 13 74 -2 1 -23 7 -48 13 -25 7 -52 15 -61 18 -10 4 -20 2 -23 -4z"/>
<path d="M1626 864 c-4 -19 -10 -43 -14 -52 -3 -10 7 -5 25 12 36 34 80 41 89
14 3 -10 10 -16 15 -12 6 3 17 0 26 -8 14 -11 16 -11 8 1 -6 11 -4 13 8 8 10
-3 17 -2 17 4 0 6 -21 19 -47 30 -27 11 -56 24 -65 29 -36 20 -55 12 -62 -26z"/>
<path d="M648 855 c-2 -17 1 -50 6 -75 4 -25 9 -53 9 -62 1 -9 5 -14 9 -12 10
7 28 -31 28 -60 0 -14 5 -26 11 -26 6 0 44 -19 83 -43 39 -24 79 -46 89 -50 9
-3 17 -13 17 -21 0 -15 35 -37 147 -91 112 -55 181 -69 298 -61 55 3 110 9
123 12 17 5 22 2 22 -12 1 -18 1 -18 16 1 13 18 12 20 -8 28 -21 8 -120 3
-178 -9 l-25 -6 25 22 25 22 -30 -7 c-16 -4 -54 -13 -82 -20 -44 -10 -53 -10
-53 1 0 8 -8 14 -18 14 -10 0 -22 3 -26 7 -3 4 -12 8 -19 9 -79 12 -176 61
-207 104 -11 16 -51 45 -88 66 -126 69 -134 90 -29 80 130 -12 162 -17 192
-26 62 -19 193 -32 211 -22 14 8 6 11 -41 17 -33 4 -91 14 -130 22 -38 9 -91
15 -117 14 -65 -2 -188 25 -207 46 -9 10 -18 27 -19 38 -2 11 -7 21 -11 23
-14 5 1 52 15 52 8 0 14 5 14 10 0 6 -7 10 -15 10 -7 0 -18 8 -24 17 -8 15
-10 13 -13 -12z"/>
<path d="M1351 869 c-14 -5 -31 -7 -40 -4 -11 4 -11 1 3 -14 10 -11 15 -25 11
-30 -3 -6 -3 -16 1 -22 4 -7 11 -1 19 17 9 23 12 25 18 11 3 -9 2 -17 -3 -17
-6 0 -9 -17 -9 -37 1 -21 3 -29 6 -18 2 11 11 37 19 58 24 65 20 74 -25 56z"/>
<path d="M558 850 c-9 -6 -15 -18 -13 -28 2 -9 4 -19 4 -22 1 -3 6 2 11 10 8
11 9 9 5 -11 -5 -22 -2 -27 17 -32 15 -4 28 -1 38 10 14 15 13 16 -3 4 -20
-16 -19 -17 -39 26 -11 22 -13 34 -5 42 13 13 8 14 -15 1z"/>
<path d="M2121 842 c-8 -16 -6 -17 25 -14 19 2 34 9 34 15 0 6 -3 7 -6 4 -4
-3 -15 -2 -25 3 -14 8 -20 6 -28 -8z"/>
<path d="M2821 825 c-13 -19 -27 -32 -32 -29 -5 3 -8 1 -7 -4 2 -5 -23 -37
-54 -71 -40 -42 -52 -61 -40 -61 14 1 139 141 165 186 17 29 -9 12 -32 -21z"/>
<path d="M176 827 c-5 -21 32 -58 87 -86 40 -21 42 -31 13 -63 -19 -19 -24
-34 -20 -55 3 -15 9 -29 15 -31 5 -2 9 -10 9 -17 0 -8 3 -16 8 -18 4 -3 8 16
9 41 0 26 4 63 8 82 6 33 2 39 -59 101 -55 57 -65 63 -70 46z"/>
<path d="M1820 828 c0 -7 12 -24 27 -40 25 -26 25 -29 10 -46 -13 -15 -16 -29
-11 -66 4 -25 11 -49 15 -52 5 -3 7 11 4 32 -5 39 17 94 38 94 6 0 35 -17 62
-38 28 -21 65 -44 82 -51 18 -7 30 -17 28 -22 -3 -4 4 -13 17 -20 l22 -12 -30
-23 c-32 -26 -49 -31 -38 -12 4 7 -1 6 -11 -4 -20 -18 -11 -42 14 -35 9 3 33
12 54 21 37 16 38 16 33 -1 -3 -10 -2 -33 3 -50 8 -29 7 -33 -22 -48 l-32 -16
40 7 c22 4 53 8 68 7 l28 0 -30 31 c-33 34 -38 55 -21 87 7 12 7 19 1 19 -12
0 -61 48 -61 59 0 11 -67 57 -110 75 -19 8 -59 38 -89 65 -51 48 -91 65 -91
39z"/>
<path d="M2147 806 c-4 -9 -1 -16 6 -16 8 0 7 -4 -3 -10 -8 -5 -11 -13 -6 -17
4 -4 13 0 20 10 7 9 18 17 25 17 14 0 14 17 -1 26 -7 4 -8 3 -4 -4 9 -15 -6
-16 -21 -1 -7 7 -12 6 -16 -5z"/>
<path d="M1744 790 c3 -14 6 -33 6 -42 0 -10 6 -18 14 -18 25 0 25 28 -1 57
l-25 28 6 -25z"/>
<path d="M1647 785 c-10 -7 -27 -11 -37 -8 -18 5 -20 0 -20 -51 0 -31 -7 -72
-14 -91 -8 -19 -11 -35 -5 -35 5 0 9 5 9 10 0 6 3 9 8 9 27 -4 44 2 38 16 -3
8 -1 15 4 15 14 0 32 -39 26 -55 -3 -8 -1 -17 4 -20 6 -4 10 0 10 8 0 8 7 20
15 27 12 10 15 10 15 0 0 -8 2 -11 5 -8 11 10 -7 37 -21 31 -9 -3 -21 9 -34
38 -23 53 -26 99 -6 99 8 0 18 5 21 11 11 16 2 19 -18 4z"/>
<path d="M2301 777 c-30 -9 -50 -26 -116 -98 -13 -14 -13 -21 3 -57 9 -23 20
-42 24 -42 13 0 3 51 -12 60 -10 7 -12 12 -4 18 6 4 14 17 18 30 12 36 29 26
22 -13 -4 -19 -5 -35 -2 -35 12 0 36 61 36 89 0 30 0 30 32 17 28 -12 33 -20
35 -52 1 -28 -1 -35 -7 -24 -8 13 -10 12 -10 -2 0 -11 -8 -18 -20 -18 -11 0
-20 -4 -20 -10 0 -13 1 -13 44 5 32 14 35 17 26 40 -7 18 -6 25 2 25 9 0 9 3
0 12 -18 18 -15 28 8 28 25 0 26 16 1 30 -11 5 -21 10 -23 9 -2 -1 -18 -6 -37
-12z"/>
<path d="M365 751 c-3 -17 -14 -31 -23 -33 -12 -2 -13 -6 -5 -11 6 -4 18 0 26
8 9 8 22 15 29 15 10 0 10 2 -1 9 -8 5 -11 16 -8 25 4 9 2 16 -3 16 -4 0 -11
-13 -15 -29z"/>
<path d="M400 770 c0 -5 4 -11 10 -15 5 -3 7 -12 4 -19 -3 -8 0 -17 7 -22 8
-4 10 -3 5 4 -4 7 -3 12 2 12 15 0 2 38 -14 44 -8 3 -14 1 -14 -4z"/>
<path d="M2606 755 c4 -11 9 -38 12 -60 2 -22 9 -46 15 -53 5 -7 8 -14 6 -15
-2 -2 -29 -20 -61 -40 -44 -29 -55 -41 -51 -57 6 -21 20 -17 41 12 7 10 23 18
36 18 46 0 52 116 11 188 -9 15 -13 18 -9 7z"/>
<path d="M570 745 c0 -8 4 -15 9 -15 5 0 16 -3 24 -6 8 -3 17 2 20 10 4 10 0
14 -14 11 -10 -2 -19 0 -19 6 0 5 -4 9 -10 9 -5 0 -10 -7 -10 -15z"/>
<path d="M1770 711 c0 -5 11 -18 25 -29 14 -11 25 -29 25 -39 0 -23 -55 -103
-71 -103 -6 0 -22 -9 -36 -20 -37 -29 -59 -25 -74 13 -7 17 -12 38 -12 45 2
26 -15 11 -19 -18 -9 -63 57 -98 123 -65 40 21 114 86 113 100 0 6 -3 36 -8
68 -7 55 -9 57 -37 57 -16 0 -29 -4 -29 -9z"/>
<path d="M2299 704 c-18 -22 -19 -41 -2 -41 9 0 13 7 10 18 -3 10 0 20 7 22 6
2 8 7 5 11 -3 4 -12 -1 -20 -10z"/>
<path d="M1423 683 c-8 -3 -7 -14 4 -41 23 -56 37 -64 28 -17 -8 49 -16 63
-32 58z"/>
<path d="M397 656 c-8 -8 -19 -28 -26 -44 -9 -21 -18 -28 -30 -25 -30 8 -18
-30 22 -71 l37 -37 25 27 c32 34 31 36 -2 18 -24 -12 -28 -12 -31 0 -2 8 -13
16 -24 18 -12 2 -23 9 -26 17 -3 8 0 11 6 7 20 -12 48 31 43 66 0 4 8 5 19 3
14 -3 20 2 20 16 0 22 -13 25 -33 5z"/>
<path d="M2370 646 c0 -8 -4 -16 -9 -18 -18 -6 -21 -52 -6 -72 8 -11 18 -16
22 -11 5 4 2 10 -4 12 -21 7 -15 30 17 64 16 18 27 35 25 38 -3 2 -12 -4 -21
-15 -8 -10 -13 -14 -10 -7 4 6 2 14 -4 18 -5 3 -10 0 -10 -9z"/>
<path d="M560 642 c0 -12 23 -32 37 -32 22 0 15 16 -12 28 -14 6 -25 8 -25 4z"/>
<path d="M2425 629 c-17 -8 -16 -9 6 -4 18 3 29 0 32 -10 4 -10 1 -12 -11 -8
-15 6 -16 5 -2 -12 14 -17 13 -18 -9 -12 -17 4 -21 3 -13 -5 6 -6 22 -8 36 -4
26 6 27 23 3 54 -11 14 -15 14 -42 1z"/>
<path d="M2243 603 c9 -2 15 -9 11 -14 -3 -5 0 -8 8 -7 7 2 12 -2 11 -9 -2 -7
4 -10 12 -7 8 4 15 9 15 13 0 8 -51 31 -64 30 -6 -1 -3 -3 7 -6z"/>
<path d="M2386 578 c8 -68 28 -128 42 -128 10 0 11 -4 5 -12 -6 -8 -5 -26 3
-48 9 -25 13 -29 15 -15 4 44 -2 77 -21 112 -23 44 -25 54 -7 47 8 -3 20 2 27
11 15 18 0 21 -18 3 -9 -9 -12 -9 -12 1 0 7 -5 9 -11 5 -8 -4 -9 1 -4 16 5 15
4 20 -4 16 -7 -5 -9 -1 -5 8 3 9 1 16 -4 16 -6 0 -9 -14 -6 -32z"/>
<path d="M440 585 c-7 -9 -11 -18 -8 -20 9 -10 38 7 38 21 0 18 -14 18 -30 -1z"/>
<path d="M586 554 c-32 -19 -73 -46 -91 -59 -17 -14 -43 -25 -56 -26 -24 0
-24 0 -2 -11 17 -8 33 -5 78 16 59 27 158 36 170 16 3 -5 15 -10 26 -10 10 0
19 -4 19 -9 0 -11 69 -36 77 -28 8 9 -7 27 -22 27 -8 0 -12 6 -9 14 4 11 -4
14 -35 13 -47 -2 -50 0 -18 14 19 8 18 9 -10 5 -20 -3 -33 -1 -36 7 -3 9 -9 8
-23 -3 -18 -14 -18 -14 -5 3 12 15 11 17 -10 17 -18 0 -20 3 -11 12 9 9 23 9
63 0 78 -18 87 -14 33 13 -27 14 -56 25 -64 25 -8 0 -41 -16 -74 -36z"/>
<path d="M2307 539 c-4 -13 -2 -28 3 -33 14 -14 24 19 12 40 -8 14 -10 13 -15
-7z"/>
<path d="M2473 545 c-13 -5 -23 -13 -23 -17 0 -12 14 -10 28 4 9 9 12 7 12 -9
0 -11 7 -26 15 -33 12 -10 15 -9 15 4 0 10 -4 15 -9 11 -5 -3 -11 7 -13 22 -3
25 -5 27 -25 18z"/>
<path d="M1860 461 c0 -6 28 -23 63 -39 50 -23 72 -28 115 -24 68 5 67 17 -1
18 -30 1 -65 8 -78 15 -20 11 -87 38 -96 39 -2 0 -3 -4 -3 -9z"/>
<path d="M340 454 c0 -23 70 -104 90 -104 6 0 10 -5 10 -11 0 -18 35 -56 48
-51 6 2 12 0 12 -6 0 -9 50 -35 57 -29 10 10 -13 39 -46 60 -79 49 -120 83
-126 107 -6 24 -21 40 -37 40 -5 0 -8 -3 -8 -6z"/>
<path d="M890 445 c0 -3 12 -10 26 -15 23 -9 24 -11 10 -26 -9 -8 -21 -25 -28
-37 -15 -28 -38 -138 -27 -132 4 3 10 1 14 -5 10 -17 25 -11 25 10 0 11 5 20
10 20 6 0 10 4 10 9 0 5 -8 8 -17 6 -10 -1 -21 -1 -25 2 -10 5 13 53 35 76 10
10 16 21 13 25 -2 4 2 13 10 20 12 10 14 10 14 -2 0 -8 17 -20 38 -27 20 -6
48 -20 62 -29 43 -30 157 -60 231 -60 38 0 69 3 69 8 0 4 -36 7 -80 7 -56 0
-83 4 -89 13 -4 7 -12 12 -17 11 -30 -7 -96 17 -120 42 -15 16 -38 29 -51 29
-13 0 -23 3 -23 8 0 4 -17 16 -37 27 -54 27 -53 27 -53 20z"/>
<path d="M2212 431 c-11 -7 -10 -9 3 -15 9 -3 13 -11 9 -17 -4 -7 -3 -9 3 -6
15 9 24 -18 11 -31 -16 -16 51 -60 97 -64 34 -2 41 -7 43 -27 2 -13 10 -30 17
-37 11 -11 14 -11 19 2 9 23 7 31 -3 16 -6 -11 -10 -10 -15 3 -4 12 0 18 14
22 11 3 20 9 20 14 0 12 -17 11 -25 -2 -5 -7 -12 -6 -23 4 -10 8 -27 18 -38
21 -19 6 -43 30 -101 103 -12 15 -22 20 -31 14z"/>
<path d="M2120 418 c-19 -7 -28 -19 -12 -17 4 1 14 0 22 -1 8 -2 -5 -6 -30
-10 l-45 -7 46 -1 c34 -2 48 2 53 14 3 8 10 13 15 10 5 -3 11 1 15 9 6 16 -25
17 -64 3z"/>
<path d="M1879 389 c-44 -9 -115 -38 -94 -39 23 -1 -50 -32 -84 -36 -20 -2
-54 -6 -77 -9 -50 -7 -74 1 -74 25 0 28 -18 34 -22 8 -4 -27 -92 -89 -123 -87
-11 1 -29 0 -40 -1 -30 -3 30 -17 80 -19 29 0 36 2 25 9 -13 8 -12 11 5 25 14
11 33 13 66 9 66 -8 230 22 249 45 14 17 49 34 75 37 16 1 85 33 85 38 0 7
-12 6 -71 -5z"/>
<path d="M517 373 c-4 -6 6 -16 21 -24 15 -8 29 -16 32 -19 3 -3 24 -13 48
-22 36 -14 42 -14 42 -2 0 9 -4 13 -9 9 -5 -3 -17 2 -26 11 -9 9 -19 14 -22
11 -3 -4 -15 -1 -27 5 -11 7 -25 12 -29 13 -4 0 -12 6 -16 14 -5 7 -11 9 -14
4z"/>
<path d="M1995 373 c-11 -3 -24 -9 -30 -15 -10 -10 32 -2 70 13 20 8 20 8 0 7
-11 0 -29 -2 -40 -5z"/>
<path d="M2353 360 c-1 -11 4 -20 13 -20 8 0 14 -4 14 -9 0 -13 32 -23 39 -13
8 11 51 22 51 13 0 -4 -5 -12 -12 -19 -8 -8 -8 -12 -1 -12 15 0 36 27 29 39
-8 12 -69 11 -77 -1 -4 -6 -17 2 -31 16 -22 24 -24 25 -25 6z"/>
<path d="M1840 300 c0 -4 3 -10 7 -13 8 -8 13 -48 12 -99 0 -44 13 -49 29 -13
16 34 15 45 -2 45 -18 0 -33 43 -17 48 20 7 13 41 -9 39 -11 -1 -20 -4 -20 -7z"/>
<path d="M575 260 c-3 -6 2 -13 12 -16 10 -3 52 -22 93 -43 60 -30 88 -38 139
-39 34 -1 67 -4 71 -7 5 -3 30 0 57 6 26 6 119 11 206 11 136 1 160 -2 177
-17 11 -10 26 -15 35 -12 8 4 15 3 15 -2 0 -9 85 -19 240 -27 96 -5 160 -13
173 -24 21 -17 218 -20 321 -4 93 14 209 51 234 74 9 9 25 19 35 23 15 6 25
27 12 27 -5 0 -86 -39 -128 -61 -40 -22 -188 -45 -300 -48 -100 -2 -123 0
-160 17 -33 16 -71 21 -182 25 -129 5 -204 18 -280 47 -45 17 -309 20 -376 3
-79 -19 -194 -8 -244 22 -11 7 -38 18 -60 25 -22 7 -44 16 -49 21 -13 12 -33
11 -41 -1z"/>
<path d="M2213 244 c-7 -7 -13 -18 -13 -24 0 -5 -7 -10 -16 -10 -8 0 -12 -4
-9 -10 12 -20 33 -9 44 22 13 36 11 42 -6 22z"/>
<path d="M2083 202 c0 -10 9 -26 19 -36 17 -18 17 -18 8 15 -6 19 -10 35 -10
36 0 2 -4 3 -9 3 -6 0 -9 -8 -8 -18z"/>
<path d="M2025 191 c-3 -12 -11 -21 -16 -21 -6 0 -7 5 -3 12 4 7 3 8 -4 4 -17
-10 -15 -36 3 -36 15 0 41 48 31 57 -2 3 -7 -5 -11 -16z"/>
</g>
</svg>
