<?xml version="1.0" standalone="no"?>
<!DOCTYPE svg PUBLIC "-//W3C//DTD SVG 20010904//EN"
 "http://www.w3.org/TR/2001/REC-SVG-20010904/DTD/svg10.dtd">
<svg version="1.0" xmlns="http://www.w3.org/2000/svg"
 width="300.000000pt" height="410.000000pt" viewBox="0 0 300.000000 410.000000"
 preserveAspectRatio="xMidYMid meet">
<metadata>
Created by potrace 1.10, written by Peter Selinger 2001-2011
</metadata>
<g transform="translate(0.000000,410.000000) scale(0.100000,-0.100000)"
fill="#000000" stroke="none">
<path d="M333 4065 c-17 -13 -17 -14 4 -8 17 4 25 -1 34 -21 17 -36 69 -35 77
2 3 16 -4 15 -33 -4 -23 -15 -24 -15 -30 9 -8 32 -27 40 -52 22z"/>
<path d="M1084 4035 c-12 -8 -24 -12 -28 -10 -3 3 -4 2 -1 -2 3 -3 -1 -13 -7
-21 -7 -8 3 -5 22 7 50 30 60 27 61 -16 1 -38 1 -38 11 -10 8 23 7 32 -8 48
-21 23 -24 23 -50 4z"/>
<path d="M361 3991 c-6 -4 -6 -12 -1 -20 7 -12 11 -12 24 2 9 8 16 17 16 20 0
6 -28 4 -39 -2z"/>
<path d="M1083 3993 c-7 -3 -13 -10 -13 -16 0 -18 -31 -46 -46 -40 -8 3 -14 0
-14 -7 0 -6 -6 -8 -12 -4 -7 4 -10 4 -6 -1 4 -4 2 -15 -4 -24 -10 -13 -10 -14
2 -3 21 18 41 15 33 -5 -4 -10 -11 -22 -15 -28 -31 -37 -58 -90 -54 -102 3 -7
-3 -22 -14 -33 -11 -11 -20 -31 -20 -45 0 -14 -6 -41 -14 -60 -16 -36 -12 -45
16 -45 10 0 18 -7 18 -15 0 -8 7 -15 15 -15 13 0 14 4 5 20 -6 11 -17 20 -24
20 -11 0 -13 10 -9 43 4 23 10 44 14 47 11 8 29 58 29 82 0 12 11 36 24 53 14
18 28 44 32 59 3 14 10 26 16 26 5 0 7 4 4 9 -3 5 1 14 9 21 13 11 14 10 9 -4
-4 -10 -1 -16 9 -16 10 0 13 7 10 19 -3 10 0 29 7 41 13 24 11 29 -7 23z"/>
<path d="M1071 3819 c-14 -40 -14 -42 0 -37 11 4 24 68 15 68 -2 0 -9 -14 -15
-31z"/>
<path d="M914 3798 c-3 -16 -3 -32 0 -35 3 -4 6 -1 6 6 0 7 7 19 15 27 19 19
19 31 0 31 -8 0 -17 -13 -21 -29z"/>
<path d="M2974 3783 c-10 -15 -23 -31 -28 -35 -6 -4 -8 -10 -5 -13 4 -3 19 11
34 30 15 20 25 39 22 42 -3 2 -14 -8 -23 -24z"/>
<path d="M2266 3774 c-12 -31 1 -33 35 -4 l24 19 -26 1 c-16 0 -29 -7 -33 -16z"/>
<path d="M2720 3753 c0 -9 -2 -14 -5 -11 -3 3 -20 -8 -37 -24 -45 -42 -29 -44
20 -1 41 36 52 53 32 53 -5 0 -10 -7 -10 -17z"/>
<path d="M1042 3716 c-6 -23 -13 -61 -17 -86 -5 -39 -3 -47 14 -58 19 -11 29
-4 15 11 -11 11 -14 86 -4 92 6 3 10 19 10 36 0 16 5 29 10 29 6 0 10 4 10 8
0 5 -6 9 -14 9 -9 0 -19 -17 -24 -41z"/>
<path d="M1014 3543 c0 -10 -3 -38 -7 -61 -6 -32 -4 -43 4 -40 7 2 13 12 15
22 1 10 11 27 20 38 14 15 15 19 4 16 -9 -2 -15 5 -15 16 0 11 -5 21 -10 23
-6 2 -11 -5 -11 -14z"/>
<path d="M874 3526 c-7 -8 -10 -32 -6 -61 3 -33 2 -46 -6 -41 -6 4 -12 -4 -14
-19 -4 -33 -23 -33 -23 0 -1 46 -15 39 -15 -8 0 -37 3 -45 15 -41 17 7 17 7
19 -63 1 -33 -2 -54 -10 -57 -18 -7 -24 3 -25 48 l-2 41 -7 -40 c-4 -22 -10
-48 -15 -57 -7 -19 9 -26 20 -8 11 17 35 -2 35 -27 0 -24 -3 -25 -34 -20 -29
5 -35 2 -39 -15 -4 -14 -2 -17 4 -11 5 5 22 8 38 5 25 -3 30 -10 41 -57 7 -29
10 -64 6 -78 -5 -22 -10 -24 -61 -22 -56 3 -90 19 -78 38 3 5 1 7 -5 3 -5 -3
-13 -24 -17 -46 -4 -22 -11 -38 -15 -35 -5 3 -11 -3 -14 -12 -15 -49 -28 -122
-26 -153 2 -19 3 -45 4 -57 0 -13 6 -23 13 -23 7 0 16 -6 20 -14 22 -38 131
-35 182 5 60 47 90 140 59 182 -11 15 -13 9 -13 -36 0 -41 -6 -62 -25 -90 -44
-64 -151 -86 -201 -41 -39 35 -19 185 30 235 24 23 35 27 72 24 24 -2 49 -4
56 -4 6 -1 18 -7 25 -14 11 -11 13 -1 16 59 1 40 -3 85 -10 101 -14 32 -17 83
-6 83 4 0 6 37 6 83 -1 50 4 91 12 106 8 15 10 42 7 73 -6 49 5 62 30 37 15
-15 33 -2 33 24 -1 21 -1 21 -15 -3 l-15 -25 -6 23 c-7 25 -23 28 -40 8z"/>
<path d="M1140 3449 c0 -12 71 -16 86 -4 11 8 3 10 -36 11 -27 0 -50 -3 -50
-7z"/>
<path d="M1629 3449 c-6 -3 -4 -10 4 -18 12 -9 16 -8 21 4 8 21 29 19 51 -5
10 -11 20 -18 22 -16 3 2 -5 14 -16 25 -20 20 -59 25 -82 10z"/>
<path d="M1007 3423 c-13 -12 -7 -299 8 -423 22 -172 49 -291 106 -464 28 -82
47 -156 44 -165 -3 -8 -3 -12 1 -9 13 14 46 -15 64 -55 14 -32 18 -67 18 -148
0 -58 5 -124 11 -147 12 -43 31 -163 32 -195 0 -12 5 -17 15 -13 8 3 14 1 14
-4 0 -6 5 -10 10 -10 14 0 12 16 -3 32 -8 7 -12 19 -9 27 3 8 0 11 -6 7 -6 -4
-9 9 -6 36 2 24 -3 64 -12 90 -9 29 -13 60 -9 78 4 16 3 30 -2 30 -4 0 -9 41
-10 90 -2 50 -7 99 -13 109 -5 10 -7 20 -5 23 3 2 -11 22 -30 42 -19 21 -35
44 -35 51 0 6 -3 15 -7 18 -3 4 -8 22 -10 39 -2 18 -8 35 -13 36 -6 2 -10 11
-10 21 0 9 -6 25 -13 36 -8 11 -13 32 -12 47 1 15 -4 29 -12 32 -8 3 -13 16
-12 28 2 13 -1 30 -6 38 -5 8 -10 21 -11 30 -5 42 -16 85 -25 96 -7 8 -6 15 2
19 8 6 8 9 -1 15 -7 4 -13 28 -15 53 -2 25 -6 50 -9 56 -4 6 -2 11 4 11 6 0 8
5 4 12 -16 25 -13 58 4 59 14 0 14 2 2 6 -23 9 -30 25 -19 46 7 11 17 16 27
13 13 -5 13 -3 -2 9 -10 8 -22 13 -25 10 -8 -4 -9 6 -13 158 -2 64 0 117 5
117 4 0 7 5 7 10 0 11 -13 13 -23 3z"/>
<path d="M2788 3408 c24 -12 31 -44 8 -35 -10 4 -13 1 -9 -8 4 -11 10 -12 24
-4 10 5 19 14 19 19 0 11 -41 40 -55 39 -5 0 0 -5 13 -11z"/>
<path d="M1680 3401 c0 -11 45 -41 62 -41 7 0 19 -9 26 -20 12 -19 42 -28 42
-12 0 12 -37 41 -57 44 -10 2 -27 11 -37 21 -21 19 -36 22 -36 8z"/>
<path d="M1386 3390 c6 -6 18 -12 25 -13 8 -2 19 -6 25 -10 7 -4 17 -1 23 6 8
10 7 14 -2 14 -6 0 -28 3 -47 8 -27 5 -32 4 -24 -5z"/>
<path d="M1635 3381 c-3 -6 14 -54 39 -108 47 -104 68 -168 58 -177 -3 -3 0
-6 6 -6 7 0 11 -10 10 -22 0 -13 5 -43 12 -68 43 -156 46 -431 4 -447 -8 -3
-21 0 -28 6 -12 10 -13 8 -9 -8 3 -12 1 -21 -5 -21 -6 0 -13 -9 -17 -20 -3
-11 -11 -19 -17 -17 -6 1 -12 -6 -13 -16 -2 -10 -11 -27 -20 -38 -10 -10 -15
-27 -12 -39 3 -11 1 -22 -3 -25 -5 -3 -14 -37 -20 -75 -6 -39 -16 -70 -22 -70
-6 0 -8 -7 -5 -15 4 -8 1 -17 -4 -21 -6 -3 -8 -17 -5 -30 4 -13 3 -24 -2 -24
-9 0 -10 -2 -16 -75 -2 -27 -8 -61 -14 -74 -5 -14 -5 -42 -2 -64 4 -21 4 -66
0 -100 -4 -34 -6 -65 -4 -69 3 -4 0 -9 -5 -12 -5 -3 -8 -24 -6 -47 2 -33 0
-39 -13 -34 -12 4 -13 3 -3 -9 7 -9 14 -55 17 -108 9 -201 14 -252 34 -323 6
-22 11 -53 10 -69 -1 -30 32 -126 54 -157 9 -13 10 -36 5 -79 -4 -33 -5 -70
-2 -81 7 -24 -64 -169 -82 -169 -15 0 -37 25 -29 33 8 8 -26 78 -48 100 -22
22 -23 14 -2 -19 9 -13 17 -44 18 -68 1 -41 5 -47 46 -74 52 -35 68 -29 67 25
-1 24 5 40 18 49 10 8 20 24 22 36 2 12 10 29 18 38 17 19 19 37 6 42 -6 2 -6
32 -1 75 9 80 4 123 -15 123 -20 0 -48 75 -42 109 4 17 0 52 -8 78 -17 55 -37
215 -40 318 -3 106 14 375 32 510 8 66 15 127 16 135 0 8 4 21 10 28 6 7 16
43 23 80 28 148 42 177 105 220 47 32 59 59 71 168 17 159 -30 407 -108 569
-23 50 -46 102 -50 118 -6 27 -18 35 -29 18z"/>
<path d="M2639 3368 c-8 -7 -25 -26 -39 -42 l-25 -30 31 25 c17 13 37 32 43
42 13 20 10 22 -10 5z"/>
<path d="M2934 3351 c-10 -17 -22 -31 -26 -31 -4 0 -8 -7 -8 -17 0 -9 13 1 31
26 17 24 28 45 26 48 -3 2 -13 -9 -23 -26z"/>
<path d="M779 3349 c-1 -8 -1 -17 0 -21 0 -5 -4 -8 -10 -8 -6 0 -9 -7 -5 -15
3 -8 1 -15 -5 -15 -6 0 -8 -9 -4 -19 3 -11 1 -22 -4 -25 -6 -4 -8 -13 -4 -22
7 -19 -25 -105 -45 -121 -14 -12 -14 -13 4 -13 10 0 15 -4 9 -8 -17 -12 -16
-32 2 -32 9 0 14 3 10 6 -3 4 0 23 8 43 18 48 58 252 51 259 -3 3 -7 -1 -7 -9z"/>
<path d="M1234 3353 c3 -4 -2 -16 -11 -27 -18 -21 -18 -21 3 -3 11 9 28 17 37
17 30 0 26 17 -4 18 -17 0 -28 -2 -25 -5z"/>
<path d="M1740 3321 c5 -11 15 -22 22 -24 10 -4 10 -8 -1 -15 -11 -8 -11 -11
0 -18 7 -4 14 -3 17 4 2 7 8 12 13 12 6 0 7 -4 4 -10 -3 -5 0 -7 7 -5 16 7 58
-30 58 -50 0 -8 4 -15 8 -15 5 0 14 -12 21 -26 16 -35 25 -24 17 21 -4 21 -13
35 -21 35 -13 0 -16 5 -15 25 1 16 -32 36 -50 30 -11 -4 -20 -2 -20 4 0 6 -6
11 -13 11 -7 0 -19 9 -27 20 -18 25 -34 26 -20 1z"/>
<path d="M2551 3276 c-16 -19 14 -45 31 -28 9 9 6 12 -12 13 -22 0 -23 1 -6 8
12 5 15 10 9 14 -6 4 -16 1 -22 -7z"/>
<path d="M2143 3258 c-5 -7 -16 -30 -25 -50 -15 -32 -15 -36 -2 -31 8 3 13 8
10 11 -7 6 23 65 38 74 8 6 8 8 0 8 -6 0 -16 -6 -21 -12z"/>
<path d="M2670 3243 c0 -12 -18 -18 -47 -14 -7 1 -13 -2 -13 -7 0 -17 27 -21
48 -7 10 8 23 11 27 7 5 -4 5 -1 1 6 -4 6 -2 12 3 12 6 0 11 4 11 8 0 5 -7 9
-15 9 -8 0 -15 -6 -15 -14z"/>
<path d="M2711 3231 c-8 -15 -6 -20 14 -29 23 -11 23 -10 13 19 -12 34 -14 35
-27 10z"/>
<path d="M1903 3133 c-21 -8 -15 -43 7 -43 25 0 26 -25 3 -39 -10 -6 -13 -11
-6 -11 7 0 14 -28 18 -73 6 -64 4 -79 -16 -123 -13 -27 -28 -52 -33 -56 -7 -5
-6 -8 2 -8 7 0 10 -4 7 -10 -3 -5 -2 -10 4 -10 5 0 9 -15 9 -32 -1 -18 0 -48
3 -66 3 -29 6 -33 28 -29 13 3 44 -3 68 -14 35 -15 43 -23 43 -44 0 -18 5 -25
20 -25 23 0 24 3 8 30 -10 16 -9 23 7 40 15 17 28 21 55 17 30 -4 37 -1 47 20
10 21 10 23 -3 12 -38 -32 -173 -40 -224 -14 -23 12 -30 24 -36 62 -7 49 6
122 33 180 12 25 23 33 53 38 41 7 64 0 55 -16 -4 -5 0 -9 8 -9 7 0 24 -11 36
-24 24 -26 58 -31 58 -9 0 6 -4 10 -8 7 -5 -3 -19 0 -31 7 -43 23 -67 54 -70
93 -1 21 -6 40 -10 42 -5 3 -6 -12 -2 -34 l6 -40 -43 -4 c-24 -3 -46 -4 -47
-2 -11 8 -13 122 -3 128 15 10 14 26 -3 26 -8 0 -13 7 -12 16 1 18 -12 25 -31
17z"/>
<path d="M1847 3101 c3 -10 0 -22 -6 -25 -6 -4 -11 -15 -11 -24 0 -11 7 -6 21
15 11 18 18 37 14 43 -11 17 -23 11 -18 -9z"/>
<path d="M1980 3109 c0 -5 4 -9 10 -9 5 0 16 -13 25 -30 12 -23 22 -30 43 -29
15 0 20 3 12 6 -23 8 -50 46 -40 58 5 6 -2 10 -21 11 -16 1 -29 -3 -29 -7z"/>
<path d="M2933 3019 c-10 -25 -17 -30 -33 -26 -11 3 -23 1 -26 -4 -9 -14 -24
-10 -18 5 3 8 1 17 -5 21 -7 3 -8 0 -5 -9 3 -9 1 -16 -5 -16 -6 0 -11 -5 -11
-11 0 -7 14 -10 35 -7 19 2 36 0 38 -6 2 -5 14 8 27 30 13 21 29 42 34 46 7 5
5 8 -4 8 -9 0 -21 -14 -27 -31z"/>
<path d="M2588 3003 c6 -2 12 -9 12 -15 0 -11 29 -37 43 -38 4 0 7 5 7 11 0 5
-4 8 -9 5 -5 -3 -16 5 -25 19 -9 14 -22 25 -29 24 -9 0 -9 -2 1 -6z"/>
<path d="M2077 2965 c10 -21 24 -35 35 -35 17 0 16 3 -7 27 -14 15 -25 31 -25
35 0 5 -4 8 -10 8 -5 0 -2 -16 7 -35z"/>
<path d="M2867 2939 c-10 -6 -25 -8 -33 -5 -12 5 -12 1 1 -24 14 -26 13 -29
-3 -33 -13 -4 -12 -5 5 -6 12 0 25 4 28 9 3 6 1 10 -5 10 -6 0 -9 4 -6 9 4 5
0 12 -6 14 -9 4 -8 6 3 6 8 1 21 -5 28 -11 10 -9 12 -9 7 -1 -3 6 -2 14 4 18
12 7 14 25 3 25 -5 0 -16 -5 -26 -11z"/>
<path d="M2525 2864 c-11 -8 -25 -12 -32 -10 -7 3 -13 1 -13 -4 0 -6 4 -10 9
-10 5 0 16 -3 25 -6 10 -4 16 -1 16 9 0 10 7 13 20 10 15 -4 20 -1 19 13 0 13
-2 14 -6 5 -3 -8 -8 -9 -12 -3 -4 7 -13 5 -26 -4z"/>
<path d="M2581 2848 c0 -9 -4 -23 -7 -32 -4 -12 0 -14 17 -11 12 3 27 10 33
16 8 8 5 10 -11 5 -17 -6 -22 -2 -26 16 -2 13 -5 16 -6 6z"/>
<path d="M2900 2817 c-20 -12 -28 -23 -20 -25 7 -3 17 3 22 12 8 13 13 15 24
5 7 -6 11 -15 8 -20 -9 -16 3 -10 17 8 12 14 12 16 0 8 -11 -6 -13 -4 -8 8 10
26 -6 27 -43 4z"/>
<path d="M2641 2791 c16 -25 25 -26 45 -6 14 13 13 15 -4 15 -11 0 -28 3 -37
6 -15 6 -15 4 -4 -15z"/>
<path d="M2876 2772 c-4 -7 -3 -12 2 -12 5 0 13 -9 18 -21 10 -21 10 -21 22 5
7 15 8 26 2 26 -6 0 -10 -5 -10 -12 0 -6 -6 -4 -13 7 -10 12 -16 14 -21 7z"/>
<path d="M2952 2748 c-9 -15 -20 -28 -24 -28 -4 0 -8 -7 -8 -15 0 -22 18 -18
25 5 4 11 18 31 31 44 19 17 21 23 9 23 -9 0 -23 -13 -33 -29z"/>
<path d="M2543 2744 c-8 -18 -8 -26 3 -35 18 -14 37 -1 31 22 -3 10 0 20 6 22
6 2 2 6 -9 9 -14 4 -23 -2 -31 -18z"/>
<path d="M2726 2761 c-4 -6 -13 -8 -21 -4 -9 3 -15 -1 -16 -8 -1 -8 -3 -26 -4
-41 -2 -14 3 -34 10 -45 13 -17 14 -17 15 0 0 9 -4 17 -10 17 -5 0 -10 5 -10
11 0 6 14 9 31 7 17 -2 31 0 30 5 -1 4 -1 12 -1 18 0 6 -7 9 -15 5 -18 -6 -20
5 -3 22 6 6 9 14 6 17 -3 4 -9 2 -12 -4z"/>
<path d="M2825 2740 c17 -11 26 -20 21 -20 -5 0 0 -10 12 -23 12 -13 20 -26
17 -29 -3 -3 1 -11 10 -18 12 -10 15 -10 15 4 0 9 7 16 16 16 8 0 12 5 9 11
-4 6 -13 8 -20 5 -7 -2 -21 2 -32 11 -17 14 -17 14 1 9 16 -5 17 -4 7 8 -7 8
-10 19 -7 25 3 5 -1 11 -9 15 -8 3 -15 0 -15 -6 0 -9 -3 -9 -12 0 -7 7 -19 12
-27 12 -10 0 -4 -8 14 -20z"/>
<path d="M2983 2733 c-17 -6 -16 -23 3 -48 14 -19 15 -18 12 18 -1 20 -2 37
-3 36 0 0 -6 -3 -12 -6z"/>
<path d="M2597 2699 c-9 -6 -17 -16 -17 -24 0 -7 -7 -21 -16 -29 -11 -12 -12
-16 -2 -16 12 1 63 69 56 76 -2 1 -11 -2 -21 -7z"/>
<path d="M2755 2690 c-4 -6 -10 -8 -15 -5 -4 3 -7 -2 -6 -10 5 -35 46 -44 46
-10 0 26 -15 41 -25 25z"/>
<path d="M2811 2692 c-1 -8 -6 -10 -13 -6 -9 6 -9 3 0 -9 8 -9 11 -22 7 -29
-4 -7 0 -5 9 6 8 10 19 15 24 12 6 -4 8 3 5 15 -4 14 -8 17 -13 9 -6 -9 -9 -9
-13 1 -4 11 -6 11 -6 1z"/>
<path d="M2210 2670 c0 -32 24 -77 48 -88 14 -6 28 -10 30 -7 3 2 -7 10 -22
16 -14 7 -27 16 -27 21 -2 12 -6 27 -9 33 -1 3 -3 9 -4 14 -2 16 -16 25 -16
11z"/>
<path d="M690 2652 c0 -25 -15 -59 -35 -79 -10 -9 -15 -7 -25 12 l-13 24 -34
-26 c-39 -30 -58 -59 -44 -67 14 -9 41 22 35 39 -4 8 -1 16 5 16 6 1 17 2 24
3 18 2 34 -25 32 -59 -1 -24 -7 -30 -24 -31 -18 -1 -22 3 -18 18 4 12 1 18 -6
15 -21 -7 -19 -35 3 -42 25 -8 23 -37 -5 -47 -13 -5 -9 -6 12 -3 19 2 34 -1
37 -8 2 -7 5 -4 5 6 1 9 -3 17 -9 17 -5 0 -10 5 -10 11 0 6 6 9 13 6 15 -5 37
55 23 64 -5 4 6 15 25 24 19 10 36 21 39 24 3 3 21 14 40 24 33 17 33 17 6 12
-16 -3 -44 -18 -62 -32 -19 -14 -34 -21 -34 -15 0 6 5 14 10 17 6 4 8 11 5 16
-4 5 -2 9 4 9 15 0 23 38 12 57 -9 16 -10 16 -11 -5z"/>
<path d="M837 2643 c-14 -13 -6 -23 16 -19 12 3 30 5 40 5 9 1 17 6 17 11 0
11 -63 14 -73 3z"/>
<path d="M2722 2638 c-7 -7 -12 -18 -12 -25 0 -12 -20 -18 -43 -14 -5 1 -6 -3
-2 -8 3 -6 13 -7 21 -4 9 3 20 0 24 -7 13 -21 41 7 37 36 -4 30 -11 36 -25 22z"/>
<path d="M1860 2590 c0 -11 3 -20 8 -20 4 0 13 9 20 20 11 18 10 20 -8 20 -13
0 -20 -7 -20 -20z"/>
<path d="M2638 2558 c-10 -10 -14 -18 -10 -18 4 0 13 5 19 11 8 8 13 8 17 0
10 -15 23 -14 29 3 4 10 1 13 -10 9 -8 -3 -18 -2 -22 4 -3 5 -14 1 -23 -9z"/>
<path d="M2843 2573 c-7 -2 -13 -9 -13 -15 0 -12 41 -6 41 7 1 12 -11 15 -28
8z"/>
<path d="M1058 2541 c2 -15 13 -33 24 -40 19 -12 20 -11 13 6 -4 10 -9 26 -12
35 -9 30 -30 29 -25 -1z"/>
<path d="M2240 2567 c0 -11 92 -77 101 -72 12 8 -27 45 -46 45 -7 0 -15 7 -19
15 -4 12 -36 23 -36 12z"/>
<path d="M2177 2534 c-4 -4 -19 -8 -34 -9 -54 -4 -59 -6 -35 -16 13 -5 28 -7
33 -4 5 3 18 1 29 -5 17 -9 19 -8 13 7 -6 17 -5 17 13 1 19 -16 20 -16 32 2 7
11 12 22 12 25 0 7 -56 6 -63 -1z"/>
<path d="M2598 2510 c-10 -11 -14 -20 -10 -21 4 0 17 -2 30 -3 12 -2 22 1 22
6 0 4 -4 8 -9 8 -5 0 -11 7 -13 15 -2 13 -6 12 -20 -5z"/>
<path d="M2640 2519 c0 -5 4 -7 10 -4 13 8 82 -44 74 -56 -3 -5 0 -9 5 -9 21
0 11 19 -26 49 -38 32 -63 40 -63 20z"/>
<path d="M505 2458 c-16 -24 -37 -56 -48 -72 -15 -22 -20 -43 -18 -82 1 -29
-3 -72 -10 -96 -6 -24 -12 -50 -14 -58 -2 -8 -8 -27 -13 -41 -6 -14 -11 -41
-13 -60 -2 -19 -6 -38 -9 -44 -6 -8 -14 -195 -10 -230 7 -75 7 -256 0 -245 -7
11 -10 6 -10 -18 0 -20 4 -31 10 -27 5 3 10 -2 11 -12 4 -74 3 -89 -5 -100 -5
-8 -4 -13 2 -13 6 0 11 -12 11 -27 0 -16 5 -68 11 -118 5 -49 11 -109 13 -132
2 -24 11 -51 20 -61 10 -10 17 -28 17 -39 0 -12 9 -42 19 -66 11 -25 17 -47
14 -50 -2 -3 3 -16 12 -30 8 -13 18 -33 20 -43 27 -110 40 -160 45 -164 7 -5
50 -97 50 -104 0 -5 42 -71 58 -91 4 -5 26 -33 50 -61 23 -27 42 -54 42 -60 0
-19 67 -52 117 -59 51 -7 53 -8 65 -48 l12 -42 4 33 c3 25 8 32 25 32 15 1 27
11 38 34 14 31 14 33 -3 28 -10 -2 -18 -11 -18 -18 0 -16 -51 -19 -66 -4 -6 6
-36 12 -67 14 -62 5 -79 11 -75 29 2 7 -19 34 -45 62 -53 55 -57 60 -120 190
-42 84 -50 106 -76 195 -5 19 -26 80 -46 135 -54 151 -73 231 -84 351 -10 111
-15 274 -13 399 0 39 -4 89 -9 113 -6 26 -6 50 0 60 5 9 6 35 2 57 -8 51 11
176 44 281 15 49 25 106 25 141 0 48 5 68 30 106 28 44 48 97 37 97 -2 0 -17
-19 -32 -42z"/>
<path d="M2650 2490 c0 -5 6 -10 13 -10 8 0 7 -3 -3 -10 -12 -7 -12 -12 -2
-22 9 -9 12 -8 12 7 0 15 3 16 12 7 15 -15 28 -16 28 -2 0 6 -7 10 -15 10 -9
0 -18 7 -21 15 -7 17 -24 20 -24 5z"/>
<path d="M2779 2469 c-10 -12 -14 -30 -11 -46 5 -27 5 -27 14 -4 4 13 6 27 2
32 -3 5 0 9 5 9 6 0 11 -9 11 -20 0 -11 6 -20 14 -20 8 0 17 -7 20 -16 3 -8
10 -13 16 -9 5 3 17 -3 27 -15 21 -24 43 -26 43 -4 0 14 -3 14 -16 3 -13 -11
-14 -9 -9 14 5 18 3 27 -5 27 -7 0 -10 8 -7 20 3 11 1 20 -4 20 -5 0 -9 -11
-9 -25 0 -44 -47 -22 -67 32 -8 22 -8 22 -24 2z"/>
<path d="M2128 2463 c-16 -17 -14 -18 19 -18 20 0 38 6 41 13 2 6 -1 12 -6 12
-6 0 -17 2 -24 5 -8 3 -22 -2 -30 -12z"/>
<path d="M2345 2450 c8 -16 15 -42 15 -58 0 -16 6 -34 13 -39 19 -15 47 -23
47 -14 0 5 -9 11 -20 14 -29 7 -25 27 16 83 l35 49 -39 -44 -40 -44 2 31 c1
17 -2 29 -6 26 -4 -3 -8 2 -8 10 0 9 -7 16 -15 16 -14 0 -14 -3 0 -30z"/>
<path d="M1890 2457 c-19 -7 -35 -18 -35 -26 0 -18 55 -22 62 -5 5 13 73 17
73 5 0 -4 -15 -15 -32 -24 -28 -13 -30 -16 -11 -16 12 -1 30 10 41 24 13 17
30 25 50 25 36 0 62 9 62 21 0 13 -169 10 -210 -4z"/>
<path d="M803 2450 c-62 -9 -83 -33 -83 -92 0 -62 21 -61 33 1 11 53 39 67
117 54 46 -7 58 -13 77 -42 l23 -34 -37 -31 c-21 -17 -41 -30 -45 -29 -4 2 -5
-4 -2 -12 8 -21 21 -19 34 5 6 11 18 20 28 20 9 0 25 7 36 15 17 13 17 16 -8
69 -23 49 -53 75 -78 68 -4 -1 -18 2 -30 6 -13 5 -42 5 -65 2z"/>
<path d="M1010 2405 c0 -25 5 -45 10 -45 6 0 10 20 10 45 0 25 -4 45 -10 45
-5 0 -10 -20 -10 -45z"/>
<path d="M2594 2433 c0 -10 11 -24 24 -31 12 -7 22 -18 22 -24 0 -7 5 -6 15 2
20 17 19 27 -4 35 -12 4 -18 12 -14 21 4 10 -2 14 -20 14 -17 0 -24 -5 -23
-17z"/>
<path d="M1802 2431 c-7 -4 -19 -20 -27 -34 -11 -22 -11 -28 1 -38 13 -10 18
-6 15 13 0 4 10 10 23 14 18 4 22 11 18 30 -5 26 -10 28 -30 15z"/>
<path d="M2733 2434 c-7 -3 -10 -11 -7 -19 4 -10 -1 -12 -18 -9 -18 3 -17 2 5
-7 15 -6 25 -15 21 -20 -3 -5 1 -9 9 -9 11 0 15 28 7 50 -1 3 -2 8 -1 13 0 4
0 7 -1 6 -2 0 -8 -3 -15 -5z"/>
<path d="M2172 2413 c2 -11 12 -17 25 -16 15 2 23 -5 27 -22 4 -14 11 -25 16
-25 6 0 10 -10 10 -22 0 -17 3 -19 9 -9 7 10 10 10 16 1 4 -7 2 -16 -6 -21 -7
-4 -10 -11 -6 -15 3 -4 14 -1 23 7 13 11 18 11 21 2 3 -7 9 -13 14 -13 5 0 -6
20 -23 45 -18 25 -35 45 -40 45 -4 0 -8 14 -8 30 0 28 -2 30 -41 30 -33 0 -40
-3 -37 -17z"/>
<path d="M590 2405 c0 -3 7 -16 15 -29 9 -13 17 -38 20 -55 3 -30 23 -55 66
-89 14 -10 17 -9 22 8 3 11 2 18 -2 15 -4 -2 -17 3 -29 11 -17 12 -22 25 -22
59 0 37 -5 47 -29 64 -29 21 -41 26 -41 16z"/>
<path d="M1070 2387 c0 -9 -7 -17 -15 -17 -8 0 -15 -7 -15 -15 0 -8 9 -15 20
-15 11 0 20 -7 20 -15 0 -8 -5 -15 -11 -15 -6 0 -9 -7 -6 -14 4 -11 1 -13 -11
-9 -15 6 -14 3 2 -16 15 -16 22 -18 28 -9 10 16 26 -4 34 -43 3 -14 17 -34 30
-44 13 -10 24 -24 24 -32 0 -8 4 -11 10 -8 6 4 0 25 -15 53 -13 26 -38 83 -55
127 -34 87 -40 97 -40 72z"/>
<path d="M2158 2368 c-7 -20 41 -53 55 -39 8 8 7 11 -5 11 -9 0 -18 9 -21 20
-6 22 -23 27 -29 8z"/>
<path d="M2771 2372 c-2 -25 20 -52 41 -52 17 0 18 3 8 15 -7 8 -16 12 -21 9
-5 -3 -13 5 -18 18 -6 13 -10 17 -10 10z"/>
<path d="M551 2348 c-10 -28 -7 -82 7 -125 8 -24 7 -38 -4 -58 -17 -34 -17
-35 1 -35 8 0 15 -4 15 -10 0 -5 -4 -10 -10 -10 -5 0 -10 -4 -10 -8 0 -5 14
-6 31 -4 18 3 26 8 19 12 -6 4 -13 19 -14 34 -3 21 -1 24 10 15 14 -11 34 -4
34 12 0 6 -4 8 -9 5 -12 -8 -30 38 -37 91 -3 26 -7 50 -10 55 -3 4 0 8 5 8 6
0 11 -7 11 -15 0 -8 4 -15 10 -15 11 0 -21 69 -33 70 -4 0 -11 -10 -16 -22z"/>
<path d="M2912 2330 c-17 -30 -19 -38 -7 -34 8 4 21 1 29 -5 7 -6 16 -8 19 -4
12 11 7 22 -13 28 -18 6 -19 8 -4 31 9 13 12 24 8 24 -5 0 -19 -18 -32 -40z"/>
<path d="M2642 2314 c-12 -13 -10 -14 13 -10 21 4 24 2 16 -8 -12 -14 -5 -26
16 -26 10 0 12 7 8 19 -5 16 -2 18 17 13 19 -5 20 -3 8 9 -18 20 -62 22 -78 3z"/>
<path d="M1816 2312 c-13 -21 -19 -102 -7 -102 6 0 11 11 11 25 0 14 6 34 12
45 9 14 10 22 1 31 -7 7 -13 7 -17 1z"/>
<path d="M2831 2311 c-10 -6 -10 -10 -1 -16 8 -5 7 -12 -5 -25 -15 -16 -14
-18 2 -22 15 -4 18 2 19 34 0 21 0 38 0 38 -1 0 -7 -4 -15 -9z"/>
<path d="M2412 2287 c9 -10 15 -24 12 -31 -3 -8 -1 -16 3 -19 5 -3 10 4 10 15
1 12 8 25 15 29 10 7 9 9 -4 9 -9 0 -25 3 -35 7 -17 6 -17 6 -1 -10z"/>
<path d="M2723 2276 c-3 -5 -1 -6 5 -2 7 4 12 1 12 -7 0 -8 11 -18 25 -21 14
-4 25 -11 25 -16 0 -16 -38 -50 -56 -50 -15 0 -44 -23 -44 -35 0 -3 6 -3 13 2
17 11 57 11 57 -1 0 -5 9 -1 19 8 25 23 25 79 0 102 -10 9 -16 20 -14 25 3 4
-4 7 -16 6 -11 -1 -23 -6 -26 -11z"/>
<path d="M1000 2258 c0 -13 -9 -34 -20 -48 -11 -14 -20 -31 -20 -37 0 -22 -30
-14 -30 8 0 12 -4 18 -11 13 -6 -3 -15 -1 -19 6 -5 8 -9 5 -13 -10 -4 -17 -2
-20 14 -15 18 6 28 -10 10 -17 -4 -1 -11 -14 -15 -28 -6 -21 -5 -23 6 -10 31
37 112 54 106 23 -2 -11 -11 -17 -21 -15 -12 2 -17 -4 -17 -21 0 -12 -5 -28
-12 -35 -7 -7 -8 -12 -2 -12 6 0 17 11 24 24 13 26 40 43 40 26 0 -5 7 -7 15
-4 17 7 75 -14 75 -26 0 -4 18 -7 40 -6 31 0 40 5 40 18 0 26 -15 30 -35 8
-25 -28 -31 -26 -56 19 -19 34 -24 38 -40 28 -28 -18 -46 4 -31 38 10 22 9 25
-9 25 -12 0 -19 5 -16 13 2 6 12 11 21 11 9 -1 16 2 16 7 0 5 -4 9 -10 9 -5 0
-10 7 -10 15 0 8 -4 15 -10 15 -5 0 -10 -10 -10 -22z"/>
<path d="M2032 2264 c-46 -7 -91 -15 -100 -19 -9 -4 -30 -9 -45 -10 -16 -2
-34 -8 -40 -15 -10 -10 -1 -11 42 -7 30 4 58 11 61 17 4 7 45 12 98 13 65 1
93 6 97 15 3 8 0 10 -6 6 -6 -4 -14 -2 -18 3 -3 5 -39 4 -89 -3z"/>
<path d="M2310 2253 c0 -14 15 -29 34 -36 14 -6 17 -4 12 9 -3 8 -6 20 -6 25
0 5 -9 9 -20 9 -11 0 -20 -3 -20 -7z"/>
<path d="M912 2243 c-10 -4 -10 -8 -2 -18 14 -16 40 -9 40 11 0 14 -14 17 -38
7z"/>
<path d="M2703 2237 c-25 -11 -38 -36 -25 -49 14 -14 42 2 35 20 -5 11 -2 14
10 9 18 -7 22 1 9 19 -5 8 -14 8 -29 1z"/>
<path d="M1735 2230 c-15 -24 -23 -83 -15 -99 5 -9 13 -31 19 -48 9 -30 8 -33
-12 -34 -17 -1 -18 -2 -4 -6 9 -2 15 -9 12 -14 -4 -5 -1 -9 4 -9 6 0 11 5 11
11 0 16 29 41 40 34 5 -3 10 -1 10 4 0 6 -6 11 -14 11 -10 0 -12 11 -8 48 3
26 9 49 13 50 5 2 9 8 9 13 0 6 -5 7 -12 3 -8 -5 -9 0 -6 14 4 12 2 22 -2 22
-5 0 -15 3 -23 6 -8 3 -18 0 -22 -6z"/>
<path d="M2177 2188 c-4 -28 -2 -45 6 -50 19 -12 30 -9 24 7 -4 8 -3 16 1 19
4 2 9 18 10 35 2 25 -2 31 -17 31 -14 0 -20 -10 -24 -42z"/>
<path d="M820 2181 c-5 -11 -19 -23 -30 -26 -11 -3 -20 -12 -20 -20 0 -11 6
-10 33 2 17 9 33 17 33 17 1 1 5 11 8 24 9 27 -9 30 -24 3z"/>
<path d="M2352 2152 c-1 -36 3 -52 14 -56 10 -4 13 -2 7 7 -4 6 -6 21 -5 32 2
12 -1 31 -6 44 -7 19 -9 14 -10 -27z"/>
<path d="M2030 2183 c0 -12 32 -30 68 -38 27 -5 31 -4 26 9 -3 9 -17 16 -31
16 -13 0 -33 5 -44 10 -10 6 -19 7 -19 3z"/>
<path d="M650 2140 c0 -20 52 -55 64 -43 12 12 6 22 -9 17 -20 -8 -45 13 -38
32 3 8 0 14 -6 14 -6 0 -11 -9 -11 -20z"/>
<path d="M860 2130 c-10 -39 -3 -58 25 -70 16 -7 41 -22 54 -32 13 -10 31 -18
40 -17 12 0 11 2 -4 9 -11 5 -16 9 -12 9 5 1 1 8 -8 17 -9 10 -13 25 -10 38 5
21 5 21 -11 -1 -22 -31 -30 -29 -53 15 -11 20 -21 35 -21 32z"/>
<path d="M2697 2124 c-9 -10 4 -35 15 -28 6 4 8 -2 3 -15 -6 -21 8 -30 19 -12
9 14 -5 41 -21 41 -8 0 -11 5 -8 10 7 11 2 14 -8 4z"/>
<path d="M740 2081 c0 -23 -23 -34 -39 -18 -6 6 -13 8 -16 5 -3 -3 1 -13 10
-22 12 -12 21 -13 35 -6 13 7 20 6 24 -3 5 -9 7 -9 12 1 6 14 34 17 34 3 0 -5
-10 -15 -22 -24 -13 -8 -20 -18 -16 -22 10 -10 53 34 60 61 10 38 -7 49 -32
24 l-23 -23 -8 21 c-10 27 -19 28 -19 3z"/>
<path d="M486 2068 c-10 -39 -8 -51 7 -36 13 12 16 42 5 53 -3 3 -8 -5 -12
-17z"/>
<path d="M613 2073 c-18 -7 -16 -23 2 -23 8 0 14 -4 13 -9 -2 -5 1 -9 7 -10 5
-1 9 9 9 21 0 23 -10 30 -31 21z"/>
<path d="M2741 2063 c-26 -45 -29 -47 -45 -34 -8 7 -21 11 -28 8 -8 -4 -7 -6
5 -6 20 -1 23 -17 5 -25 -7 -3 1 -3 17 1 39 8 47 12 40 24 -4 5 -2 9 3 9 6 0
12 -7 16 -15 6 -16 36 -21 36 -6 0 20 -12 41 -21 35 -5 -3 -6 2 -3 10 8 22
-13 20 -25 -1z"/>
<path d="M2369 2061 c-8 -21 14 -81 30 -81 11 0 10 4 -2 23 -8 13 -17 34 -19
48 -2 15 -6 19 -9 10z"/>
<path d="M1173 2043 c9 -11 17 -27 17 -36 0 -9 4 -17 10 -17 5 0 8 13 7 30 -1
16 -5 30 -9 30 -3 0 -15 3 -25 7 -17 6 -17 6 0 -14z"/>
<path d="M561 2022 c-7 -13 -17 -20 -24 -15 -7 4 -6 0 2 -10 13 -17 16 -16 40
5 14 13 28 25 31 27 3 2 -3 1 -12 -2 -9 -3 -18 -1 -21 6 -2 7 -9 2 -16 -11z"/>
<path d="M1807 2014 c-3 -3 -3 -12 0 -20 3 -8 1 -14 -5 -14 -5 0 -12 -9 -15
-20 -3 -13 0 -20 10 -20 8 0 12 4 9 9 -4 5 5 13 18 18 24 8 24 9 6 30 -9 12
-20 20 -23 17z"/>
<path d="M2142 2002 c-10 -3 -10 -7 -1 -18 6 -8 9 -25 7 -38 -6 -28 13 -37 59
-28 l28 6 -35 6 c-31 4 -36 9 -40 41 -3 23 -9 34 -18 31z"/>
<path d="M2796 1981 c-12 -13 -15 -21 -6 -21 7 0 10 -7 6 -15 -3 -8 -2 -15 2
-15 9 0 35 -61 33 -75 -2 -5 3 -5 9 1 9 9 9 17 1 32 -6 11 -8 22 -3 25 4 2 1
2 -5 1 -7 -2 -13 1 -13 6 0 6 6 10 13 10 9 0 9 2 0 8 -6 4 -13 20 -15 36 l-3
28 -19 -21z"/>
<path d="M2256 1915 c-6 -16 14 -30 34 -23 7 2 4 11 -8 21 -17 16 -20 16 -26
2z"/>
<path d="M2393 1888 c-19 -39 -23 -58 -13 -58 6 0 10 7 10 15 0 8 4 15 9 15 5
0 9 11 9 25 0 31 -2 31 -15 3z"/>
<path d="M2180 1885 c0 -15 16 -37 26 -36 5 0 9 -6 9 -13 0 -8 4 -18 8 -22 4
-4 7 5 7 20 0 16 -7 29 -17 33 -10 4 -21 11 -25 17 -5 7 -8 7 -8 1z"/>
<path d="M2760 1865 c0 -14 -7 -25 -17 -27 -15 -3 -14 -5 5 -10 20 -6 25 0 21
28 0 4 5 10 11 14 8 5 7 9 -4 13 -12 5 -16 0 -16 -18z"/>
<path d="M2091 1870 c-14 -8 -2 -47 16 -54 11 -5 13 -2 9 10 -9 23 3 37 19 24
8 -7 15 -7 19 -1 11 18 -40 36 -63 21z"/>
<path d="M1642 1823 c-6 -3 -9 -10 -6 -15 4 -6 -2 -18 -12 -26 -13 -10 -15
-16 -6 -19 6 -3 12 -17 13 -31 0 -15 3 -21 6 -14 4 10 8 10 19 1 20 -16 18 5
-2 25 -14 14 -14 19 -1 46 16 30 12 41 -11 33z"/>
<path d="M2420 1820 c0 -5 -10 -10 -22 -10 -18 0 -20 -2 -8 -9 8 -6 18 -7 22
-5 4 3 8 1 8 -4 0 -13 -29 -24 -43 -16 -7 3 -4 -1 7 -10 10 -8 15 -19 11 -25
-3 -6 -3 -11 2 -11 15 0 28 15 29 32 1 10 5 29 8 43 4 14 2 25 -4 25 -5 0 -10
-4 -10 -10z"/>
<path d="M2747 1790 c-9 -13 -21 -18 -33 -15 -10 3 -8 0 5 -7 19 -10 25 -10
29 0 2 6 10 12 18 12 16 0 19 16 5 25 -5 3 -16 -4 -24 -15z"/>
<path d="M2130 1789 c11 -7 12 -12 3 -15 -7 -3 -9 -12 -6 -20 3 -9 -2 -14 -13
-15 -11 0 -14 -3 -8 -5 7 -3 10 -13 7 -23 -3 -10 0 -21 5 -25 12 -7 36 49 27
63 -3 7 2 11 14 11 38 0 20 34 -19 38 -20 2 -22 0 -10 -9z"/>
<path d="M1293 1784 c3 -5 8 -41 12 -79 3 -39 9 -90 12 -115 16 -114 5 -295
-24 -393 -51 -175 -68 -284 -49 -316 11 -17 39 -14 33 3 -3 8 -1 17 6 20 8 3
7 8 -5 16 -14 8 -16 21 -12 68 3 31 10 61 15 66 5 6 9 22 9 37 0 15 4 30 9 33
5 4 13 25 17 49 4 23 9 45 10 50 1 4 2 14 3 23 0 8 6 12 11 9 13 -8 13 8 0 21
-12 12 -1 114 12 114 5 0 4 9 -2 20 -8 15 -8 20 1 20 8 0 8 4 -1 15 -10 12
-10 15 0 15 9 0 10 11 5 38 -3 20 -7 56 -8 79 -1 23 -7 47 -14 54 -8 8 -9 19
-3 35 7 16 6 24 -1 24 -6 0 -9 6 -6 14 3 8 3 17 -1 21 -4 4 -7 18 -7 33 -1 14
-7 28 -14 30 -8 3 -11 1 -8 -4z"/>
<path d="M2490 1773 c0 -28 31 -31 51 -5 13 15 12 16 -4 3 -15 -12 -19 -12
-32 5 -14 18 -14 18 -15 -3z"/>
<path d="M2796 1772 c-9 -14 19 -33 38 -26 19 7 21 -7 4 -24 -9 -9 -8 -12 8
-12 16 0 17 -2 4 -10 -8 -5 -13 -10 -10 -11 3 0 13 -2 23 -4 9 -2 15 1 12 5
-3 5 -6 24 -7 43 -1 28 -4 33 -20 29 -10 -2 -24 1 -32 7 -8 7 -17 8 -20 3z"/>
<path d="M1356 1741 c-9 -14 18 -39 36 -32 13 4 15 10 8 21 -7 10 -10 11 -10
3 0 -7 -5 -13 -11 -13 -6 0 -9 7 -5 15 6 16 -9 21 -18 6z"/>
<path d="M2701 1721 l-35 -6 33 -32 c35 -36 78 -44 88 -17 14 37 -28 64 -86
55z"/>
<path d="M2265 1700 c3 -5 -1 -10 -9 -10 -9 0 -16 -4 -16 -10 0 -15 37 -12 43
4 6 15 -1 26 -15 26 -5 0 -6 -4 -3 -10z"/>
<path d="M2410 1696 c0 -8 5 -18 11 -21 6 -4 8 -13 5 -21 -3 -8 1 -14 8 -14
10 0 11 7 2 35 -11 35 -26 47 -26 21z"/>
<path d="M2940 1666 c0 -8 -7 -16 -15 -20 -8 -3 -15 -12 -15 -21 0 -13 4 -14
20 -5 11 6 19 14 19 18 -3 21 2 32 13 26 7 -4 8 -3 4 4 -10 16 -26 15 -26 -2z"/>
<path d="M1626 1635 c4 -10 0 -15 -11 -15 -16 0 -16 -2 -2 -22 8 -13 22 -22
31 -22 9 1 16 -2 16 -7 0 -5 5 -9 10 -9 6 0 5 8 -2 19 -7 11 -16 17 -20 15
-11 -7 -10 10 2 22 6 6 3 14 -10 22 -16 10 -18 9 -14 -3z"/>
<path d="M2678 1628 c-16 -20 -19 -20 -35 -5 -18 15 -46 18 -59 5 -3 -4 -11
-5 -17 -4 -7 2 -8 1 -4 -2 4 -2 3 -10 -4 -18 -6 -8 -8 -14 -4 -14 4 0 14 8 22
18 13 15 14 15 10 1 -4 -13 -1 -15 14 -12 18 5 19 6 2 19 -16 12 -16 12 7 7
14 -3 34 -14 45 -24 20 -18 48 -20 62 -4 4 4 3 5 -3 2 -15 -8 -39 19 -25 27 5
4 12 2 16 -4 10 -16 25 -12 24 8 0 11 -2 12 -6 4 -4 -10 -8 -10 -17 2 -10 14
-13 13 -28 -6z"/>
<path d="M2825 1589 c-4 -6 -13 -8 -20 -5 -18 7 -26 -29 -10 -50 14 -20 37
-11 28 11 -5 14 6 19 35 16 6 -1 12 3 12 9 0 5 -9 10 -21 10 -11 0 -17 5 -14
10 3 6 4 10 1 10 -3 0 -8 -5 -11 -11z"/>
<path d="M2591 1562 c-15 -31 -11 -34 19 -19 31 16 36 33 11 40 -13 3 -22 -3
-30 -21z"/>
<path d="M2657 1559 c-3 -11 1 -26 10 -34 8 -8 11 -19 8 -25 -3 -5 0 -10 7
-10 8 0 14 9 14 20 0 11 -6 20 -13 20 -7 0 -13 5 -13 10 0 6 5 10 10 10 15 0
12 17 -4 23 -8 3 -16 -2 -19 -14z"/>
<path d="M1614 1549 c-3 -6 -2 -15 4 -21 6 -6 7 -21 2 -38 -7 -23 -5 -28 6
-23 8 3 11 9 8 14 -3 6 -1 15 4 22 6 7 6 21 1 35 -9 25 -15 27 -25 11z"/>
<path d="M2780 1506 c0 -8 5 -18 10 -21 6 -4 8 -11 5 -16 -4 -5 -1 -9 4 -9 12
0 14 20 5 44 -8 20 -24 21 -24 2z"/>
<path d="M2625 1501 c3 -6 3 -11 -2 -11 -4 0 -18 -8 -30 -18 l-23 -17 28 -1
c15 -1 20 1 12 4 -10 3 -4 9 18 16 31 11 32 11 11 24 -12 8 -18 9 -14 3z"/>
<path d="M2884 1493 c-4 -12 -12 -19 -19 -17 -7 3 -16 0 -21 -7 -4 -7 -3 -10
4 -5 6 3 13 2 17 -4 3 -5 0 -10 -7 -10 -8 0 -25 -13 -39 -29 -20 -22 -23 -31
-13 -35 8 -3 11 -12 8 -21 -5 -11 0 -18 15 -22 22 -6 30 -25 9 -22 -7 1 -21 1
-32 0 -16 -1 -16 -3 5 -26 13 -13 32 -25 42 -25 9 0 17 -4 17 -10 0 -5 7 -7
15 -4 25 10 17 50 -17 83 l-32 31 22 30 c12 16 22 36 22 45 0 9 5 25 11 37 6
11 8 23 4 26 -3 3 -8 -3 -11 -15z"/>
<path d="M1124 1442 c6 -42 12 -49 19 -23 3 11 -2 28 -9 38 -13 16 -14 15 -10
-15z"/>
<path d="M2728 1460 c29 -12 29 -24 0 -14 -20 6 -21 5 -9 -10 15 -18 56 -22
66 -6 3 6 0 10 -8 10 -8 0 -20 7 -27 15 -7 8 -20 15 -29 14 -11 0 -9 -3 7 -9z"/>
<path d="M2510 1412 c0 -16 8 -36 17 -43 15 -13 15 -12 6 5 -6 10 -8 27 -6 36
3 10 0 21 -6 24 -7 5 -11 -4 -11 -22z"/>
<path d="M2630 1400 c-25 -6 -25 -6 -2 -12 12 -3 22 -2 22 2 0 4 8 6 19 3 10
-3 21 0 25 5 6 11 -26 12 -64 2z"/>
<path d="M2680 1366 c0 -9 7 -16 15 -16 17 0 20 -16 5 -25 -16 -10 -12 -25 5
-18 9 3 14 8 11 10 -3 3 -1 16 4 29 6 14 6 24 1 24 -5 0 -16 3 -25 6 -11 4
-16 1 -16 -10z"/>
<path d="M2536 1333 c6 -25 -5 -30 -24 -11 -9 9 -12 9 -12 1 0 -7 15 -22 33
-34 17 -12 26 -16 20 -9 -15 16 -17 30 -5 30 4 0 19 -11 34 -25 15 -14 31 -25
35 -25 4 1 -8 14 -27 31 -29 25 -33 31 -20 40 12 9 11 10 -7 6 -12 -3 -24 0
-27 7 -3 6 -3 1 0 -11z"/>
<path d="M2960 1329 c0 -5 -4 -8 -9 -4 -5 3 -13 -4 -16 -16 -5 -14 -1 -27 14
-40 26 -25 34 -24 21 1 -15 28 -4 61 17 53 11 -4 14 -2 9 5 -9 15 -36 16 -36
1z"/>
<path d="M2510 1231 c0 -28 0 -53 0 -56 0 -10 15 -5 16 5 1 6 2 15 3 20 0 6
11 10 24 11 14 0 17 3 7 6 -23 9 -42 32 -35 42 3 5 1 12 -5 16 -6 4 -10 -13
-10 -44z"/>
<path d="M1646 1223 c9 -27 18 -58 21 -70 3 -12 12 -28 21 -35 13 -11 14 -9 8
17 -4 17 -16 48 -27 71 -10 22 -19 46 -19 52 0 7 -4 12 -10 12 -5 0 -2 -21 6
-47z"/>
<path d="M2840 1240 c-8 -5 -26 -10 -40 -11 l-25 -1 25 -7 c15 -4 26 -15 28
-28 2 -11 12 -23 23 -26 11 -3 17 -1 13 5 -4 6 0 15 7 20 11 8 10 9 -3 4 -23
-7 -31 9 -18 34 12 23 11 24 -10 10z"/>
<path d="M2750 1153 c36 -33 60 -30 29 3 -13 14 -25 20 -27 14 -2 -6 -9 -7
-16 -3 -7 4 0 -2 14 -14z"/>
<path d="M2507 1133 c-13 -23 -26 -84 -28 -128 -1 -27 -6 -61 -11 -75 -5 -13
-6 -21 -2 -17 4 4 16 -1 27 -10 20 -18 20 -18 2 10 -13 20 -15 30 -6 40 6 8 8
17 4 20 -3 4 -1 7 7 7 9 0 9 4 2 13 -10 12 -2 49 11 48 9 -1 9 1 2 22 -4 9 -5
31 -3 47 5 30 3 37 -5 23z"/>
<path d="M2707 1134 c-3 -3 10 -21 29 -40 18 -19 41 -45 51 -57 18 -22 67 -58
78 -57 3 0 13 -6 21 -15 9 -8 19 -13 24 -10 5 3 -1 16 -13 28 -13 13 -25 18
-29 13 -8 -11 -96 63 -97 82 -1 6 -6 12 -12 12 -5 0 -8 4 -4 10 3 5 12 7 19 4
8 -3 16 -1 20 4 3 5 -9 8 -25 7 -17 -1 -37 4 -44 11 -7 7 -15 11 -18 8z"/>
<path d="M2890 1128 c0 -4 16 -8 35 -8 19 0 35 4 35 8 0 5 -16 9 -35 9 -19 0
-35 -4 -35 -9z"/>
<path d="M2419 1105 c-2 -8 -1 -44 1 -52 2 -10 18 28 19 45 1 11 -18 18 -20 7z"/>
<path d="M2812 1093 c2 -9 12 -17 23 -19 10 -2 27 -13 36 -26 10 -12 21 -19
25 -15 9 8 -60 77 -77 77 -6 0 -9 -7 -7 -17z"/>
<path d="M2710 1063 c-19 -8 -30 -24 -23 -36 2 -4 12 -2 21 5 12 10 14 10 8 1
-4 -7 -2 -13 3 -13 6 0 11 9 11 19 0 11 6 22 13 24 17 8 -14 7 -33 0z"/>
<path d="M2394 985 c-7 -17 4 -37 17 -30 12 8 12 45 -1 45 -6 0 -13 -7 -16
-15z"/>
<path d="M1415 866 c15 -20 32 -36 37 -36 13 0 -34 62 -52 68 -7 3 -1 -12 15
-32z"/>
<path d="M1154 875 c-5 -11 -3 -20 4 -23 7 -2 10 -13 6 -27 -7 -27 9 -64 20
-46 4 6 2 11 -3 11 -6 0 -11 6 -11 13 1 6 10 1 21 -13 12 -14 16 -26 10 -28
-7 -2 -6 -8 2 -17 13 -14 27 -10 27 9 0 6 -15 41 -34 76 -29 53 -36 61 -42 45z"/>
<path d="M1277 852 c-4 -4 0 -19 6 -33 7 -13 24 -58 37 -99 26 -84 40 -81 16
4 -9 30 -16 65 -16 78 0 26 -34 66 -43 50z"/>
<path d="M2446 845 c5 -13 64 -8 64 5 0 4 -15 8 -34 7 -21 -1 -32 -5 -30 -12z"/>
<path d="M2433 803 c-28 -11 -10 -19 42 -19 30 -1 55 3 55 7 0 5 -13 9 -29 9
-16 0 -35 2 -43 4 -7 3 -19 2 -25 -1z"/>
<path d="M2330 775 c0 -8 -5 -15 -11 -15 -9 0 -8 -4 0 -14 16 -19 3 -76 -17
-76 -12 0 -13 -3 -5 -11 19 -19 43 -2 43 29 0 15 5 33 11 39 5 5 7 22 3 37 -7
28 -24 36 -24 11z"/>
<path d="M2660 780 c0 -9 89 -24 96 -17 3 2 -18 9 -46 14 -27 6 -50 7 -50 3z"/>
<path d="M2606 761 c5 -5 25 -12 44 -15 l35 -6 -30 15 c-34 16 -64 20 -49 6z"/>
<path d="M2404 668 c-12 -34 -11 -69 1 -65 5 2 9 11 7 21 -2 9 3 16 10 16 9 0
9 3 1 11 -6 6 -9 18 -6 25 3 8 3 14 0 14 -3 0 -9 -10 -13 -22z"/>
<path d="M2291 591 c-1 -15 -6 -21 -15 -18 -10 4 -12 0 -9 -14 3 -10 9 -19 14
-19 11 0 23 45 16 62 -3 7 -6 2 -6 -11z"/>
<path d="M2376 571 c-3 -4 -10 -20 -15 -34 -10 -25 -9 -26 9 -15 11 7 20 23
20 35 0 24 -5 29 -14 14z"/>
<path d="M2230 538 c0 -7 7 -21 14 -31 12 -16 14 -16 20 -1 8 22 8 22 -14 34
-15 8 -20 8 -20 -2z"/>
<path d="M2316 516 c-9 -14 -16 -33 -16 -43 1 -11 9 -3 21 20 23 44 20 60 -5
23z"/>
<path d="M1474 498 c-4 -13 -8 -34 -8 -48 -1 -24 -4 -25 -49 -22 -27 2 -54 -2
-62 -8 -15 -12 -45 -3 -45 15 0 14 -32 45 -46 45 -5 0 -4 -4 2 -8 14 -9 21
-62 11 -79 -6 -9 -3 -11 7 -7 9 3 16 11 16 16 0 7 4 7 13 0 12 -10 144 -8 155
2 3 3 16 -1 29 -10 18 -11 35 -13 71 -8 54 9 74 7 84 -9 46 -76 93 -117 143
-126 25 -5 45 -7 45 -4 0 2 -27 15 -60 30 -34 14 -59 31 -57 37 3 6 -14 30
-37 54 -34 36 -39 44 -26 53 11 8 3 9 -30 4 -24 -3 -49 -10 -55 -14 -5 -5 -21
-11 -35 -13 -31 -4 -58 42 -43 76 11 22 7 46 -7 46 -5 0 -12 -10 -16 -22z"/>
<path d="M2337 462 c-10 -10 -17 -25 -17 -33 0 -8 10 -2 25 15 14 16 25 31 25
33 0 9 -19 1 -33 -15z"/>
<path d="M2121 419 c-17 -16 -20 -24 -10 -35 16 -20 21 -17 14 6 -3 11 -2 20
3 20 6 0 12 7 16 15 7 20 4 19 -23 -6z"/>
<path d="M1206 371 c-3 -5 -22 -12 -42 -15 -29 -6 -34 -10 -28 -24 4 -9 8 -41
9 -70 1 -29 7 -58 13 -64 7 -7 12 -24 12 -39 0 -38 11 -64 20 -49 4 6 3 30 -2
53 -13 58 -24 153 -20 166 2 6 10 11 18 11 7 0 28 9 46 20 l33 20 -27 0 c-15
0 -29 -4 -32 -9z"/>
<path d="M2230 373 c-24 -9 -60 -45 -54 -55 3 -5 17 3 30 17 l24 26 47 -31 48
-32 -35 31 c-19 17 -39 31 -43 31 -5 0 -5 5 -2 10 7 11 7 11 -15 3z"/>
<path d="M1858 294 c-3 -3 5 -16 19 -30 14 -14 28 -22 32 -19 3 4 -2 12 -12
19 -9 7 -17 18 -17 25 0 12 -13 15 -22 5z"/>
<path d="M980 135 c33 -40 73 -58 132 -61 44 -1 57 1 49 9 -6 6 -11 20 -12 32
0 19 -1 19 -9 -2 -11 -27 -21 -28 -60 -8 -17 9 -30 11 -30 5 0 -18 -15 -11
-25 13 -6 12 -21 24 -35 25 -21 4 -22 2 -10 -13z"/>
<path d="M2355 120 c-22 -15 -25 -20 -12 -20 23 0 57 18 57 30 0 15 -12 12
-45 -10z"/>
</g>
</svg>
