<?xml version="1.0" standalone="no"?>
<!DOCTYPE svg PUBLIC "-//W3C//DTD SVG 20010904//EN"
 "http://www.w3.org/TR/2001/REC-SVG-20010904/DTD/svg10.dtd">
<svg version="1.0" xmlns="http://www.w3.org/2000/svg"
 width="300.000000pt" height="126.000000pt" viewBox="0 0 300.000000 126.000000"
 preserveAspectRatio="xMidYMid meet">
<metadata>
Created by potrace 1.10, written by Peter Selinger 2001-2011
</metadata>
<g transform="translate(0.000000,126.000000) scale(0.100000,-0.100000)"
fill="#000000" stroke="none">
<path d="M576 1066 c4 -10 -8 -16 -40 -20 -25 -4 -52 -13 -60 -21 -7 -8 -16
-12 -18 -9 -3 2 -11 -2 -18 -11 -10 -12 -9 -16 4 -21 9 -3 16 -10 16 -15 0 -6
-9 -5 -20 1 -16 8 -26 6 -50 -12 -17 -12 -26 -25 -20 -28 16 -10 -16 -33 -104
-75 -78 -38 -146 -88 -146 -107 0 -5 12 0 26 11 27 21 44 20 43 -2 0 -7 -14
-23 -32 -37 -29 -23 -30 -18 -3 21 6 8 -1 2 -16 -13 -17 -17 -28 -39 -28 -55
0 -26 0 -26 35 12 19 22 37 36 41 32 4 -3 1 -14 -7 -23 -8 -9 -14 -22 -15 -28
-3 -32 -5 -36 -15 -36 -6 0 -8 7 -5 16 5 14 4 15 -9 4 -18 -15 -20 -35 -3 -24
7 5 9 2 5 -9 -4 -12 -2 -14 11 -10 15 6 15 5 3 -10 -11 -14 -12 -23 -2 -43 18
-40 13 -67 -20 -119 -28 -45 -31 -55 -26 -108 3 -35 12 -66 22 -78 21 -22 31
-18 40 18 3 15 12 31 18 35 9 6 9 8 -1 8 -7 0 -18 -11 -24 -25 -20 -43 -42
-26 -40 32 2 40 16 70 49 101 23 21 37 85 35 155 -1 14 4 17 16 12 13 -5 14
-3 6 5 -14 14 -6 52 9 43 6 -4 8 0 4 10 -3 9 0 23 8 31 8 7 11 16 8 20 -4 3
-1 6 5 6 6 0 14 9 17 20 3 11 13 20 21 20 8 0 14 4 14 9 0 5 9 13 20 16 11 3
20 13 20 22 0 13 2 14 17 2 12 -10 15 -10 9 -1 -9 15 14 40 32 34 6 -2 12 1
12 8 0 6 4 9 9 6 5 -3 12 1 15 10 4 9 13 14 21 10 8 -3 15 0 15 6 0 6 3 9 6 5
3 -3 17 -2 29 3 19 7 25 5 28 -8 4 -15 5 -15 6 1 0 10 6 15 11 12 6 -3 10 -2
10 4 0 7 8 7 23 2 12 -4 35 -6 51 -4 16 2 36 1 45 -3 9 -4 20 -6 25 -5 4 1 14
-3 22 -10 7 -6 17 -8 23 -5 5 3 11 1 13 -6 2 -6 18 -11 36 -11 18 0 32 -4 32
-9 0 -4 -4 -8 -10 -8 -5 0 -10 -4 -10 -10 0 -5 9 -10 21 -10 11 0 18 -4 14 -9
-3 -5 9 -11 27 -13 41 -4 42 -21 2 -28 l-29 -6 34 -7 c18 -4 49 -7 67 -7 37 0
44 -13 17 -30 -17 -11 -17 -11 0 -6 10 3 30 6 43 6 13 0 24 5 24 12 0 6 -3 8
-6 5 -4 -3 -20 13 -37 36 -17 23 -39 48 -49 55 -10 7 -18 18 -18 24 0 6 10 3
22 -8 22 -18 22 -18 8 0 -8 10 -50 45 -92 78 -43 32 -78 63 -78 69 0 5 -11 27
-25 49 -22 35 -28 39 -44 28 -18 -11 -18 -13 5 -50 27 -42 28 -48 14 -48 -5 0
-10 6 -10 13 0 8 -11 24 -25 37 -14 13 -23 30 -21 36 7 17 -18 36 -38 28 -21
-8 -20 -13 6 -41 12 -13 17 -23 11 -23 -17 0 -74 51 -68 60 3 4 -2 10 -10 13
-9 4 -12 1 -9 -7z m-13 -93 c4 -3 1 -13 -6 -21 -10 -13 -9 -15 11 -10 15 4 22
2 22 -8 0 -10 -8 -14 -25 -11 -14 2 -25 7 -25 13 1 5 -9 12 -22 15 l-23 6 25
11 c31 13 35 14 43 5z m157 -3 c0 -5 -22 -10 -50 -10 -27 0 -50 5 -50 10 0 6
23 10 50 10 28 0 50 -4 50 -10z m-56 -27 c4 -4 13 -8 19 -9 7 0 20 -2 30 -2
18 -2 25 -32 7 -32 -5 0 -10 3 -10 8 0 4 -24 8 -52 10 -59 4 -69 9 -48 22 18
12 44 13 54 3z m-144 -20 c0 -9 -3 -13 -7 -10 -3 4 -12 -1 -18 -10 -11 -15
-15 -15 -29 -4 -13 11 -17 11 -22 -2 -3 -8 -16 -18 -30 -21 -13 -4 -24 -11
-24 -16 0 -6 -6 -10 -14 -10 -8 0 -22 -10 -30 -22 -9 -12 -18 -19 -21 -16 -8
7 17 48 28 48 4 0 25 13 45 30 20 16 53 32 72 35 19 3 36 8 39 11 8 8 11 4 11
-13z m304 -52 c-2 -2 -17 2 -34 9 -29 12 -38 29 -23 44 7 7 64 -45 57 -53z
m-569 -91 c7 -12 -12 -50 -25 -50 -6 0 -10 14 -10 30 0 30 21 42 35 20z m719
-12 c9 -12 14 -23 12 -25 -8 -9 -56 18 -56 32 0 22 27 18 44 -7z"/>
<path d="M2868 980 l5 -81 -30 17 c-67 39 -143 -10 -143 -93 0 -82 85 -132
148 -87 20 14 22 14 22 0 0 -11 10 -16 33 -16 l32 0 0 170 0 170 -36 0 -36 0
5 -80z m-4 -142 c17 -50 -42 -89 -78 -52 -19 19 -21 55 -4 72 7 7 26 12 43 10
22 -2 32 -10 39 -30z"/>
<path d="M1098 885 l3 -165 48 0 c77 0 109 10 152 49 33 29 41 45 48 86 10 65
0 100 -41 142 -37 38 -80 53 -158 53 l-55 0 3 -165z m152 69 c54 -52 23 -151
-52 -168 l-28 -6 0 105 0 105 28 -6 c15 -4 38 -17 52 -30z"/>
<path d="M1402 1038 c-17 -17 -15 -55 4 -62 27 -11 43 -7 54 14 22 40 -26 80
-58 48z"/>
<path d="M275 973 c-34 -7 -95 -36 -95 -44 0 -5 21 1 46 11 25 11 59 20 74 20
16 0 32 5 35 10 6 10 -22 12 -60 3z"/>
<path d="M230 913 c-90 -28 -122 -44 -128 -61 -2 -8 8 -5 30 7 18 11 68 30
111 42 42 12 77 26 77 31 0 10 1 10 -90 -19z"/>
<path d="M1551 916 c-58 -33 -69 -119 -22 -167 34 -34 93 -40 123 -12 17 15
18 15 18 0 0 -12 9 -17 33 -17 l32 0 0 100 0 101 -45 -1 c-25 0 -61 2 -80 5
-21 3 -45 0 -59 -9z m107 -58 c26 -26 0 -88 -36 -88 -40 0 -67 61 -40 88 15
15 61 15 76 0z"/>
<path d="M1872 914 c-12 -8 -22 -10 -22 -5 0 6 -15 11 -32 11 l-33 0 3 -100 3
-100 36 0 36 0 -6 64 c-7 74 6 103 41 92 27 -9 36 -42 30 -107 l-5 -49 38 0
37 0 -5 58 c-8 87 21 127 62 85 14 -13 16 -30 13 -80 l-4 -63 36 0 35 0 -3 87
c-3 74 -7 91 -24 106 -26 22 -70 22 -98 -1 -23 -18 -24 -18 -42 0 -22 22 -66
23 -96 2z"/>
<path d="M2234 920 c-52 -21 -81 -100 -54 -151 16 -29 63 -49 116 -49 39 0 51
5 80 34 35 35 42 64 24 110 -19 52 -106 81 -166 56z m100 -82 c17 -50 -42 -89
-78 -52 -19 19 -21 55 -4 72 7 7 26 12 43 10 22 -2 32 -10 39 -30z"/>
<path d="M2532 914 c-12 -8 -22 -10 -22 -5 0 6 -15 11 -32 11 l-33 0 0 -100 0
-100 33 0 32 0 0 63 c0 49 4 68 18 80 45 41 72 10 72 -82 l0 -61 33 0 32 0 -3
83 c-3 73 -6 85 -28 105 -29 26 -70 29 -102 6z"/>
<path d="M1390 820 l0 -100 35 0 35 0 0 100 0 100 -35 0 -35 0 0 -100z"/>
<path d="M634 828 c-4 -7 2 -18 17 -27 40 -26 95 -80 82 -81 -22 0 -14 -17 11
-22 19 -4 22 -1 18 15 -3 12 -1 18 5 14 5 -4 8 6 5 24 -2 16 2 39 11 52 13 21
13 23 -4 23 -11 0 -18 -5 -15 -11 4 -11 -21 -65 -30 -65 -3 0 -3 8 1 19 4 13
0 20 -15 24 -11 3 -20 0 -20 -6 0 -6 -13 3 -29 21 -20 22 -32 28 -37 20z"/>
<path d="M602 779 c-25 -10 -26 -30 -1 -37 8 -3 11 -1 6 3 -4 5 0 17 10 27 18
20 17 21 -15 7z"/>
<path d="M810 759 c-7 -11 -9 -32 -5 -47 5 -22 4 -24 -9 -13 -9 8 -16 10 -16
6 0 -11 76 -85 88 -85 14 0 44 -49 40 -67 -2 -12 -12 -8 -42 16 -21 17 -44 31
-49 31 -13 0 -9 -3 50 -49 45 -34 68 -33 57 2 -15 47 -13 87 6 97 9 5 20 7 22
4 8 -8 98 17 93 26 -6 10 -88 -6 -124 -25 -56 -28 -95 -12 -53 22 16 14 16 14
-3 8 -11 -4 -24 -7 -30 -8 -15 -3 -18 72 -4 89 8 9 8 14 1 14 -6 0 -16 -9 -22
-21z"/>
<path d="M480 689 c-30 -4 -61 -6 -67 -4 -7 2 -13 0 -13 -6 0 -5 -11 -14 -24
-19 -18 -7 -28 -21 -36 -52 -6 -24 -14 -51 -18 -61 -7 -16 -8 -16 -19 1 -9 15
-8 25 3 47 18 35 18 41 -3 24 -26 -22 -54 -95 -51 -134 1 -26 15 -51 50 -93
27 -31 54 -71 60 -89 7 -18 16 -33 20 -33 15 0 -23 75 -61 120 -61 73 -75 112
-49 138 9 9 14 7 25 -6 12 -16 14 -16 28 3 9 11 18 36 21 57 9 55 23 68 87 83
l57 13 0 -33 c0 -28 6 -36 32 -49 35 -18 58 -20 58 -6 0 5 -7 7 -15 4 -26 -10
-17 23 13 44 54 37 85 38 37 0 -14 -11 -25 -25 -25 -31 0 -6 15 4 34 22 31 30
39 33 77 28 26 -3 52 -15 70 -33 16 -15 29 -23 29 -18 0 17 -42 50 -79 63 -66
22 -123 9 -165 -38 -25 -27 -30 -26 -45 5 -12 28 -7 44 15 44 8 0 14 5 14 10
0 6 -1 9 -2 9 -2 -1 -28 -5 -58 -10z"/>
<path d="M1937 659 c-25 -15 -47 -63 -47 -104 0 -24 -4 -35 -15 -35 -9 0 -15
-9 -15 -25 0 -17 5 -25 18 -25 15 0 17 -9 14 -75 l-4 -75 36 0 36 0 0 75 c0
73 1 75 25 75 21 0 25 5 25 29 0 25 -3 28 -26 23 -24 -4 -25 -3 -22 39 3 38 6
44 25 43 13 0 25 8 32 23 10 21 8 25 -15 33 -32 12 -44 12 -67 -1z"/>
<path d="M2718 580 l4 -80 -28 15 c-35 18 -58 19 -87 4 -62 -32 -77 -114 -31
-168 21 -26 33 -31 68 -31 23 0 48 6 55 13 11 10 14 10 18 0 3 -7 18 -13 34
-13 l29 0 0 170 0 170 -33 0 -32 0 3 -80z m-4 -143 c8 -23 6 -31 -12 -49 -30
-30 -75 -16 -80 25 -5 38 15 59 52 55 23 -2 33 -10 40 -31z"/>
<path d="M1153 630 c-23 -13 -34 -29 -39 -55 -8 -47 13 -78 77 -110 55 -28 68
-47 49 -70 -17 -20 -48 -19 -90 4 l-35 18 -17 -29 c-10 -15 -18 -30 -18 -32 0
-11 87 -36 126 -36 61 0 100 22 113 63 20 59 -5 95 -91 136 -50 24 -59 40 -33
61 14 12 42 10 77 -5 12 -5 21 1 32 23 15 30 15 30 -16 41 -47 17 -99 13 -135
-9z"/>
<path d="M397 557 c-4 -10 -7 -35 -6 -55 l1 -37 9 40 c11 45 8 82 -4 52z"/>
<path d="M1408 514 c-65 -35 -73 -121 -17 -168 40 -34 113 -36 154 -4 l27 21
-27 15 c-20 10 -30 11 -38 3 -25 -25 -87 -7 -87 26 0 9 20 11 75 9 67 -3 75
-1 75 15 0 77 -90 123 -162 83z m88 -41 c17 -17 16 -18 -25 -21 -51 -4 -63 4
-37 24 26 19 41 18 62 -3z"/>
<path d="M1650 517 c-14 -7 -33 -29 -44 -51 -34 -70 8 -146 82 -146 18 0 42 5
53 10 13 7 19 7 19 0 0 -5 16 -10 35 -10 l35 0 0 104 0 103 -42 -7 c-24 -5
-50 -4 -60 1 -23 12 -48 11 -78 -4z m106 -72 c33 -50 -46 -102 -80 -53 -20 28
-20 42 0 63 21 21 63 16 80 -10z"/>
<path d="M2073 510 c-62 -38 -73 -111 -24 -161 26 -25 37 -29 86 -29 51 0 60
3 91 34 22 22 34 44 34 60 0 91 -107 145 -187 96z m111 -73 c8 -23 6 -31 -12
-49 -30 -30 -75 -16 -80 25 -5 38 15 59 52 55 23 -2 33 -10 40 -31z"/>
<path d="M2341 513 c-66 -33 -77 -120 -19 -168 24 -20 40 -25 85 -25 47 0 59
4 84 29 22 22 29 39 29 68 0 89 -92 139 -179 96z m97 -55 c22 -22 14 -67 -14
-80 -27 -13 -49 -5 -68 24 -17 27 8 68 42 68 15 0 33 -5 40 -12z"/>
<path d="M232 340 c-6 -14 -11 -19 -11 -12 -1 6 -5 12 -11 12 -19 0 -5 -25 21
-36 14 -7 48 -37 74 -68 37 -43 51 -53 62 -45 7 6 10 15 7 20 -3 5 -7 23 -9
39 -4 32 -29 85 -45 95 -6 4 -2 -8 10 -27 11 -18 20 -44 20 -58 0 -20 -4 -16
-23 20 -12 25 -28 44 -35 43 -6 -2 -12 2 -12 7 0 6 -6 10 -14 10 -8 0 -16 6
-19 13 -3 7 -9 2 -15 -13z m53 -41 c4 -11 5 -23 2 -26 -3 -2 -8 4 -11 15 -4
11 -13 23 -21 26 -8 3 -15 10 -15 16 0 18 38 -8 45 -31z"/>
</g>
</svg>
