<?xml version="1.0" standalone="no"?>
<!DOCTYPE svg PUBLIC "-//W3C//DTD SVG 20010904//EN"
 "http://www.w3.org/TR/2001/REC-SVG-20010904/DTD/svg10.dtd">
<svg version="1.0" xmlns="http://www.w3.org/2000/svg"
 width="900.000000pt" height="531.000000pt" viewBox="0 0 900.000000 531.000000"
 preserveAspectRatio="xMidYMid meet">
<metadata>
Created by potrace 1.10, written by Peter Selinger 2001-2011
</metadata>
<g transform="translate(0.000000,531.000000) scale(0.100000,-0.100000)"
fill="#000000" stroke="none">
<path d="M1220 5297 c0 -7 -14 -28 -31 -45 -42 -43 -18 -41 26 2 37 35 44 56
20 56 -8 0 -15 -6 -15 -13z"/>
<path d="M1097 5157 c-24 -37 -21 -55 4 -23 11 14 19 31 17 37 -2 7 -12 0 -21
-14z"/>
<path d="M3565 5012 c-33 -31 -74 -75 -90 -97 -17 -22 -42 -50 -57 -63 -18
-15 -28 -34 -28 -50 0 -20 -22 -47 -90 -114 -85 -82 -104 -108 -79 -108 33 0
320 284 385 381 25 39 47 78 48 87 2 33 -31 20 -89 -36z"/>
<path d="M5390 4971 c0 -24 128 -155 196 -201 28 -19 106 -77 173 -128 121
-93 174 -118 91 -45 -93 82 -130 123 -130 141 0 11 -21 37 -47 58 -27 21 -65
56 -85 77 -20 20 -40 37 -44 37 -4 0 -15 6 -23 14 -16 15 -114 66 -125 66 -3
0 -6 -9 -6 -19z"/>
<path d="M4305 4710 c-3 -5 -18 -10 -33 -10 -43 0 -59 -16 -25 -24 15 -4 35
-14 43 -21 11 -10 20 -11 30 -4 13 8 13 10 0 18 -8 6 -11 13 -7 17 4 4 13 2
19 -4 14 -14 48 -16 48 -3 0 5 -9 13 -20 16 -11 3 -20 11 -20 16 0 12 -27 12
-35 -1z"/>
<path d="M4570 4680 c-6 -11 -17 -20 -25 -20 -8 0 -15 -5 -15 -10 0 -13 99 -2
117 12 7 6 14 5 18 -2 4 -7 17 -9 29 -7 11 3 43 2 69 -2 26 -4 50 -4 53 1 3 4
0 8 -6 8 -7 0 -23 9 -37 20 -27 21 -68 27 -77 11 -10 -15 -66 -18 -77 -4 -16
19 -37 16 -49 -7z"/>
<path d="M3603 4680 c1 -3 9 -17 16 -32 17 -33 31 -36 31 -8 0 15 7 20 26 20
16 0 24 5 21 13 -2 7 -22 12 -50 12 -26 1 -46 -2 -44 -5z"/>
<path d="M3725 4660 c-18 -8 -17 -9 8 -9 15 -1 27 4 27 9 0 12 -8 12 -35 0z"/>
<path d="M4400 4653 c0 -15 23 -33 42 -33 23 0 23 16 1 24 -10 3 -24 9 -30 12
-7 3 -13 2 -13 -3z"/>
<path d="M4850 4653 c1 -5 10 -19 21 -32 22 -26 41 -23 63 12 14 22 -1 34 -24
19 -12 -7 -21 -8 -25 -2 -7 12 -35 14 -35 3z"/>
<path d="M4976 4652 c-3 -6 -1 -14 5 -17 15 -10 25 3 12 16 -7 7 -13 7 -17 1z"/>
<path d="M5107 4649 c-9 -6 -15 -15 -11 -20 4 -6 11 -6 20 2 11 9 18 9 26 1
13 -13 58 -16 58 -4 0 29 -57 42 -93 21z"/>
<path d="M3567 4624 c-9 -9 4 -35 14 -28 5 3 9 12 9 20 0 14 -12 19 -23 8z"/>
<path d="M5443 4617 c-24 -11 -29 -22 -14 -31 5 -3 19 2 32 12 26 22 14 34
-18 19z"/>
<path d="M5506 4606 c-20 -32 -21 -50 0 -42 9 3 22 6 30 6 18 0 18 34 0 49
-10 9 -17 6 -30 -13z"/>
<path d="M4706 4601 c-7 -12 33 -25 59 -19 9 1 17 8 18 13 3 13 -69 19 -77 6z"/>
<path d="M6105 4584 c21 -21 48 -38 85 -54 14 -5 33 -15 42 -20 10 -6 26 -10
37 -10 10 0 24 -7 31 -15 7 -8 20 -15 29 -15 10 0 26 -7 37 -15 10 -8 29 -15
40 -15 12 0 27 -7 34 -15 7 -8 23 -15 35 -15 12 0 28 -7 35 -15 7 -8 23 -15
35 -15 12 0 28 -7 35 -15 7 -8 25 -15 40 -15 15 0 33 -7 40 -15 7 -8 18 -15
26 -15 14 0 103 -45 118 -61 6 -5 25 -9 42 -9 18 0 36 -4 39 -10 3 -5 30 -10
60 -10 38 0 54 -4 59 -15 3 -9 18 -15 39 -15 18 0 42 -7 53 -15 10 -8 33 -15
49 -15 17 0 40 -7 51 -15 17 -11 92 -15 415 -19 254 -3 403 -8 419 -15 14 -6
75 -16 135 -21 163 -15 263 -29 309 -43 59 -19 186 -15 216 6 14 9 42 17 63
17 26 0 37 4 35 12 -3 9 -34 12 -115 9 -105 -3 -208 7 -318 29 -27 6 -90 15
-140 20 -49 5 -151 16 -225 24 -74 9 -148 15 -165 15 -16 -1 -88 0 -158 0 -71
1 -132 -1 -137 -4 -14 -9 -303 -13 -320 -5 -33 16 -87 33 -120 37 -19 3 -39 9
-45 13 -5 4 -30 11 -55 15 -52 8 -238 73 -246 86 -3 5 -18 9 -33 9 -15 0 -38
9 -50 20 -13 10 -44 27 -70 36 -50 18 -108 42 -131 56 -8 4 -22 11 -30 14 -8
3 -45 19 -83 35 -37 16 -76 29 -86 29 -10 0 -24 7 -31 15 -7 8 -21 15 -32 15
-10 0 -29 6 -41 14 -12 8 -33 17 -47 21 -24 7 -24 7 -5 -11z"/>
<path d="M6026 4564 c-4 -14 -20 -33 -36 -42 -36 -20 -39 -45 -7 -59 20 -9 24
-6 44 41 12 28 22 59 23 69 0 26 -17 20 -24 -9z"/>
<path d="M3386 4571 c-8 -12 18 -21 33 -11 10 5 8 9 -4 14 -21 8 -23 8 -29 -3z"/>
<path d="M4940 4572 c0 -16 82 -72 105 -72 16 0 -27 43 -59 61 -40 21 -46 23
-46 11z"/>
<path d="M3155 4541 c-32 -5 -41 -11 -43 -28 -4 -26 -19 -29 -46 -8 -25 19
-36 19 -36 2 0 -17 32 -47 49 -47 7 0 27 11 44 24 18 14 48 26 67 28 24 2 36
9 38 21 4 18 -2 19 -73 8z"/>
<path d="M2823 4523 c-7 -3 -13 -9 -13 -14 0 -12 47 -12 54 0 7 10 -23 20 -41
14z"/>
<path d="M5650 4517 c0 -28 23 -47 57 -47 20 0 56 -10 80 -22 37 -19 43 -26
38 -45 -6 -27 -2 -28 30 -7 14 9 33 13 45 9 11 -3 20 -2 20 3 0 6 -18 13 -41
17 -24 4 -43 14 -47 23 -12 34 -46 72 -64 72 -10 0 -18 -4 -18 -10 0 -5 -7
-10 -15 -10 -8 0 -15 4 -15 9 0 5 -16 11 -35 13 -19 2 -35 0 -35 -5z"/>
<path d="M2125 4510 c-25 -6 -20 -8 28 -9 32 0 57 3 57 9 0 11 -40 11 -85 0z"/>
<path d="M5306 4513 c-11 -11 -6 -23 9 -23 8 0 15 4 15 9 0 13 -16 22 -24 14z"/>
<path d="M2310 4501 c0 -16 30 -20 117 -16 132 8 129 25 -5 25 -62 0 -112 -4
-112 -9z"/>
<path d="M4845 4500 c3 -5 13 -10 21 -10 8 0 14 -4 14 -9 0 -14 32 -23 43 -12
6 6 1 12 -17 17 -14 3 -26 10 -26 15 0 5 -9 9 -21 9 -11 0 -17 -4 -14 -10z"/>
<path d="M4527 4490 c-43 -8 -52 -14 -42 -30 7 -12 73 -4 90 11 17 16 -8 26
-48 19z"/>
<path d="M2735 4481 c-37 -33 -265 -79 -318 -63 -76 23 -95 23 -101 -3 -4 -14
-16 -33 -27 -44 -20 -19 -20 -19 28 -26 38 -5 61 -2 101 14 29 12 65 21 80 21
15 0 36 7 46 15 11 8 36 15 56 15 20 0 45 7 56 15 10 8 32 15 47 15 15 0 30 7
33 15 4 8 17 15 29 15 13 0 27 5 30 10 8 12 -47 13 -60 1z"/>
<path d="M5353 4456 c13 -26 60 -59 71 -49 6 6 -63 73 -76 73 -3 0 -1 -11 5
-24z"/>
<path d="M2963 4445 c-18 -8 -33 -21 -33 -29 0 -19 -101 -50 -137 -43 -19 4
-36 -1 -53 -13 -14 -11 -30 -20 -37 -20 -6 0 -26 -12 -43 -27 -30 -25 -31 -27
-14 -40 24 -17 65 -17 90 2 10 8 28 15 40 15 12 0 41 16 65 35 47 37 68 42 87
23 18 -18 55 25 47 53 -6 17 -4 20 13 15 26 -9 53 21 31 35 -18 11 -17 11 -56
-6z"/>
<path d="M4367 4454 c-14 -14 -7 -25 13 -22 12 2 21 8 21 13 0 12 -24 18 -34
9z"/>
<path d="M4983 4453 c-17 -6 -16 -23 1 -23 7 0 24 -8 37 -19 24 -18 49 -18 49
0 0 5 -8 9 -18 9 -9 0 -23 9 -30 20 -12 20 -18 22 -39 13z"/>
<path d="M6074 4425 c-9 -6 -14 -17 -11 -22 7 -12 224 -39 234 -30 14 15 -22
37 -61 37 -22 0 -64 6 -93 14 -42 11 -55 11 -69 1z"/>
<path d="M5977 4393 c-4 -3 -7 -15 -7 -25 0 -10 -7 -21 -15 -24 -18 -7 -20
-24 -2 -24 20 0 60 49 53 65 -6 16 -18 19 -29 8z"/>
<path d="M5120 4380 c0 -5 11 -10 25 -10 14 0 25 5 25 10 0 6 -11 10 -25 10
-14 0 -25 -4 -25 -10z"/>
<path d="M6080 4354 c-12 -30 -6 -44 18 -44 9 0 26 -7 36 -15 11 -8 28 -15 38
-15 10 0 40 -15 66 -33 63 -43 96 -57 121 -50 30 8 20 29 -13 25 -14 -1 -26 2
-26 8 0 5 -7 10 -15 10 -7 0 -18 6 -22 13 -4 6 -26 21 -48 33 -74 38 -104 59
-109 76 -6 27 -35 22 -46 -8z"/>
<path d="M5572 4359 c3 -9 19 -14 43 -14 22 0 40 -6 43 -13 12 -36 81 -63 119
-47 15 6 12 9 -13 16 -18 5 -35 19 -42 34 -10 22 -18 25 -59 25 -27 0 -59 3
-72 7 -18 4 -22 2 -19 -8z"/>
<path d="M2115 4330 c-93 -28 -195 -59 -250 -74 -48 -14 -76 -23 -158 -53 -20
-7 -45 -13 -55 -13 -10 0 -36 -8 -58 -18 -21 -10 -68 -27 -104 -37 -36 -9 -78
-23 -95 -30 -84 -36 -182 -66 -199 -61 -24 6 -59 -11 -50 -25 9 -14 135 0 155
17 8 8 28 14 42 14 15 0 27 4 27 9 0 5 19 11 43 15 23 3 56 12 72 20 39 17 83
32 170 58 39 11 84 25 100 32 36 16 107 36 152 43 18 3 38 11 44 19 6 8 29 14
50 14 21 0 41 5 44 10 3 6 18 10 33 10 15 0 40 7 56 15 15 8 41 15 56 15 15 0
38 9 51 20 l24 19 -45 0 c-25 -1 -72 -9 -105 -19z"/>
<path d="M4118 4303 c-10 -2 -18 -11 -18 -18 0 -10 12 -13 40 -12 22 1 40 5
40 9 0 7 -35 29 -42 27 -2 -1 -11 -3 -20 -6z"/>
<path d="M3287 4284 c-13 -13 -7 -24 14 -24 11 0 19 5 17 12 -5 14 -22 21 -31
12z"/>
<path d="M3910 4274 c-18 -10 -20 -14 -8 -14 23 0 32 -18 18 -35 -10 -12 -9
-15 7 -15 15 0 18 7 18 40 0 44 1 44 -35 24z"/>
<path d="M3466 4245 c-3 -9 1 -18 10 -22 19 -7 28 2 21 22 -8 19 -23 19 -31 0z"/>
<path d="M3150 4221 c0 -10 7 -21 15 -24 22 -9 24 6 3 26 -17 16 -18 16 -18
-2z"/>
<path d="M5256 4218 c10 -13 20 -25 21 -27 1 -1 7 0 14 4 8 6 5 13 -12 26 -33
26 -46 24 -23 -3z"/>
<path d="M3247 4213 c-28 -7 -13 -28 18 -26 15 1 30 5 33 8 6 6 -18 26 -28 24
-3 -1 -13 -3 -23 -6z"/>
<path d="M5360 4205 c0 -10 10 -15 28 -15 15 0 33 -5 40 -12 9 -9 12 -8 12 5
0 10 -12 22 -26 27 -36 14 -54 12 -54 -5z"/>
<path d="M2665 4200 c-3 -5 -28 -10 -54 -10 -74 0 -90 -24 -88 -126 1 -62 -3
-87 -16 -107 -18 -28 -23 -102 -8 -111 5 -3 26 -41 47 -83 38 -78 61 -113 74
-113 4 0 16 12 25 27 17 25 17 28 0 60 -10 18 -26 35 -36 38 -11 4 -19 13 -19
22 0 8 -9 26 -20 40 -16 20 -20 41 -20 95 0 90 41 178 95 204 19 9 41 29 49
45 13 27 13 29 -4 29 -10 0 -22 -4 -25 -10z"/>
<path d="M5540 4197 c0 -7 13 -26 29 -41 22 -21 35 -26 48 -21 17 8 17 8 0 12
-9 3 -24 18 -32 34 -16 29 -45 40 -45 16z"/>
<path d="M3330 4181 c0 -16 27 -31 44 -25 20 8 21 20 0 28 -23 9 -44 7 -44 -3z"/>
<path d="M2400 4161 c0 -11 -11 -32 -24 -48 -20 -23 -33 -28 -78 -30 -65 -4
-62 -4 -121 3 -29 4 -53 2 -61 -5 -10 -9 -20 -9 -39 0 -20 9 -30 8 -50 -6 -17
-11 -53 -18 -99 -21 -40 -2 -93 -8 -118 -13 -25 -5 -46 -6 -48 -3 -13 34 -21
36 -49 14 -51 -40 -83 -54 -98 -42 -7 6 -26 8 -42 5 -37 -8 -113 -47 -113 -59
0 -11 128 0 165 14 14 6 54 10 88 10 34 0 134 5 221 12 126 9 191 8 310 -2 83
-7 162 -13 176 -14 l25 -1 -4 85 c-2 67 -7 89 -22 103 -18 17 -19 17 -19 -2z"/>
<path d="M6288 4152 c-34 -2 -48 -7 -48 -18 0 -20 29 -29 51 -16 14 9 23 7 44
-10 14 -11 24 -27 21 -34 -8 -21 7 -17 27 7 10 11 16 26 14 32 -9 24 -62 42
-109 39z"/>
<path d="M6862 4108 c-18 -18 -15 -28 8 -28 21 0 25 7 12 27 -6 10 -11 10 -20
1z"/>
<path d="M5833 4090 c-5 -19 -6 -19 -19 -3 -10 14 -15 15 -25 6 -10 -10 -6
-14 15 -23 58 -22 97 -5 64 28 -17 17 -29 15 -35 -8z"/>
<path d="M6521 4101 c-14 -4 -26 -11 -28 -16 -3 -9 65 -45 85 -45 5 0 22 -16
38 -35 31 -37 54 -44 73 -21 10 12 8 17 -8 25 -11 6 -26 11 -35 11 -8 0 -21 8
-28 18 -34 43 -73 69 -97 63z"/>
<path d="M3620 4085 c0 -9 5 -15 11 -13 6 2 11 8 11 13 0 5 -5 11 -11 13 -6 2
-11 -4 -11 -13z"/>
<path d="M3718 4089 c-10 -5 -15 -16 -12 -24 8 -19 48 -19 64 0 24 28 -14 47
-52 24z"/>
<path d="M5505 4091 c-9 -16 18 -23 46 -12 16 6 18 10 7 10 -9 1 -23 4 -31 7
-8 3 -18 1 -22 -5z"/>
<path d="M6663 4075 c9 -8 17 -19 19 -25 4 -14 90 2 96 19 3 10 -6 12 -46 6
-32 -4 -52 -3 -57 4 -3 6 -11 11 -16 11 -6 0 -4 -7 4 -15z"/>
<path d="M5880 4035 c0 -8 7 -15 15 -15 8 0 15 4 15 9 0 5 -7 11 -15 15 -9 3
-15 0 -15 -9z"/>
<path d="M3357 4032 c-3 -4 12 -15 34 -24 42 -18 50 -11 21 15 -19 18 -48 22
-55 9z"/>
<path d="M1070 4000 c0 -5 11 -10 25 -10 14 0 25 5 25 10 0 6 -11 10 -25 10
-14 0 -25 -4 -25 -10z"/>
<path d="M5500 4001 c0 -13 37 -33 55 -29 21 5 4 25 -28 33 -17 5 -27 3 -27
-4z"/>
<path d="M5654 3995 c11 -8 26 -15 33 -15 7 0 13 -5 13 -12 0 -6 3 -8 7 -5 11
11 -29 47 -51 47 -21 -1 -21 -1 -2 -15z"/>
<path d="M6202 4001 c-7 -4 -25 -6 -39 -3 -23 4 -24 2 -18 -19 10 -34 12 -34
35 -14 14 12 28 16 50 12 22 -5 30 -3 30 7 0 22 -35 32 -58 17z"/>
<path d="M8789 3970 c-17 -23 -26 -27 -36 -19 -28 24 -123 -20 -123 -57 0 -11
55 -33 85 -34 21 -1 57 -41 66 -75 11 -37 6 -55 -14 -55 -16 0 -77 -55 -77
-69 0 -14 16 -14 41 -1 10 6 19 19 19 28 0 11 26 35 65 60 36 24 65 46 65 50
0 4 -14 13 -31 21 -18 8 -34 22 -37 33 -4 15 -10 18 -32 13 -34 -8 -43 3 -27
35 17 33 35 36 47 6 5 -14 16 -26 25 -26 12 0 15 13 15 60 0 70 -16 79 -51 30z"/>
<path d="M940 3982 c-32 -4 -50 -28 -50 -64 0 -41 39 -38 89 7 21 19 43 35 49
35 6 0 13 4 16 9 6 10 -63 18 -104 13z"/>
<path d="M1392 3968 c-7 -7 -27 -19 -45 -26 -31 -12 -30 -12 22 -7 57 5 78 16
67 34 -9 15 -29 14 -44 -1z"/>
<path d="M5580 3955 c0 -15 70 -76 80 -70 17 10 11 25 -12 35 -13 5 -33 17
-45 26 -13 9 -23 13 -23 9z"/>
<path d="M5810 3936 c0 -30 65 -55 104 -40 26 10 8 24 -30 24 -22 0 -37 6 -40
15 -8 19 -34 20 -34 1z"/>
<path d="M6680 3933 c1 -14 34 -50 53 -56 9 -4 17 -16 17 -27 0 -14 11 -25 33
-35 41 -17 55 -34 72 -82 16 -46 31 -52 46 -19 10 20 9 35 -1 67 -8 23 -19 47
-25 53 -5 7 -15 21 -22 31 -6 11 -17 19 -23 17 -7 -2 -20 4 -29 12 -10 9 -32
19 -49 22 -18 4 -35 11 -38 15 -6 11 -34 12 -34 2z"/>
<path d="M7724 3909 c-3 -6 -1 -16 4 -21 13 -13 45 8 36 23 -7 12 -31 11 -40
-2z"/>
<path d="M813 3862 c-37 -42 -41 -57 -16 -66 21 -8 33 4 49 51 18 53 5 59 -33
15z"/>
<path d="M7263 3874 c-6 -17 14 -36 32 -31 6 2 11 13 13 25 3 17 -2 22 -18 22
-11 0 -23 -7 -27 -16z"/>
<path d="M6110 3825 c0 -20 23 -29 56 -21 32 8 22 21 -23 31 -27 5 -33 3 -33
-10z"/>
<path d="M655 3811 c-22 -9 -52 -24 -66 -34 -15 -10 -44 -21 -65 -24 -22 -3
-50 -12 -64 -19 -46 -25 -105 -47 -145 -55 -38 -7 -38 -7 10 -4 89 7 222 37
258 59 12 7 42 19 67 25 76 22 90 30 90 51 0 25 -27 25 -85 1z"/>
<path d="M6477 3824 c-8 -8 1 -24 14 -24 5 0 9 7 9 15 0 15 -12 20 -23 9z"/>
<path d="M8588 3806 c-30 -22 -21 -41 25 -53 34 -10 46 -9 65 3 29 19 28 30
-8 49 -35 18 -59 19 -82 1z"/>
<path d="M1786 3786 c-7 -29 -63 -51 -107 -42 -16 3 -50 -1 -76 -10 -25 -9
-57 -14 -71 -11 -15 3 -32 -1 -39 -9 -8 -8 -26 -14 -41 -14 -27 0 -86 -18
-109 -33 -6 -4 -23 -2 -37 5 -23 10 -31 8 -54 -9 -36 -26 -128 -53 -172 -50
-29 2 -36 -2 -38 -19 -2 -16 -13 -24 -39 -29 -20 -3 -50 -17 -67 -30 -21 -16
-36 -21 -46 -15 -16 10 -65 -12 -73 -32 -3 -9 -9 -7 -20 6 -14 19 -15 19 -22
-3 -6 -19 -12 -22 -36 -17 -23 4 -36 -1 -64 -25 -22 -19 -48 -32 -67 -33 -22
-1 -33 -8 -39 -23 -4 -12 -18 -24 -30 -28 -13 -4 -31 -18 -41 -31 -10 -12 -34
-28 -53 -34 -27 -9 -35 -17 -35 -36 0 -13 2 -24 5 -24 3 0 28 11 57 25 28 14
56 25 61 25 5 0 26 14 47 30 21 17 41 30 44 30 7 0 64 24 126 53 14 6 34 19
45 28 11 9 33 19 48 23 16 4 40 18 53 31 14 14 34 25 44 25 11 0 34 6 52 14
18 8 60 22 93 32 33 9 74 23 92 31 17 7 41 13 53 13 12 0 30 5 41 11 11 6 41
14 67 19 105 20 144 30 165 45 12 8 43 15 70 15 26 0 58 7 72 16 17 11 42 15
90 12 53 -2 69 1 79 14 10 14 33 16 181 13 94 -2 181 -5 195 -7 17 -2 25 2 25
12 0 10 -21 17 -77 25 -42 6 -80 14 -84 18 -4 4 -15 0 -25 -9 -13 -12 -26 -14
-46 -9 -15 5 -56 7 -90 6 -52 -2 -63 0 -63 13 0 26 -37 19 -44 -8z"/>
<path d="M5310 3795 c0 -8 5 -15 10 -15 6 0 10 7 10 15 0 8 -4 15 -10 15 -5 0
-10 -7 -10 -15z"/>
<path d="M8436 3788 c-20 -28 -20 -43 0 -62 20 -21 64 -21 64 -1 0 8 -4 15
-10 15 -5 0 -10 16 -10 35 0 41 -20 47 -44 13z"/>
<path d="M8970 3785 c-12 -32 -2 -85 16 -85 10 0 14 15 14 55 0 58 -14 72 -30
30z"/>
<path d="M2250 3755 c-19 -23 0 -37 46 -33 31 2 39 7 39 23 0 26 -65 34 -85
10z"/>
<path d="M2423 3744 c-18 -14 -33 -30 -33 -35 0 -5 16 -15 35 -23 19 -8 35
-20 35 -25 0 -6 11 -11 25 -11 14 0 25 3 25 6 0 6 -50 114 -53 114 -1 0 -17
-12 -34 -26z"/>
<path d="M4315 3760 c-3 -5 0 -10 9 -10 8 0 23 -3 33 -6 16 -6 16 -5 -2 9 -24
19 -32 21 -40 7z"/>
<path d="M4217 3746 c-7 -19 1 -26 30 -26 23 0 23 0 3 20 -24 24 -26 24 -33 6z"/>
<path d="M3900 3740 c0 -6 6 -19 12 -30 11 -16 9 -22 -7 -34 -11 -9 -15 -15
-10 -15 20 -1 56 35 50 50 -7 18 -45 43 -45 29z"/>
<path d="M5437 3734 c-4 -4 -4 -10 -1 -15 6 -10 34 0 34 12 0 10 -24 12 -33 3z"/>
<path d="M4193 3713 c-16 -6 -17 -33 -3 -33 11 0 26 28 19 34 -2 2 -10 1 -16
-1z"/>
<path d="M8892 3694 c-19 -13 -22 -23 -20 -57 3 -43 24 -61 34 -30 3 10 12 30
19 44 12 21 12 29 2 43 -11 15 -14 15 -35 0z"/>
<path d="M3245 3655 c-23 -19 -37 -24 -61 -19 -40 7 -55 -11 -47 -59 5 -31 11
-38 42 -48 20 -6 40 -15 46 -20 10 -10 45 -12 45 -3 0 3 -4 13 -10 23 -7 14
-5 23 10 36 21 19 26 50 10 60 -6 3 -7 17 -4 31 8 29 6 29 -31 -1z"/>
<path d="M5362 3666 c1 -10 8 -17 13 -17 15 1 12 24 -3 29 -9 3 -13 -2 -10
-12z"/>
<path d="M3641 3651 c-30 -23 -20 -42 17 -32 17 5 27 14 27 26 0 26 -16 28
-44 6z"/>
<path d="M2644 3625 c-4 -18 2 -34 24 -62 16 -21 37 -53 46 -71 21 -41 51 -72
71 -72 8 0 19 -9 25 -20 8 -15 17 -19 35 -14 19 5 30 0 45 -17 10 -13 19 -32
20 -42 0 -10 10 -21 23 -26 12 -5 31 -19 42 -31 32 -35 156 -90 206 -90 24 -1
62 -7 84 -15 22 -8 55 -15 73 -15 19 0 35 -6 38 -14 7 -17 56 -36 95 -36 39 0
136 38 143 55 3 8 3 22 -1 31 -7 20 -49 11 -79 -17 -27 -25 -96 -25 -138 0
-28 17 -151 51 -236 65 -35 7 -144 72 -175 106 -10 11 -24 20 -31 20 -8 0 -26
18 -40 40 -19 28 -30 38 -38 30 -27 -27 -75 3 -97 62 -6 15 -21 34 -35 43 -13
8 -24 24 -24 34 0 10 -5 32 -11 50 -14 40 -55 44 -65 6z"/>
<path d="M8626 3633 c-4 -5 -69 -13 -144 -20 -144 -13 -298 -31 -320 -39 -7
-2 -11 -8 -7 -13 3 -6 17 -6 36 1 25 8 34 8 46 -5 14 -13 13 -17 -8 -30 -31
-21 -116 -39 -141 -31 -12 3 -27 -1 -39 -12 -34 -31 -160 -15 -213 27 -34 27
-67 25 -441 -21 -44 -6 -141 -10 -216 -10 -121 0 -138 2 -159 20 -30 26 -59
11 -61 -30 -1 -17 -2 -35 -3 -41 -1 -8 86 -12 289 -15 165 -2 316 -8 350 -15
33 -6 89 -14 125 -18 36 -4 75 -12 88 -19 35 -20 75 -11 90 20 13 27 33 34
187 59 33 5 68 14 77 19 10 6 30 10 45 10 16 0 41 7 57 15 15 8 36 15 45 15 9
1 34 9 56 20 22 11 48 19 57 20 9 0 20 5 23 10 3 6 18 10 33 10 39 1 124 32
157 58 17 13 22 22 13 22 -8 0 -18 -3 -22 -7z"/>
<path d="M196 3623 c-12 -12 -6 -33 9 -33 8 0 15 6 15 14 0 17 -14 28 -24 19z"/>
<path d="M1722 3613 c4 -22 38 -30 38 -10 0 8 -7 18 -16 21 -23 9 -26 8 -22
-11z"/>
<path d="M2437 3614 c-10 -11 3 -24 24 -24 10 0 19 7 19 15 0 15 -31 21 -43 9z"/>
<path d="M60 3590 c6 -11 20 -20 30 -20 28 0 25 19 -6 30 -35 14 -36 13 -24
-10z"/>
<path d="M638 3579 c-33 -19 -16 -49 27 -49 22 0 40 40 24 51 -18 11 -30 11
-51 -2z"/>
<path d="M5336 3581 c-4 -6 -1 -21 6 -33 l13 -23 3 24 c4 26 -12 49 -22 32z"/>
<path d="M277 3566 c-18 -14 -18 -15 2 -35 12 -12 21 -25 21 -30 0 -14 32 -23
44 -11 5 5 17 10 26 10 9 0 24 6 33 13 23 16 8 36 -34 47 -19 5 -43 11 -54 14
-11 3 -28 0 -38 -8z"/>
<path d="M5660 3540 c0 -21 4 -30 13 -27 6 2 12 14 12 27 0 13 -6 25 -12 28
-9 2 -13 -7 -13 -28z"/>
<path d="M6890 3546 c0 -14 5 -26 10 -26 6 0 10 9 10 19 0 11 -4 23 -10 26 -6
4 -10 -5 -10 -19z"/>
<path d="M5867 3533 c-12 -11 -8 -40 7 -52 16 -13 56 1 56 19 0 24 -47 50 -63
33z"/>
<path d="M2470 3503 c-44 -13 -44 -13 -15 -43 37 -39 45 -38 45 4 0 37 -7 46
-30 39z"/>
<path d="M1316 3492 c-3 -6 -1 -14 5 -17 15 -10 25 3 12 16 -7 7 -13 7 -17 1z"/>
<path d="M1170 3480 c0 -5 9 -10 19 -10 11 0 23 5 26 10 4 6 -5 10 -19 10 -14
0 -26 -4 -26 -10z"/>
<path d="M1991 3471 c-11 -7 -9 -10 8 -16 26 -8 49 4 30 16 -17 11 -21 11 -38
0z"/>
<path d="M5110 3466 c0 -8 5 -18 10 -21 24 -15 6 -33 -47 -49 -76 -22 -143
-53 -143 -66 0 -5 -7 -10 -15 -10 -8 0 -15 7 -15 15 0 23 -30 18 -39 -7 -6
-15 -5 -27 2 -33 25 -22 37 -56 37 -104 0 -44 -4 -53 -31 -74 -27 -21 -30 -27
-20 -46 17 -31 43 -26 71 16 20 30 24 46 21 87 -1 28 -7 56 -12 62 -6 7 -3 25
6 48 12 27 23 38 45 43 17 3 30 8 30 12 0 4 16 15 35 25 35 19 36 19 78 -2 37
-19 42 -20 45 -5 2 8 -1 25 -7 37 -6 11 -12 34 -13 51 -3 31 -38 51 -38 21z"/>
<path d="M410 3461 c-30 -13 -90 -53 -90 -61 0 -4 7 -13 15 -20 8 -7 15 -20
15 -29 0 -9 5 -23 10 -31 9 -13 12 -13 21 3 16 27 64 47 97 41 42 -8 47 16 11
58 -30 37 -54 49 -79 39z"/>
<path d="M544 3455 c22 -17 36 -19 36 -6 0 10 -24 21 -43 21 -7 0 -3 -7 7 -15z"/>
<path d="M1870 3460 c0 -5 9 -10 20 -10 11 0 20 5 20 10 0 6 -9 10 -20 10 -11
0 -20 -4 -20 -10z"/>
<path d="M2160 3460 c0 -5 9 -10 20 -10 11 0 20 5 20 10 0 6 -9 10 -20 10 -11
0 -20 -4 -20 -10z"/>
<path d="M2250 3461 c0 -11 39 -25 47 -18 3 3 2 10 -2 16 -8 13 -45 15 -45 2z"/>
<path d="M8650 3455 c7 -8 19 -15 26 -15 8 0 14 7 14 15 0 10 -10 15 -26 15
-22 0 -25 -2 -14 -15z"/>
<path d="M2606 3450 c-16 -3 -31 -11 -33 -17 -3 -9 5 -11 29 -6 38 7 41 9 37
20 -2 5 -17 6 -33 3z"/>
<path d="M5313 3444 c-3 -8 -1 -20 6 -27 17 -17 13 -41 -9 -70 -13 -16 -27
-23 -39 -20 -26 7 -36 -14 -18 -35 8 -9 18 -38 22 -64 6 -41 5 -47 -14 -53
-22 -7 -51 -52 -51 -80 0 -14 -13 -20 -35 -15 -5 1 -27 4 -48 6 -22 1 -41 5
-45 8 -9 10 -32 -15 -32 -36 0 -23 -22 -33 -47 -19 -15 7 -26 5 -48 -14 l-30
-23 17 -36 c10 -20 23 -36 29 -36 20 0 78 52 81 73 2 16 13 25 42 32 29 7 41
6 44 -3 5 -15 38 -16 47 -1 5 7 14 4 26 -7 19 -17 20 -17 26 4 3 13 13 22 24
22 11 0 19 7 19 15 0 9 20 37 45 63 49 51 51 63 14 72 -26 6 -46 47 -36 74 3
8 19 18 34 22 50 12 88 64 47 64 -11 0 -14 6 -9 21 5 15 2 22 -14 26 -14 3
-21 13 -21 29 0 27 -17 32 -27 8z"/>
<path d="M1527 3429 c-21 -11 -35 -24 -32 -29 8 -13 60 -13 83 -1 9 5 26 12
36 16 19 5 19 6 0 20 -25 19 -42 18 -87 -6z"/>
<path d="M3898 3440 c-21 -13 -24 -40 -4 -40 7 0 34 -3 60 -6 37 -6 46 -4 46
8 0 33 -69 58 -102 38z"/>
<path d="M6878 3428 c-17 -25 -21 -42 -19 -66 2 -22 21 -2 21 22 0 12 5 27 11
33 6 6 9 17 7 23 -2 8 -10 3 -20 -12z"/>
<path d="M1016 3433 c-11 -11 -6 -23 9 -23 8 0 15 4 15 9 0 13 -16 22 -24 14z"/>
<path d="M1389 3413 c-7 -16 -15 -31 -17 -35 -2 -5 5 -8 15 -8 22 0 49 42 39
59 -11 18 -22 13 -37 -16z"/>
<path d="M2392 3428 c3 -7 13 -15 22 -16 12 -3 17 1 14 10 -3 7 -13 15 -22 16
-12 3 -17 -1 -14 -10z"/>
<path d="M3703 3428 c-14 -17 -22 -68 -12 -68 12 0 39 42 39 62 0 21 -13 23
-27 6z"/>
<path d="M4965 3431 c-6 -11 9 -23 19 -14 9 9 7 23 -3 23 -6 0 -12 -4 -16 -9z"/>
<path d="M218 3416 c-47 -17 -27 -71 24 -64 18 2 22 8 20 28 -6 41 -14 47 -44
36z"/>
<path d="M2498 3418 c-14 -11 -13 -15 15 -45 30 -31 57 -43 57 -24 0 5 -7 25
-15 45 -16 37 -28 43 -57 24z"/>
<path d="M4410 3400 c0 -19 3 -21 12 -12 9 9 9 15 0 24 -9 9 -12 7 -12 -12z"/>
<path d="M925 3401 c-7 -12 12 -24 25 -16 11 7 4 25 -10 25 -5 0 -11 -4 -15
-9z"/>
<path d="M3500 3395 c0 -8 5 -15 10 -15 6 0 10 7 10 15 0 8 -4 15 -10 15 -5 0
-10 -7 -10 -15z"/>
<path d="M4055 3400 c-3 -5 3 -10 15 -10 12 0 18 5 15 10 -3 6 -10 10 -15 10
-5 0 -12 -4 -15 -10z"/>
<path d="M4225 3400 c-4 -6 4 -19 17 -30 19 -15 24 -16 26 -4 4 16 -15 44 -29
44 -4 0 -11 -5 -14 -10z"/>
<path d="M834 3376 c-6 -17 2 -36 17 -36 12 0 12 37 -1 45 -6 3 -13 -1 -16 -9z"/>
<path d="M2643 3356 c-32 -33 -29 -51 13 -75 34 -21 94 -29 94 -13 0 11 -36
80 -50 97 -17 21 -31 18 -57 -9z"/>
<path d="M3812 3344 c-18 -20 -32 -39 -32 -43 0 -13 -58 -31 -86 -25 -40 7
-74 -17 -58 -43 20 -32 67 -38 116 -14 25 11 54 21 65 21 29 0 56 28 47 49 -3
9 -6 33 -5 54 1 20 -2 37 -7 37 -4 0 -23 -16 -40 -36z"/>
<path d="M4707 3342 c-4 -23 -14 -45 -22 -48 -8 -4 -15 -13 -15 -22 0 -8 -7
-23 -16 -33 -9 -10 -13 -23 -9 -30 6 -8 13 -5 26 12 10 13 19 29 19 35 0 5 5
15 12 22 9 9 17 7 35 -10 26 -24 33 -6 8 22 -8 9 -18 34 -23 56 l-8 39 -7 -43z"/>
<path d="M5655 3371 c-6 -5 -21 -11 -35 -13 -17 -2 -25 -9 -25 -23 0 -24 39
-33 61 -14 13 11 19 8 39 -17 14 -16 24 -41 25 -56 0 -51 17 -78 48 -78 20 0
32 -8 45 -30 22 -36 44 -49 100 -58 33 -6 43 -12 45 -30 2 -12 24 -38 50 -57
45 -35 47 -36 116 -29 39 4 81 11 94 15 13 5 71 12 130 15 93 5 111 9 140 30
17 14 32 31 32 39 0 15 -43 13 -85 -5 -57 -23 -88 -29 -170 -35 -49 -3 -107
-7 -127 -10 -29 -3 -44 2 -79 28 -23 18 -52 39 -65 48 -13 8 -34 26 -47 40
-56 55 -106 99 -116 99 -6 0 -15 -9 -21 -20 -15 -27 -26 -18 -33 26 -4 24 -22
53 -54 87 -55 60 -56 60 -68 48z"/>
<path d="M8362 3348 c3 -7 13 -15 24 -17 16 -3 17 -1 5 13 -16 19 -34 21 -29
4z"/>
<path d="M1250 3340 c0 -5 7 -10 15 -10 8 0 15 5 15 10 0 6 -7 10 -15 10 -8 0
-15 -4 -15 -10z"/>
<path d="M7942 3339 c2 -7 10 -15 17 -17 8 -3 12 1 9 9 -2 7 -10 15 -17 17 -8
3 -12 -1 -9 -9z"/>
<path d="M8054 3335 c-9 -21 14 -45 43 -45 28 0 40 24 23 45 -16 19 -59 19
-66 0z"/>
<path d="M4028 3319 c-30 -17 -20 -29 25 -29 109 0 193 -54 247 -158 40 -76
64 -87 127 -57 23 11 49 15 74 12 22 -3 39 -2 39 2 0 8 -63 36 -102 45 -29 7
-108 55 -108 67 0 4 -33 30 -73 57 -89 59 -188 85 -229 61z"/>
<path d="M6825 3319 c-10 -15 3 -25 16 -12 7 7 7 13 1 17 -6 3 -14 1 -17 -5z"/>
<path d="M8167 3302 c-22 -24 -21 -32 3 -32 22 0 123 -34 162 -56 14 -8 39
-14 55 -14 16 0 33 -4 39 -9 5 -5 25 -10 44 -12 68 -4 77 -1 82 30 5 32 4 32
-75 16 -10 -2 -20 3 -23 11 -16 51 -14 50 -34 24 l-19 -25 -34 18 c-19 11 -52
19 -73 19 -24 1 -51 10 -71 25 -38 28 -36 27 -56 5z"/>
<path d="M991 3275 c-17 -19 -35 -35 -41 -35 -5 0 -10 -7 -10 -15 0 -16 35
-21 45 -6 3 5 18 12 33 16 35 8 78 43 66 54 -5 5 -21 11 -36 15 -21 5 -32 0
-57 -29z"/>
<path d="M8625 3300 c-3 -5 1 -10 9 -10 8 0 18 5 21 10 3 6 -1 10 -9 10 -8 0
-18 -4 -21 -10z"/>
<path d="M2036 3283 c-3 -4 -3 -27 0 -52 7 -54 -2 -65 -86 -107 -30 -15 -61
-32 -69 -38 -8 -6 -23 -11 -35 -11 -13 0 -22 -8 -26 -25 -6 -27 -60 -68 -127
-99 -49 -23 -56 -41 -15 -41 50 1 104 18 119 39 23 33 75 81 108 98 16 9 35
22 43 29 7 8 18 14 23 14 5 0 15 5 22 10 47 40 61 50 71 50 6 0 20 9 29 21 14
15 15 24 7 34 -8 9 -7 20 1 39 7 14 10 28 8 30 -9 7 -67 15 -73 9z"/>
<path d="M2790 3281 c0 -5 5 -13 10 -16 6 -3 10 -18 10 -33 0 -19 7 -30 22
-37 12 -6 29 -23 38 -40 8 -16 18 -32 21 -35 3 -3 8 -13 12 -22 3 -10 11 -18
16 -18 19 0 23 21 7 39 -9 10 -16 22 -16 27 0 5 4 5 8 -1 4 -5 23 -19 42 -29
19 -11 40 -25 45 -32 6 -6 22 -14 36 -16 24 -4 25 -3 15 19 -6 13 -19 26 -28
29 -10 3 -18 10 -18 15 0 5 -6 9 -13 9 -7 0 -52 31 -99 69 -100 80 -108 85
-108 72z"/>
<path d="M6784 3275 c-7 -18 3 -35 22 -35 8 0 14 10 14 25 0 27 -27 35 -36 10z"/>
<path d="M6900 3275 c0 -9 5 -15 11 -13 6 2 11 8 11 13 0 5 -5 11 -11 13 -6 2
-11 -4 -11 -13z"/>
<path d="M5429 3241 c-33 -27 -19 -35 32 -18 40 13 41 15 21 26 -27 14 -26 14
-53 -8z"/>
<path d="M258 3244 c-10 -9 4 -45 16 -41 17 5 20 47 3 47 -7 0 -16 -3 -19 -6z"/>
<path d="M2676 3187 c-9 -23 -16 -48 -16 -54 0 -6 -7 -16 -16 -24 -8 -7 -13
-21 -11 -30 5 -18 -11 -29 -44 -29 -20 0 -24 -16 -10 -39 6 -9 11 -10 15 -2 9
14 63 14 71 1 4 -6 15 -8 26 -5 14 5 26 -1 40 -19 11 -13 28 -28 38 -31 11 -3
24 -19 30 -35 10 -31 33 -38 61 -20 13 8 10 14 -17 39 -22 20 -30 35 -26 49 6
24 -26 45 -60 40 -11 -2 -31 6 -43 17 l-22 20 29 12 c33 14 59 64 59 114 0 28
-2 31 -24 25 -14 -3 -28 -2 -31 4 -13 21 -33 8 -49 -33z"/>
<path d="M4025 3209 c-16 -5 -38 -6 -47 -3 -9 3 -20 -2 -25 -10 -5 -8 -41 -20
-88 -28 -68 -11 -97 -23 -182 -73 -56 -33 -102 -66 -103 -73 0 -16 61 -71 111
-98 21 -12 44 -26 51 -32 18 -14 155 -37 203 -33 22 1 53 9 69 17 52 25 86 12
86 -32 0 -34 -39 -94 -61 -94 -20 0 -60 19 -70 34 -4 4 -28 11 -55 14 l-49 5
19 -21 c26 -30 8 -48 -52 -57 -91 -12 -82 -26 13 -20 210 14 299 13 312 -4 9
-13 14 -13 24 -4 10 10 8 14 -7 20 -40 15 -63 71 -24 59 11 -3 29 -9 40 -12
19 -6 20 -2 20 80 0 95 4 100 59 69 37 -21 47 -51 32 -94 -19 -55 -8 -66 30
-28 19 19 30 21 138 18 82 -3 123 -8 135 -18 12 -10 20 -11 27 -4 15 15 -7 53
-31 53 -10 0 -31 6 -47 14 -39 19 -87 35 -158 52 -98 23 -112 32 -119 69 -4
18 -13 38 -21 45 -8 7 -15 20 -15 30 0 10 -7 23 -15 30 -8 7 -15 20 -15 29 0
21 -57 91 -74 91 -33 0 -51 -136 -22 -169 17 -20 27 -73 17 -89 -5 -9 -14 -9
-39 0 -23 9 -40 9 -64 1 -41 -14 -193 -3 -227 16 -14 8 -36 24 -50 37 -14 13
-31 24 -38 24 -23 0 -13 29 15 43 15 8 56 17 90 20 47 4 69 11 83 26 16 17 27
20 57 15 31 -5 41 -2 61 20 14 14 32 26 42 26 22 0 32 37 12 44 -8 3 -15 6
-16 5 -1 0 -15 -5 -32 -10z m157 -141 c20 -20 33 -40 30 -50 -4 -22 -11 -22
-38 0 -19 16 -44 82 -31 82 2 0 20 -15 39 -32z"/>
<path d="M6730 3195 c-7 -8 -18 -15 -25 -15 -6 0 -22 -9 -35 -20 -14 -13 -37
-20 -62 -20 -28 0 -38 -4 -38 -16 0 -14 8 -16 46 -10 26 3 52 10 58 15 6 5 22
12 35 16 40 12 74 65 42 65 -5 0 -14 -7 -21 -15z"/>
<path d="M735 3190 c-3 -5 -4 -14 0 -20 8 -13 35 -1 35 16 0 16 -26 19 -35 4z"/>
<path d="M836 3184 c-38 -38 -3 -54 47 -22 20 13 36 26 37 31 0 14 -69 7 -84
-9z"/>
<path d="M7700 3151 c0 -23 19 -31 75 -31 54 0 65 14 27 34 -22 11 -32 12 -41
3 -8 -8 -14 -8 -23 1 -18 18 -38 14 -38 -7z"/>
<path d="M7853 3154 c-3 -8 -2 -19 3 -24 13 -12 54 7 54 25 0 20 -49 20 -57
-1z"/>
<path d="M7583 3147 c-4 -6 -8 -32 -8 -57 0 -34 5 -46 18 -48 14 -3 17 5 17
52 0 55 -10 76 -27 53z"/>
<path d="M8550 3138 c0 -12 -6 -29 -13 -37 -7 -9 -18 -28 -25 -43 -9 -23 -9
-28 3 -28 11 0 12 -6 3 -32 -6 -18 -20 -46 -31 -61 -14 -21 -17 -31 -8 -40 18
-18 63 5 92 48 36 53 42 92 18 131 -10 17 -19 43 -19 58 0 14 -4 26 -10 26 -5
0 -10 -10 -10 -22z"/>
<path d="M256 3118 c-26 -32 -33 -62 -17 -73 5 -3 16 1 23 9 8 7 24 17 36 20
22 7 28 29 16 60 -9 24 -28 19 -58 -16z"/>
<path d="M2305 3132 c-56 -23 -65 -31 -65 -51 0 -22 17 -37 51 -46 21 -5 27
-2 37 20 10 21 15 24 30 16 11 -6 24 -6 32 -1 24 15 118 10 124 -6 7 -18 46
-18 46 0 0 8 -17 28 -37 44 -49 38 -155 49 -218 24z"/>
<path d="M4730 3131 c0 -24 -36 -51 -69 -51 -13 0 -32 -7 -41 -15 -17 -15 -50
-11 -50 6 0 17 -17 9 -27 -13 -7 -16 -7 -30 0 -46 9 -19 16 -22 36 -17 14 4
43 7 64 6 33 -1 37 2 32 18 -7 22 28 61 54 61 33 0 42 14 28 43 -14 32 -27 35
-27 8z"/>
<path d="M7926 3128 c-20 -28 -22 -112 -3 -106 6 3 13 21 15 42 2 28 7 36 18
32 8 -3 21 -9 29 -12 23 -10 18 18 -9 44 -29 27 -31 27 -50 0z"/>
<path d="M770 3125 c0 -10 7 -15 18 -13 21 4 19 22 -2 26 -10 2 -16 -3 -16
-13z"/>
<path d="M5444 3122 c-40 -33 -56 -68 -49 -105 6 -30 4 -36 -15 -42 -11 -4
-28 -21 -36 -38 -18 -37 -71 -67 -118 -67 -18 0 -55 -7 -82 -15 -27 -8 -62
-15 -78 -15 -39 0 -126 -32 -126 -46 0 -6 -7 -17 -15 -24 -8 -7 -15 -19 -15
-26 0 -20 30 -17 54 5 15 13 43 20 104 24 76 6 82 5 82 -13 0 -25 17 -35 35
-20 22 18 60 8 63 -17 3 -18 10 -23 33 -23 47 0 85 50 58 77 -18 18 -15 110 6
133 23 25 33 25 61 -1 19 -18 20 -25 11 -54 -15 -51 -4 -68 41 -60 24 4 50 1
74 -10 63 -26 229 -13 268 20 8 8 27 17 43 20 15 4 30 11 33 16 3 5 13 9 23 9
21 0 51 30 51 51 0 16 -81 104 -111 119 -16 9 -21 7 -28 -14 -6 -13 -15 -27
-20 -31 -16 -9 -13 -36 6 -58 17 -18 17 -20 -12 -43 -26 -21 -41 -24 -111 -24
-50 0 -95 6 -117 15 -20 8 -52 15 -72 15 -27 0 -35 4 -35 18 0 10 4 22 9 27
18 21 42 113 35 140 -6 23 -4 26 12 22 24 -7 115 -24 172 -31 44 -7 61 11 20
22 -11 3 -45 18 -74 34 -64 34 -146 38 -180 10z"/>
<path d="M367 3105 c-15 -14 -27 -30 -27 -34 0 -17 28 -19 49 -5 14 10 32 13
50 9 19 -4 32 -1 40 9 10 12 7 17 -18 30 -42 22 -62 20 -94 -9z"/>
<path d="M1525 3100 c-8 -14 18 -44 34 -39 6 3 3 14 -8 28 -13 17 -20 20 -26
11z"/>
<path d="M8150 3098 c1 -51 30 -74 58 -46 16 16 15 23 -4 42 -18 19 -54 21
-54 4z"/>
<path d="M8360 3102 c0 -13 25 -22 57 -22 15 0 23 5 21 13 -5 14 -78 23 -78 9z"/>
<path d="M1376 3085 c-8 -22 1 -35 25 -35 15 0 20 6 17 22 -4 27 -33 36 -42
13z"/>
<path d="M8025 3079 c-9 -13 -4 -18 25 -22 13 -2 26 -9 28 -15 6 -18 39 -14
46 4 9 24 -3 36 -29 30 -13 -3 -27 -2 -30 4 -8 13 -32 13 -40 -1z"/>
<path d="M7135 3070 c-8 -13 4 -32 16 -25 12 8 12 35 0 35 -6 0 -13 -4 -16
-10z"/>
<path d="M7323 3072 c-10 -7 -10 -12 1 -27 16 -22 49 -13 44 12 -4 20 -27 27
-45 15z"/>
<path d="M3143 3051 c-12 -19 -7 -24 50 -63 34 -24 75 -48 92 -54 16 -6 30
-18 30 -27 0 -32 19 -38 64 -22 55 19 75 19 91 0 7 -8 21 -15 31 -15 10 0 24
-8 31 -18 7 -9 44 -28 81 -40 58 -20 73 -21 103 -12 18 6 34 15 34 18 0 10
-59 42 -75 42 -14 0 -142 92 -160 116 -33 41 -134 71 -300 88 -53 6 -61 4 -72
-13z"/>
<path d="M2087 3043 c-8 -7 11 -33 24 -33 5 0 9 9 9 20 0 19 -20 27 -33 13z"/>
<path d="M2901 3036 c-7 -8 -9 -35 -5 -75 7 -60 7 -61 37 -61 23 0 38 -10 63
-39 l34 -39 33 32 c26 24 31 33 21 39 -8 4 -14 15 -14 23 0 11 -12 14 -52 12
l-53 -3 -3 43 c-2 26 -11 51 -23 63 -23 23 -23 23 -38 5z"/>
<path d="M7470 3034 c0 -17 22 -14 28 4 2 7 -3 12 -12 12 -9 0 -16 -7 -16 -16z"/>
<path d="M592 2981 c-34 -32 -62 -63 -62 -69 0 -9 -40 -25 -48 -18 -1 2 -4 23
-6 47 -3 49 -20 89 -39 89 -30 0 -57 -14 -57 -28 0 -9 12 -28 26 -43 22 -23
24 -30 15 -48 -15 -27 0 -56 39 -76 22 -12 30 -23 30 -43 0 -16 -4 -32 -9 -37
-6 -6 -13 -33 -16 -61 -7 -49 -6 -52 25 -74 l31 -22 0 63 c-3 202 13 269 61
269 10 0 28 11 40 25 13 16 32 25 50 25 33 0 37 19 10 43 -10 10 -21 17 -23
17 -3 0 -33 -26 -67 -59z"/>
<path d="M6641 3019 c-13 -11 -21 -23 -17 -27 4 -4 13 1 20 11 7 9 18 17 25
17 6 0 11 5 11 10 0 15 -12 12 -39 -11z"/>
<path d="M8312 3025 c-13 -7 -33 -23 -44 -35 -21 -22 -21 -23 -3 -36 10 -8 23
-14 28 -14 5 0 20 -9 34 -20 34 -27 52 -25 63 5 5 13 27 36 50 51 22 15 40 28
40 30 0 2 -13 10 -30 19 -35 18 -106 18 -138 0z"/>
<path d="M207 3024 c-8 -8 1 -24 14 -24 5 0 9 7 9 15 0 15 -12 20 -23 9z"/>
<path d="M767 3023 c-4 -3 -7 -15 -7 -25 0 -22 29 -24 56 -3 16 13 17 16 4 25
-17 11 -44 13 -53 3z"/>
<path d="M497 3006 c-3 -8 0 -21 6 -30 11 -13 14 -13 35 4 13 11 21 24 17 30
-9 15 -52 12 -58 -4z"/>
<path d="M1220 2990 c0 -11 5 -20 10 -20 6 0 10 9 10 20 0 11 -4 20 -10 20 -5
0 -10 -9 -10 -20z"/>
<path d="M8670 2991 c0 -11 5 -23 10 -26 6 -3 10 3 10 14 0 11 -4 23 -10 26
-5 3 -10 -3 -10 -14z"/>
<path d="M275 2970 c-17 -18 -17 -21 -1 -45 20 -30 41 -32 56 -6 7 14 7 27 -2
45 -14 31 -29 33 -53 6z"/>
<path d="M3120 2946 c0 -29 20 -66 35 -66 19 0 19 14 0 30 -8 7 -15 18 -15 26
0 7 -4 16 -10 19 -5 3 -10 -1 -10 -9z"/>
<path d="M6492 2940 c-48 -22 -50 -38 -9 -58 21 -10 30 -10 46 0 15 9 23 9 34
-1 19 -15 35 5 18 22 -6 6 -11 21 -11 34 0 29 -20 29 -78 3z"/>
<path d="M791 2933 c-20 -17 -20 -19 -3 -40 24 -30 65 -39 86 -18 25 26 19 43
-20 60 -44 18 -38 18 -63 -2z"/>
<path d="M8696 2906 c-8 -32 3 -64 15 -44 11 17 11 68 0 68 -5 0 -12 -11 -15
-24z"/>
<path d="M653 2910 c-24 -10 -30 -25 -13 -35 6 -3 10 -19 10 -35 0 -37 33 -50
62 -24 14 14 18 26 14 48 -11 52 -29 64 -73 46z"/>
<path d="M6070 2874 c-30 -16 -58 -35 -74 -49 -22 -20 -87 -55 -104 -55 -9 0
-26 -7 -36 -15 -11 -8 -39 -15 -63 -15 -36 0 -69 -12 -103 -38 -2 -1 1 -6 7
-10 23 -14 167 4 212 26 25 12 49 22 54 22 6 0 15 6 21 13 6 7 31 22 56 32 25
10 55 27 67 38 17 15 40 20 106 23 76 3 88 1 110 -19 14 -12 28 -33 32 -47 3
-14 14 -35 23 -48 15 -20 22 -22 45 -13 23 9 26 15 21 35 -4 17 -1 27 12 34
15 9 12 12 -24 23 -23 7 -42 13 -42 15 0 1 4 14 9 27 l9 24 -69 -2 c-39 -1
-72 2 -75 7 -8 13 -166 7 -194 -8z"/>
<path d="M7277 2883 c-4 -3 -7 -19 -7 -35 0 -23 -4 -28 -26 -28 -14 0 -35 5
-47 12 -13 7 -78 13 -152 15 -71 2 -143 5 -160 6 -16 0 -60 0 -97 -1 -59 -2
-72 -6 -100 -31 l-32 -28 30 -15 c16 -8 46 -18 66 -21 49 -7 135 -65 195 -131
26 -28 53 -55 60 -59 7 -4 39 20 81 60 76 74 177 164 197 175 15 9 50 9 145 2
36 -3 110 -7 165 -10 92 -5 126 -5 233 -4 20 1 66 0 100 -2 35 -2 66 0 69 5 7
11 72 8 138 -8 33 -8 79 -15 102 -15 23 0 44 -4 48 -10 10 -16 -197 -147 -270
-170 -22 -7 -47 -19 -56 -26 -22 -19 -88 -26 -126 -12 -30 11 -34 10 -58 -16
-14 -15 -25 -38 -25 -52 0 -16 -8 -28 -23 -35 -12 -6 -28 -22 -35 -37 -11 -26
-42 -61 -170 -194 -30 -32 -68 -62 -86 -67 -17 -5 -46 -14 -64 -20 -31 -9 -34
-8 -58 31 -31 48 -26 78 16 108 19 13 30 30 30 45 0 28 48 85 72 85 20 0 25
16 7 22 -7 2 1 17 17 35 16 18 43 48 59 68 47 56 37 75 -18 34 -18 -13 -48
-32 -67 -43 -37 -19 -70 -50 -70 -63 0 -9 -102 -73 -117 -73 -4 0 -19 -9 -32
-19 -23 -18 -23 -19 -7 -51 9 -18 16 -41 16 -51 0 -10 6 -24 13 -31 38 -40 51
-74 49 -133 -1 -59 15 -95 42 -95 6 0 51 39 101 86 49 47 102 95 118 107 74
56 144 112 161 130 13 14 27 17 47 13 30 -6 40 7 14 18 -27 10 -16 33 27 52
23 10 85 47 137 82 52 34 103 62 113 62 10 0 18 5 18 10 0 6 7 10 16 10 27 0
97 45 222 145 48 37 79 95 65 118 -3 5 -24 7 -47 4 -22 -3 -153 -2 -291 2
-137 4 -322 4 -410 -1 -196 -9 -257 -4 -295 28 -30 26 -33 27 -43 17z m-190
-91 c43 -15 50 -21 42 -35 -6 -9 -18 -17 -28 -17 -10 0 -24 -7 -31 -15 -22
-26 -79 -19 -110 15 -15 17 -35 30 -44 30 -24 0 -19 19 7 25 83 18 107 17 164
-3z"/>
<path d="M2442 2848 c3 -29 9 -35 53 -51 55 -20 65 -30 65 -68 0 -37 20 -59
63 -66 33 -5 37 -3 37 17 0 13 -8 24 -20 27 -10 3 -29 25 -40 49 -12 25 -26
41 -34 38 -7 -3 -24 9 -39 26 -15 16 -32 30 -37 30 -6 0 -10 7 -10 15 0 8 -9
15 -21 15 -17 0 -20 -5 -17 -32z"/>
<path d="M1552 2834 c-38 -42 -38 -44 -13 -44 19 0 61 47 61 69 0 20 -16 12
-48 -25z"/>
<path d="M1990 2851 c-9 -17 -15 -19 -37 -10 -15 5 -33 7 -40 5 -23 -9 12 -66
40 -66 31 0 67 -27 67 -50 0 -18 62 -80 80 -80 5 0 20 4 35 10 25 9 25 11 9
34 -8 14 -26 28 -37 32 -12 4 -35 16 -50 27 -25 17 -28 25 -25 66 2 36 0 46
-14 49 -9 2 -22 -6 -28 -17z"/>
<path d="M2370 2850 c0 -19 3 -21 12 -12 9 9 9 15 0 24 -9 9 -12 7 -12 -12z"/>
<path d="M2810 2839 c0 -12 -7 -27 -16 -34 -15 -11 -15 -15 6 -43 13 -17 27
-29 32 -26 11 7 10 41 -2 49 -7 4 -7 12 0 25 11 20 4 50 -11 50 -5 0 -9 -10
-9 -21z"/>
<path d="M8625 2840 c-19 -21 -22 -18 31 -35 11 -4 14 -11 9 -23 -4 -9 -13
-32 -20 -50 -6 -18 -17 -38 -23 -44 -11 -11 -17 -48 -8 -48 2 0 17 7 32 15 25
13 30 22 36 72 3 32 9 70 13 86 6 21 4 27 -9 27 -9 0 -16 5 -16 10 0 17 -26
11 -45 -10z"/>
<path d="M2720 2836 c0 -18 16 -29 30 -21 13 8 1 35 -16 35 -8 0 -14 -6 -14
-14z"/>
<path d="M260 2818 c1 -25 47 -60 93 -72 25 -6 27 -4 27 23 0 26 -4 31 -35 37
-19 3 -39 12 -46 20 -18 21 -39 17 -39 -8z"/>
<path d="M1677 2833 c-37 -6 -29 -27 11 -31 32 -3 42 -16 20 -25 -9 -3 -6 -7
6 -13 29 -11 54 -40 58 -65 4 -29 29 -43 61 -35 24 6 25 9 15 31 -9 21 -8 28
8 46 18 20 18 21 -1 35 -10 8 -25 14 -33 14 -8 0 -26 9 -41 19 -31 23 -64 30
-104 24z"/>
<path d="M6570 2820 c0 -17 5 -21 28 -18 16 2 27 9 27 18 0 9 -11 16 -27 18
-23 3 -28 -1 -28 -18z"/>
<path d="M817 2816 c-17 -13 -17 -16 -2 -48 22 -48 80 -127 104 -144 12 -9 36
-28 53 -45 18 -16 40 -29 49 -29 9 0 22 -7 29 -15 7 -8 17 -15 23 -15 5 0 20
-11 33 -25 28 -31 57 -32 85 -4 12 12 33 25 48 28 26 7 45 51 22 51 -7 0 -11
24 -11 59 0 78 -13 111 -42 110 -13 0 -17 -3 -10 -6 7 -3 12 -23 12 -48 0 -38
-4 -46 -27 -57 -22 -11 -28 -20 -27 -44 3 -57 -82 -66 -107 -11 -6 13 -24 28
-40 34 -16 6 -29 19 -29 28 0 28 20 55 40 55 10 0 22 5 25 10 3 6 19 10 35 10
39 0 83 18 75 30 -8 14 -92 13 -154 -2 -47 -10 -53 -10 -74 9 -12 11 -32 24
-44 27 -12 4 -23 17 -25 28 -4 27 -18 31 -41 14z"/>
<path d="M2272 2794 c-16 -11 -22 -25 -22 -55 0 -22 5 -39 11 -39 6 0 9 9 6
19 -5 22 8 49 20 38 4 -5 10 -32 13 -60 4 -40 9 -53 24 -55 16 -3 17 1 11 38
-6 33 -4 41 6 38 8 -3 18 -20 24 -39 13 -44 23 -59 39 -59 16 0 29 119 15 135
-5 5 -9 17 -9 27 0 22 -13 23 -30 3 -17 -20 -32 -19 -53 5 -20 24 -26 25 -55
4z"/>
<path d="M3270 2795 c0 -12 91 -43 109 -37 18 6 13 42 -6 44 -63 5 -103 3
-103 -7z"/>
<path d="M4677 2804 c-3 -4 6 -22 21 -42 25 -32 27 -44 30 -136 3 -115 8 -139
22 -116 6 8 10 29 10 45 0 17 7 41 15 55 8 14 14 37 15 51 0 14 11 36 24 48
23 22 23 24 8 62 l-15 39 -62 0 c-34 0 -64 -3 -68 -6z"/>
<path d="M8556 2801 c-3 -4 3 -16 13 -25 21 -19 37 -7 27 19 -6 16 -32 20 -40
6z"/>
<path d="M6242 2785 c-32 -14 -32 -15 -17 -39 33 -49 79 -39 73 17 -4 37 -13
40 -56 22z"/>
<path d="M3414 2769 c-3 -5 9 -9 25 -9 17 0 31 2 31 4 0 8 -51 13 -56 5z"/>
<path d="M2870 2767 c0 -1 4 -16 9 -34 7 -24 6 -35 -4 -43 -15 -12 -10 -107 6
-124 5 -6 9 -20 9 -32 0 -32 17 -39 31 -13 7 14 10 47 6 86 -3 37 0 77 7 94
10 27 8 32 -14 49 -21 17 -50 26 -50 17z"/>
<path d="M3182 2731 c-12 -22 -28 -41 -34 -43 -6 -2 -8 -10 -4 -16 21 -34 76
13 76 65 0 44 -11 42 -38 -6z"/>
<path d="M4577 2750 c7 -26 -38 -44 -94 -36 -32 4 -44 2 -51 -10 -4 -8 -26
-17 -48 -21 -21 -3 -44 -13 -50 -21 -8 -11 -20 -13 -43 -9 -38 8 -71 -19 -71
-58 0 -32 -19 -111 -36 -153 -8 -18 -14 -50 -14 -71 0 -22 -6 -44 -15 -51 -17
-14 -21 -80 -5 -80 6 0 10 5 10 11 0 16 39 97 51 104 17 11 88 -42 95 -73 4
-15 12 -34 19 -42 7 -8 15 -24 17 -35 2 -12 10 -18 19 -16 46 13 77 12 128 -5
31 -10 61 -22 67 -26 6 -4 16 -34 23 -65 7 -32 17 -77 23 -101 6 -23 8 -69 5
-102 -5 -62 6 -80 23 -36 5 13 14 27 19 31 6 3 11 18 11 33 0 15 7 38 16 50
13 18 14 29 5 54 -14 40 -14 173 0 239 10 45 9 56 -6 81 -9 16 -14 36 -11 44
3 8 -1 28 -9 44 -8 16 -15 47 -15 69 0 42 -14 61 -33 42 -16 -16 -101 -14
-142 3 -42 18 -95 70 -95 94 0 15 10 18 57 19 46 1 64 -3 88 -21 16 -13 41
-27 55 -31 14 -4 31 -16 38 -27 23 -31 32 -10 32 72 0 69 -3 82 -22 100 -28
26 -48 26 -41 0z m-251 -214 c3 -8 23 -26 45 -40 21 -15 39 -34 39 -44 1 -20
55 -57 98 -67 17 -3 41 -17 54 -29 48 -49 70 -76 59 -76 -6 0 -11 -6 -11 -13
0 -8 -11 -24 -24 -36 l-23 -22 -79 47 c-44 26 -81 50 -84 53 -12 14 -68 48
-98 60 -45 19 -82 65 -82 104 0 28 6 35 43 54 51 26 56 27 63 9z m292 -135
c15 -22 15 -22 -14 -9 -38 16 -37 15 -29 28 9 15 25 8 43 -19z"/>
<path d="M387 2740 c-36 -28 -35 -50 1 -50 37 0 65 21 60 46 -5 27 -30 28 -61
4z"/>
<path d="M606 2753 c-15 -15 -4 -33 20 -33 23 0 25 -3 19 -30 -5 -22 -3 -30 7
-30 7 0 19 -9 26 -21 19 -29 57 -22 57 11 0 21 -4 25 -27 22 -22 -3 -28 1 -28
15 0 26 -60 80 -74 66z"/>
<path d="M1374 2748 c-12 -19 28 -39 71 -36 33 2 41 7 43 26 3 20 0 22 -52 22
-31 0 -58 -5 -62 -12z"/>
<path d="M5403 2725 c9 -60 59 -157 77 -151 71 24 90 32 90 42 0 17 -35 44
-57 44 -13 0 -40 21 -69 53 l-47 52 6 -40z"/>
<path d="M8490 2731 c-36 -10 -32 -36 5 -36 23 0 31 5 33 23 4 23 1 24 -38 13z"/>
<path d="M8805 2730 c3 -5 12 -10 20 -10 8 0 17 5 20 10 4 6 -5 10 -20 10 -15
0 -24 -4 -20 -10z"/>
<path d="M1588 2702 c-16 -9 -28 -20 -28 -23 0 -4 20 -10 45 -13 25 -4 45 -11
45 -17 0 -13 34 -11 65 3 32 14 28 26 -15 50 -43 22 -77 23 -112 0z"/>
<path d="M6100 2705 c-7 -8 -18 -15 -26 -15 -7 0 -26 -11 -41 -24 -26 -23 -27
-25 -9 -32 10 -4 34 -1 53 5 19 7 36 11 37 9 12 -14 26 -50 26 -69 0 -20 -4
-21 -40 -15 -37 6 -44 3 -75 -27 -19 -19 -35 -41 -35 -51 0 -22 13 -20 35 4
21 24 48 26 65 5 21 -26 50 -18 56 14 4 17 19 45 35 62 16 18 29 43 29 55 0
12 3 29 6 38 10 26 -24 19 -42 -9 -20 -31 -40 -32 -50 -3 -4 14 -1 25 10 33 9
7 16 17 16 24 0 16 -35 14 -50 -4z"/>
<path d="M6525 2693 c-20 -29 -19 -47 1 -39 9 4 23 1 30 -5 15 -12 34 -4 34
14 0 7 9 18 21 25 27 17 17 27 -32 28 -30 0 -43 -5 -54 -23z"/>
<path d="M2720 2685 c0 -16 6 -25 15 -25 16 0 19 9 9 34 -9 25 -24 19 -24 -9z"/>
<path d="M5550 2696 c0 -9 7 -12 20 -9 31 8 34 23 6 23 -16 0 -26 -6 -26 -14z"/>
<path d="M6668 2690 c12 -11 24 -20 28 -20 4 0 -1 9 -11 20 -10 11 -23 20 -28
20 -6 0 -1 -9 11 -20z"/>
<path d="M4886 2683 c-3 -8 -6 -34 -6 -58 0 -26 -6 -47 -15 -55 -8 -7 -15 -22
-15 -34 0 -12 -7 -46 -16 -75 -8 -29 -13 -56 -9 -59 3 -3 18 -1 33 4 21 7 28
18 32 44 4 29 10 36 39 44 19 5 37 19 44 33 13 29 40 38 66 21 16 -10 27 -10
56 1 20 7 38 11 40 9 1 -1 15 -29 29 -60 28 -59 40 -69 50 -43 9 23 50 18 76
-10 18 -19 27 -22 34 -14 8 8 7 13 -1 16 -28 10 -12 25 21 19 26 -5 35 -3 40
10 8 21 -8 41 -48 60 -17 8 -44 22 -61 31 -16 9 -46 20 -65 24 -66 14 -174 58
-189 77 -21 26 -127 38 -135 15z"/>
<path d="M5319 2673 c-7 -20 -6 -28 3 -35 21 -13 27 -10 34 16 12 47 -20 64
-37 19z"/>
<path d="M1468 2655 c-41 -44 -48 -60 -20 -52 41 11 46 11 48 -3 0 -8 2 -20 2
-27 1 -6 17 -20 36 -31 39 -23 46 -17 46 39 0 24 -5 30 -32 37 -28 7 -34 14
-38 42 l-5 34 -37 -39z"/>
<path d="M3030 2689 c-8 -69 -5 -109 6 -109 8 0 14 10 14 24 0 13 7 29 15 36
17 14 20 40 6 40 -5 0 -16 3 -25 6 -9 3 -16 5 -16 3z"/>
<path d="M3436 2646 c-24 -29 -47 -47 -69 -52 -17 -3 -45 -17 -60 -30 -16 -13
-40 -24 -54 -24 -14 0 -37 -6 -51 -13 -147 -74 -221 -107 -240 -107 -12 0 -25
-6 -28 -14 -4 -10 -25 -14 -77 -14 -78 0 -210 -26 -242 -48 -11 -8 -30 -14
-43 -14 -38 0 -153 -39 -227 -77 -16 -9 -51 -27 -78 -40 -26 -13 -45 -29 -41
-34 3 -6 33 -9 70 -6 51 3 70 9 92 29 15 13 54 34 87 46 33 11 78 27 100 35
22 8 66 18 97 22 56 7 57 7 72 -23 9 -17 16 -39 16 -48 0 -27 33 -94 46 -94
52 0 58 35 9 56 -37 15 -46 40 -19 51 9 3 36 -4 60 -16 25 -11 51 -21 59 -21
8 0 19 -8 24 -18 5 -9 31 -23 58 -30 26 -7 62 -19 78 -27 30 -14 158 -59 250
-88 28 -9 92 -19 143 -22 88 -7 92 -6 92 13 0 28 -4 29 -94 41 -43 5 -83 14
-89 20 -6 6 -18 11 -26 11 -35 0 -202 73 -238 103 -14 12 -47 22 -95 27 -116
14 -177 30 -188 50 -12 23 7 41 41 38 28 -1 204 50 270 80 24 10 58 22 74 26
27 7 50 16 165 70 19 9 49 27 67 40 27 20 43 23 100 22 58 -2 78 -8 136 -40
67 -38 67 -38 67 -81 0 -24 -4 -47 -10 -50 -5 -3 -9 -27 -9 -53 1 -26 -1 -98
-5 -161 -6 -100 -9 -116 -29 -132 -12 -10 -28 -18 -36 -19 -23 0 -3 -14 37
-25 75 -21 43 -75 -44 -75 -53 0 -72 -13 -36 -25 11 -3 24 -16 30 -30 7 -15
17 -23 26 -19 22 8 76 -36 76 -62 0 -32 -23 -46 -64 -38 -24 4 -36 2 -36 -5 0
-6 14 -11 30 -11 18 0 33 -6 36 -15 4 -8 14 -15 23 -15 37 0 93 -29 133 -68
23 -23 48 -42 55 -42 7 0 13 -4 13 -9 0 -14 91 -131 102 -131 5 0 16 -7 24
-15 9 -8 28 -15 44 -15 16 0 30 -7 34 -15 4 -11 20 -15 56 -15 46 0 55 4 84
35 19 19 43 35 55 35 18 0 20 4 15 24 -3 13 -1 27 6 31 8 5 8 10 -1 21 -6 8
-8 21 -4 31 22 50 14 139 -10 129 -25 -9 -46 4 -40 25 4 11 2 19 -4 19 -6 0
-11 -7 -11 -15 0 -17 -46 -20 -70 -5 -13 9 -13 12 3 21 42 25 4 179 -44 179
-10 0 -19 -4 -19 -10 0 -5 -10 -10 -21 -10 -26 0 -69 44 -79 80 -8 32 -54 60
-71 43 -16 -16 4 -63 26 -63 8 0 15 -4 15 -9 0 -16 92 -131 100 -126 11 7 49
-33 61 -64 7 -18 5 -28 -7 -42 -16 -18 -16 -19 19 -19 82 0 114 -88 57 -153
-29 -34 -40 -77 -20 -77 21 0 9 -20 -16 -26 -17 -5 -29 -2 -35 7 -6 10 -13 11
-26 3 -29 -17 -54 -6 -47 21 4 18 -5 34 -48 77 -29 30 -58 63 -64 74 -6 10
-20 20 -30 22 -21 3 -114 100 -114 118 0 6 -6 16 -13 22 -7 6 -30 45 -51 87
-35 70 -37 80 -29 123 8 41 12 47 31 45 36 -4 37 23 1 58 -34 33 -42 77 -18
105 12 15 17 35 40 184 7 41 20 91 30 110 11 19 19 43 19 53 0 22 -38 37 -98
37 -26 1 -58 7 -72 15 -14 8 -35 14 -48 15 -12 0 -30 4 -40 9 -60 32 -105 51
-121 51 -10 0 -35 -20 -55 -44z"/>
<path d="M1930 2670 c19 -13 30 -13 30 0 0 6 -10 10 -22 10 -19 0 -20 -2 -8
-10z"/>
<path d="M6252 2620 c-23 -19 -28 -35 -13 -44 15 -9 39 4 44 24 8 30 -6 40
-31 20z"/>
<path d="M1702 2618 c6 -17 58 -29 91 -22 47 10 25 29 -37 31 -39 1 -56 -2
-54 -9z"/>
<path d="M4115 2617 c-11 -7 -54 -21 -95 -31 -86 -21 -101 -31 -78 -48 20 -17
40 -76 27 -83 -16 -10 -10 -51 11 -70 20 -18 20 -17 20 18 0 22 7 43 18 54 11
10 22 26 25 36 10 27 27 20 27 -12 0 -17 5 -33 10 -36 16 -10 11 -25 -9 -25
-16 0 -19 -11 -25 -77 -4 -42 -10 -89 -13 -105 -7 -37 14 -37 28 0 6 15 15 53
19 86 5 32 16 66 24 75 9 10 16 30 16 45 0 15 7 40 14 55 8 15 18 51 22 79 7
56 -2 65 -41 39z"/>
<path d="M1940 2579 c0 -23 -5 -59 -12 -80 -9 -33 -9 -42 5 -57 13 -14 17 -38
17 -100 0 -44 5 -84 10 -87 6 -3 10 -13 10 -21 0 -17 32 -85 60 -129 11 -16
24 -39 30 -50 6 -11 17 -31 26 -45 10 -18 12 -40 8 -76 -8 -68 1 -97 28 -88
23 7 40 0 154 -68 45 -26 85 -48 89 -48 4 0 24 -13 45 -30 21 -16 41 -30 44
-30 3 0 35 -18 70 -39 35 -22 87 -49 115 -61 49 -22 51 -24 57 -72 7 -53 6
-52 89 -78 22 -7 58 -27 80 -45 22 -18 47 -35 55 -39 8 -3 38 -20 65 -37 28
-16 66 -37 85 -45 19 -8 58 -26 85 -39 28 -13 75 -32 105 -41 30 -9 59 -21 65
-25 5 -5 18 -9 30 -9 12 0 30 -7 41 -15 10 -8 27 -15 36 -15 10 0 34 -9 55
-19 58 -30 174 -42 406 -44 210 -2 415 16 479 41 18 8 38 8 63 1 34 -10 37
-13 31 -40 -5 -24 -2 -29 14 -29 22 0 40 28 40 60 0 13 8 24 20 27 33 9 23 21
-22 28 -24 4 -52 13 -62 21 -24 17 -238 8 -277 -12 -14 -7 -68 -18 -120 -24
-52 -6 -111 -13 -131 -17 -25 -3 -38 -1 -38 6 0 6 4 11 8 11 17 0 105 87 95
93 -6 4 -35 0 -64 -8 -30 -8 -65 -18 -79 -21 -14 -4 -33 -14 -42 -22 -12 -10
-29 -13 -54 -9 -20 4 -45 2 -54 -3 -24 -13 -153 -39 -163 -33 -5 3 -7 17 -5
31 3 23 -1 27 -33 32 -20 4 -56 17 -80 29 -24 13 -64 25 -89 27 -25 2 -62 10
-82 19 -21 8 -48 15 -62 15 -13 0 -37 7 -53 15 -15 8 -40 17 -55 20 -15 3 -43
19 -62 35 -18 17 -42 30 -51 30 -10 0 -40 14 -67 30 -26 17 -55 30 -63 30 -8
0 -18 6 -22 14 -4 8 -25 32 -46 55 -20 22 -49 57 -63 78 -29 43 -53 61 -144
108 -36 18 -93 52 -127 74 -34 23 -66 41 -72 41 -5 0 -22 11 -38 24 -16 14
-42 28 -57 32 -15 3 -45 24 -66 46 -48 47 -53 83 -13 99 39 15 211 -5 447 -52
35 -7 53 -6 63 2 10 9 19 9 38 -1 14 -7 39 -10 59 -7 19 3 48 2 63 -3 108 -35
144 -44 193 -51 138 -20 300 -48 321 -55 41 -13 192 -5 218 12 17 12 20 19 12
27 -11 11 -57 18 -261 36 -58 5 -112 12 -120 15 -8 4 -44 10 -80 15 -98 14
-256 56 -297 79 -36 20 -80 15 -86 -9 -6 -21 -9 -21 -119 -15 -62 4 -122 11
-133 16 -11 5 -49 14 -85 19 -181 28 -346 88 -336 124 3 12 -3 19 -20 23 -24
6 -32 28 -14 39 17 10 11 25 -10 25 -16 0 -19 6 -17 37 2 33 -1 38 -22 41 -20
3 -22 7 -16 35 4 18 8 49 9 71 4 45 23 60 65 51 17 -3 32 -2 36 4 10 18 -14
50 -43 57 -35 9 -92 52 -92 70 0 8 -4 14 -10 14 -5 0 -10 -19 -10 -41z"/>
<path d="M680 2587 c0 -33 41 -47 66 -23 24 25 16 36 -26 36 -26 0 -40 -4 -40
-13z"/>
<path d="M1652 2591 c4 -13 18 -16 19 -4 0 4 -5 9 -11 12 -7 2 -11 -2 -8 -8z"/>
<path d="M5885 2580 c-10 -11 -24 -20 -32 -20 -7 0 -13 -7 -13 -16 0 -15 2
-15 25 0 13 9 31 16 39 16 15 0 28 24 19 34 -10 10 -19 7 -38 -14z"/>
<path d="M5683 2572 c10 -10 17 -26 17 -35 0 -14 11 -17 60 -17 60 0 70 6 48
28 -9 9 -16 8 -29 -4 -11 -10 -25 -13 -38 -9 -25 7 -27 23 -6 31 29 11 15 24
-27 24 -39 0 -40 -1 -25 -18z"/>
<path d="M1804 2572 c-6 -4 -13 -15 -17 -24 -3 -10 -13 -18 -20 -18 -20 0 -40
-27 -32 -40 5 -8 13 -6 25 5 18 16 21 16 49 -5 17 -12 31 -24 31 -26 0 -3 -16
-12 -36 -20 -27 -11 -35 -20 -32 -36 3 -24 33 -46 45 -34 4 5 2 11 -4 13 -7 3
-13 12 -13 21 0 12 3 13 12 4 7 -7 20 -12 30 -12 14 0 18 8 18 33 0 18 4 37
10 43 6 6 1 26 -13 56 -22 47 -32 55 -53 40z"/>
<path d="M6563 2565 c-3 -9 -3 -18 0 -21 9 -9 27 6 27 22 0 19 -19 18 -27 -1z"/>
<path d="M8522 2568 c-7 -7 -12 -19 -12 -27 -1 -17 -3 -21 -60 -91 -59 -73
-69 -82 -91 -75 -19 6 -19 5 -7 -15 11 -19 11 -23 -1 -28 -7 -2 -20 -12 -28
-21 -8 -9 -44 -47 -80 -86 -36 -38 -72 -80 -80 -92 -9 -13 -24 -23 -34 -23
-12 0 -23 -11 -29 -27 -6 -16 -29 -44 -52 -65 -26 -23 -39 -42 -35 -51 10 -27
88 3 109 42 10 17 51 64 91 104 41 39 95 101 121 137 49 69 104 139 161 205
19 22 35 47 35 56 0 9 7 22 15 29 8 7 15 19 15 26 0 17 -22 18 -38 2z"/>
<path d="M206 2563 c-11 -11 -6 -23 9 -23 10 0 15 -10 15 -31 0 -30 0 -30 52
-27 45 3 54 7 68 30 12 22 12 30 2 40 -11 11 -17 9 -32 -9 -22 -28 -54 -30
-72 -5 -17 23 -33 33 -42 25z"/>
<path d="M1700 2560 c0 -5 7 -10 15 -10 8 0 15 5 15 10 0 6 -7 10 -15 10 -8 0
-15 -4 -15 -10z"/>
<path d="M6370 2551 c-5 -11 -10 -29 -10 -41 0 -13 -9 -24 -26 -30 -14 -6 -22
-14 -19 -20 10 -17 33 -11 49 12 14 20 18 21 69 9 60 -13 77 -10 96 20 11 18
10 24 -3 37 -15 15 -16 15 -16 0 0 -25 -19 -32 -46 -18 -19 11 -29 11 -50 1
-18 -8 -30 -9 -37 -2 -7 7 -5 12 6 17 9 3 17 12 17 20 0 20 -18 17 -30 -5z"/>
<path d="M7670 2550 c0 -5 6 -10 14 -10 8 0 18 5 21 10 3 6 -3 10 -14 10 -12
0 -21 -4 -21 -10z"/>
<path d="M527 2533 c-2 -5 -7 -35 -11 -69 -7 -66 -2 -76 44 -87 15 -4 41 -28
65 -62 25 -34 49 -58 65 -61 14 -3 44 -14 68 -25 23 -10 49 -19 57 -19 8 0 15
-4 15 -9 0 -6 11 -22 25 -37 14 -15 25 -35 25 -46 0 -24 -89 -144 -112 -151
-22 -6 -23 -35 -3 -61 19 -25 19 -36 0 -36 -18 0 -18 -8 -1 -39 7 -13 11 -32
9 -42 -4 -13 2 -20 21 -25 21 -5 26 -12 26 -38 0 -17 4 -36 8 -41 9 -14 82
-56 82 -49 0 4 -14 24 -31 46 -31 38 -31 41 -27 121 4 69 9 90 35 132 26 43
31 63 36 137 l5 87 -33 11 c-18 6 -51 30 -73 53 -22 23 -68 69 -102 102 -34
33 -86 95 -117 138 -54 74 -67 86 -76 70z"/>
<path d="M1648 2525 c-23 -13 -27 -21 -26 -57 1 -68 43 -111 50 -50 4 38 22
34 26 -5 2 -19 -1 -33 -7 -33 -6 0 -11 -18 -11 -40 0 -33 3 -40 19 -40 49 0
68 33 35 61 -11 9 -14 22 -9 46 4 25 2 35 -10 39 -8 3 -15 12 -15 20 0 8 -7
14 -15 14 -17 0 -20 25 -5 35 12 7 13 25 3 25 -5 -1 -20 -7 -35 -15z"/>
<path d="M8300 2500 c0 -11 7 -20 15 -20 8 0 15 9 15 20 0 11 -7 20 -15 20 -8
0 -15 -9 -15 -20z"/>
<path d="M1480 2485 c0 -14 7 -28 15 -31 23 -9 18 -33 -9 -40 -30 -7 -63 9
-71 36 -3 11 -13 20 -20 20 -36 0 -27 -56 10 -66 13 -3 26 -12 29 -20 3 -8 15
-14 27 -14 12 0 23 -8 26 -20 3 -11 11 -20 18 -20 6 0 20 -8 29 -19 16 -17 16
-20 1 -35 -9 -9 -23 -16 -31 -16 -8 0 -14 -7 -14 -15 0 -8 -4 -15 -9 -15 -16
0 -24 21 -12 33 19 19 12 38 -21 52 -28 11 -35 11 -49 -1 -23 -21 -28 -18 -35
25 -5 33 -11 40 -41 49 -19 6 -41 8 -49 5 -8 -3 -23 2 -34 12 -23 21 -50 13
-50 -14 0 -15 10 -20 56 -26 73 -9 124 -55 74 -68 -26 -7 -26 -32 1 -51 15
-10 19 -20 14 -35 -5 -16 0 -24 19 -33 31 -14 37 -58 8 -58 -25 0 -62 -36 -62
-60 0 -11 -4 -20 -9 -20 -5 0 -11 -9 -14 -20 -3 -11 -13 -20 -22 -20 -10 0
-33 -9 -51 -21 -36 -22 -45 -54 -22 -77 8 -8 9 -12 1 -12 -6 0 -13 5 -15 12
-6 18 -38 1 -38 -21 0 -11 -4 -22 -9 -25 -4 -3 -21 -32 -37 -63 -35 -73 -33
-70 -44 -53 -10 16 -80 24 -80 9 0 -6 5 -20 11 -31 8 -15 8 -27 -2 -45 -13
-24 -11 -27 26 -59 22 -19 45 -34 50 -34 6 0 29 -17 53 -38 29 -26 42 -45 42
-63 0 -31 31 -62 54 -53 9 3 16 17 16 33 0 33 43 75 69 68 12 -3 21 1 25 12 3
9 13 26 22 39 15 21 15 22 -1 22 -9 0 -30 -11 -47 -25 -16 -14 -38 -25 -48
-25 -11 0 -24 -9 -30 -20 -12 -22 -36 -27 -43 -7 -2 6 -2 26 0 44 4 25 1 33
-16 43 -17 9 -26 9 -37 -1 -17 -14 -63 2 -90 32 -13 15 -14 22 -5 33 7 8 19
12 27 9 8 -3 20 -1 27 5 6 6 26 12 42 14 23 2 30 8 28 23 -1 11 5 24 14 29 11
6 13 17 9 42 -6 28 -3 36 19 50 14 9 25 22 25 29 0 7 7 18 16 26 12 10 20 10
35 1 25 -16 28 -15 22 8 -6 23 15 80 29 80 5 0 12 -8 15 -17 11 -29 43 -45 43
-22 0 7 -7 17 -16 24 -24 17 -9 53 24 57 22 2 28 9 30 33 5 39 37 74 63 68 12
-4 29 3 42 15 12 11 38 25 57 30 25 6 35 14 33 27 -1 11 5 24 13 29 17 14 8
85 -12 93 -8 3 -14 14 -14 24 0 10 -11 26 -25 35 -14 9 -22 21 -18 28 5 6 8
30 9 54 1 41 1 42 -32 42 -30 0 -34 -3 -34 -25z m-57 -223 c26 -23 18 -56 -15
-60 -30 -4 -58 28 -58 66 0 21 3 23 28 17 15 -3 35 -14 45 -23z m137 -33 c0
-4 -6 -12 -13 -16 -8 -4 -16 -16 -20 -25 -7 -20 -24 -23 -47 -8 -12 7 -12 14
-4 27 21 34 84 51 84 22z"/>
<path d="M5445 2500 c-8 -13 23 -85 48 -108 12 -11 37 -36 56 -56 19 -20 38
-36 42 -36 28 0 -23 -100 -61 -120 -18 -10 -20 -17 -14 -63 4 -29 13 -59 20
-68 9 -10 14 -41 14 -86 0 -54 4 -72 15 -77 8 -3 15 -13 15 -21 0 -9 5 -13 10
-10 11 7 14 48 4 58 -4 3 -8 39 -10 79 -3 73 9 129 33 159 7 8 13 21 13 27 0
6 5 23 12 37 18 39 64 34 135 -15 32 -22 90 -61 128 -86 39 -26 84 -62 101
-80 20 -22 41 -34 57 -34 15 0 43 -12 64 -26 21 -14 50 -28 66 -31 34 -7 43
-19 27 -38 -16 -19 1 -41 38 -50 15 -3 35 -12 46 -20 16 -13 17 -18 6 -44 -7
-17 -21 -33 -31 -36 -10 -4 -19 -11 -19 -16 0 -5 -7 -9 -16 -9 -8 0 -30 -11
-48 -25 -41 -31 -81 -34 -73 -6 4 17 2 18 -17 10 -20 -10 -56 -60 -56 -80 0
-5 6 -9 14 -9 8 0 18 -9 21 -20 9 -30 45 -25 119 15 36 19 70 35 77 35 6 0 17
6 23 14 6 7 31 17 55 20 l44 7 -8 -43 c-10 -61 -8 -94 9 -131 8 -17 16 -50 18
-71 3 -37 0 -41 -42 -67 -25 -15 -55 -28 -67 -28 -32 -1 -53 -12 -53 -26 0
-23 13 -24 80 -9 36 9 84 19 108 23 24 4 48 13 54 19 19 19 63 14 83 -8 19
-21 50 -26 60 -10 3 5 -27 42 -67 82 -40 41 -81 86 -90 101 -28 42 -23 111 12
174 36 64 37 67 6 59 -41 -10 -76 9 -76 42 0 33 -32 72 -60 72 -23 0 -50 36
-50 66 0 15 -15 32 -51 55 -29 18 -59 40 -68 50 -24 25 -90 64 -151 90 -30 12
-62 28 -71 36 -8 7 -27 13 -40 13 -17 0 -46 21 -94 71 -39 38 -80 74 -93 79
-12 5 -27 21 -32 35 -5 14 -15 25 -23 25 -15 0 -64 44 -93 83 -18 26 -27 29
-87 32 -36 2 -69 0 -72 -5z m865 -784 c0 -20 -16 -36 -36 -36 -26 0 -27 1 -18
24 5 14 54 24 54 12z"/>
<path d="M8250 2485 c0 -25 14 -34 24 -16 8 12 -3 41 -15 41 -5 0 -9 -11 -9
-25z"/>
<path d="M1323 2493 c-14 -3 -23 -12 -23 -23 0 -10 -9 -20 -20 -23 -11 -3 -20
-11 -20 -17 0 -22 59 -2 84 27 22 25 26 45 8 42 -4 -1 -17 -4 -29 -6z"/>
<path d="M791 2476 c-10 -12 -8 -17 8 -25 27 -15 46 -14 60 3 10 12 8 17 -8
25 -27 15 -46 14 -60 -3z"/>
<path d="M7130 2480 c0 -5 -13 -7 -30 -3 -27 5 -30 3 -30 -19 0 -18 9 -29 35
-41 48 -23 62 -21 69 8 4 14 13 25 21 25 19 0 29 20 17 32 -8 8 -16 7 -27 -2
-12 -10 -19 -10 -27 -2 -15 15 -28 15 -28 2z"/>
<path d="M5860 2436 c0 -18 7 -39 15 -46 12 -10 13 -7 5 19 -5 18 -5 33 1 36
14 9 11 25 -6 25 -10 0 -15 -10 -15 -34z"/>
<path d="M6452 2448 c-7 -7 -12 -17 -12 -24 0 -6 -7 -17 -15 -24 -25 -21 -18
-40 16 -40 23 0 30 -4 27 -17 -2 -11 -13 -18 -28 -18 -20 0 -26 -6 -28 -27 -4
-33 10 -36 56 -12 23 11 32 23 32 40 0 18 7 25 28 29 56 12 77 40 52 70 -14
17 -50 20 -50 5 0 -5 7 -10 15 -10 8 0 15 -7 15 -15 0 -8 -9 -15 -20 -15 -11
0 -23 7 -26 15 -4 8 -13 15 -20 15 -8 0 -18 9 -22 20 -6 16 -10 18 -20 8z"/>
<path d="M6794 2424 c-17 -39 -8 -61 20 -51 29 11 34 87 6 87 -6 0 -18 -16
-26 -36z"/>
<path d="M5200 2408 c0 -13 6 -34 13 -49 8 -14 17 -51 21 -83 9 -78 20 -98 54
-94 20 2 32 13 45 42 22 46 12 81 -27 96 -13 5 -37 31 -53 59 -30 54 -53 66
-53 29z"/>
<path d="M8036 2413 c-11 -11 -6 -23 9 -23 8 0 15 4 15 9 0 13 -16 22 -24 14z"/>
<path d="M6204 2394 c3 -9 6 -18 6 -20 0 -2 9 -4 20 -4 13 0 20 7 20 20 0 15
-7 20 -26 20 -20 0 -25 -4 -20 -16z"/>
<path d="M951 2391 c-17 -11 -10 -45 11 -49 9 -2 22 6 27 17 9 16 8 22 -7 30
-10 5 -24 6 -31 2z"/>
<path d="M5940 2376 c0 -8 5 -18 10 -21 6 -3 10 1 10 9 0 8 -4 18 -10 21 -5 3
-10 -1 -10 -9z"/>
<path d="M8155 2379 c-10 -15 3 -25 16 -12 7 7 7 13 1 17 -6 3 -14 1 -17 -5z"/>
<path d="M4980 2370 c0 -6 -10 -15 -22 -21 -45 -20 -68 -36 -61 -42 15 -15 51
-5 76 21 27 29 35 52 17 52 -5 0 -10 -5 -10 -10z"/>
<path d="M6330 2355 c0 -19 24 -30 41 -19 9 5 7 11 -6 21 -24 17 -35 17 -35
-2z"/>
<path d="M1825 2329 c-16 -16 -35 -29 -42 -29 -7 0 -16 -6 -20 -14 -4 -8 -19
-16 -33 -18 -21 -2 -25 -8 -26 -40 -1 -47 19 -67 48 -49 17 11 23 10 39 -8 41
-43 67 10 30 59 l-19 24 -13 -27 c-13 -28 -24 -34 -33 -18 -11 17 13 61 33 61
11 0 23 5 26 10 3 6 14 10 24 10 10 0 21 8 24 18 2 9 8 25 12 35 11 26 -15 19
-50 -14z"/>
<path d="M6671 2339 c-58 -31 -67 -76 -13 -63 30 8 102 60 102 75 0 15 -52 8
-89 -12z"/>
<path d="M8093 2348 c2 -7 10 -13 17 -13 7 0 15 6 18 13 2 7 -5 12 -18 12 -13
0 -20 -5 -17 -12z"/>
<path d="M1003 2326 c-37 -46 -26 -78 11 -37 10 11 16 30 14 43 -3 23 -3 23
-25 -6z"/>
<path d="M6975 2340 c-11 -5 -32 -9 -46 -9 -15 -1 -33 -10 -40 -21 -12 -18
-18 -20 -46 -10 -34 12 -73 0 -73 -23 0 -29 -52 -87 -95 -106 -30 -13 -49 -30
-60 -53 -32 -65 -40 -78 -51 -78 -18 0 -54 -45 -54 -67 0 -27 26 -88 53 -124
11 -16 23 -48 26 -71 5 -34 10 -43 26 -43 26 0 32 33 8 51 -17 14 -17 14 1 28
22 18 48 65 41 76 -3 5 -13 6 -23 3 -10 -2 -24 3 -31 11 -8 9 -22 16 -32 16
-25 0 -26 38 -1 47 25 9 52 45 52 70 0 43 22 74 49 71 34 -4 38 -35 16 -118
-9 -34 -14 -64 -12 -67 11 -11 51 37 77 92 22 47 30 81 34 150 4 49 10 93 15
98 9 9 60 -18 74 -40 4 -7 27 -13 51 -13 39 0 74 -19 61 -32 -3 -3 1 -11 10
-18 8 -7 15 -19 15 -27 0 -10 6 -13 16 -9 9 3 23 6 32 6 12 0 11 4 -6 23 -12
13 -19 27 -15 30 3 4 -6 7 -20 7 -20 0 -27 5 -27 20 0 29 36 43 92 37 46 -6
49 -5 46 15 -2 12 -22 37 -46 55 -44 33 -78 40 -117 23z"/>
<path d="M8033 2314 c-7 -18 20 -44 44 -44 17 0 16 5 -3 35 -19 29 -32 32 -41
9z"/>
<path d="M1098 2309 c-15 -8 -15 -14 -6 -35 10 -22 9 -27 -6 -36 -13 -7 -17
-19 -14 -46 3 -36 2 -37 -39 -46 -47 -11 -51 -17 -27 -37 12 -10 17 -10 23 0
5 7 21 11 37 9 26 -3 29 0 29 25 0 35 25 51 65 42 42 -9 40 18 -2 30 -38 12
-45 33 -24 75 13 27 13 30 -2 30 -9 0 -25 -5 -34 -11z"/>
<path d="M1186 2304 c-6 -15 22 -48 60 -70 18 -11 18 -12 -8 -24 -31 -14 -32
-18 -18 -40 7 -12 12 -12 22 -2 6 6 22 12 35 12 27 0 29 8 6 25 -15 11 -15 17
-5 39 15 33 -3 69 -30 61 -9 -3 -19 -1 -23 5 -9 15 -32 12 -39 -6z"/>
<path d="M4764 2284 c-4 -20 -4 -90 -2 -155 4 -90 2 -123 -8 -137 -7 -9 -14
-38 -14 -63 0 -32 -5 -49 -15 -53 -8 -3 -15 -11 -15 -18 0 -6 -10 -22 -22 -35
-16 -17 -19 -26 -10 -35 8 -8 19 -3 42 20 18 18 37 29 45 26 9 -4 18 1 21 11
6 14 15 16 47 11 l40 -7 -6 41 c-5 39 -4 41 20 38 14 -2 31 -12 36 -23 18 -35
22 -42 40 -67 17 -24 17 -28 1 -61 -19 -41 -13 -67 16 -67 15 0 20 7 20 29 0
19 11 42 31 63 37 40 63 87 53 96 -4 4 -9 1 -11 -5 -7 -19 -65 -15 -90 6 -13
11 -23 28 -23 39 0 11 -6 33 -14 49 -24 47 -46 100 -46 112 0 7 -7 23 -16 37
-14 20 -15 39 -10 98 6 71 6 74 -16 80 -13 3 -37 6 -55 6 -29 0 -33 -4 -39
-36z"/>
<path d="M7790 2281 c0 -23 38 -91 51 -91 15 0 10 47 -5 53 -8 3 -16 16 -18
28 -4 29 -28 38 -28 10z"/>
<path d="M1006 2224 c-8 -21 -1 -28 19 -20 9 3 15 11 13 18 -7 19 -25 20 -32
2z"/>
<path d="M1855 2231 c-7 -12 12 -24 25 -16 11 7 4 25 -10 25 -5 0 -11 -4 -15
-9z"/>
<path d="M7852 2064 c5 -99 9 -120 27 -142 12 -15 26 -37 33 -49 6 -13 17 -23
25 -23 17 0 17 4 -7 50 -12 24 -20 59 -20 91 0 57 -36 189 -52 189 -7 0 -9
-39 -6 -116z"/>
<path d="M7970 2165 c0 -8 7 -15 15 -15 8 0 15 7 15 15 0 8 -7 15 -15 15 -8 0
-15 -7 -15 -15z"/>
<path d="M1153 2113 c-10 -32 -9 -40 3 -53 14 -13 17 -13 30 5 18 25 14 79 -6
83 -10 1 -19 -11 -27 -35z"/>
<path d="M2565 2141 c-3 -5 4 -12 15 -16 11 -3 20 -10 20 -14 0 -4 11 -13 25
-19 32 -15 32 -2 0 32 -24 26 -49 34 -60 17z"/>
<path d="M5294 2141 c-20 -20 68 -124 124 -148 30 -13 32 -16 32 -66 0 -44 -7
-65 -48 -135 -27 -46 -71 -106 -98 -134 -43 -45 -52 -49 -82 -45 -28 5 -34 2
-41 -16 -5 -13 -15 -28 -22 -34 -24 -19 -125 -70 -153 -77 -31 -8 -66 8 -66
31 0 8 -9 30 -19 47 -10 17 -22 46 -26 63 -3 18 -16 39 -27 47 -19 13 -19 15
-3 46 20 39 12 49 -23 29 -24 -13 -27 -21 -28 -69 0 -30 -4 -63 -8 -72 -6 -12
-3 -20 8 -24 9 -3 16 -17 16 -31 0 -28 52 -83 79 -83 9 0 31 -9 50 -21 62 -37
132 -26 251 42 8 4 34 18 57 30 39 21 92 67 169 150 40 43 55 54 74 54 11 0
14 12 13 55 -2 73 -26 209 -42 238 -7 13 -12 42 -11 65 1 23 1 47 1 54 -1 9
-26 12 -87 10 -47 -1 -87 -4 -90 -6z"/>
<path d="M1880 2131 c0 -17 12 -41 21 -41 5 0 9 11 9 25 0 16 -6 25 -15 25 -8
0 -15 -4 -15 -9z"/>
<path d="M4010 2126 c0 -8 5 -18 10 -21 6 -3 10 3 10 14 0 12 -4 21 -10 21 -5
0 -10 -6 -10 -14z"/>
<path d="M6891 2116 c-17 -18 -22 -32 -17 -49 5 -22 3 -24 -16 -19 -18 4 -20
2 -16 -16 4 -12 2 -25 -3 -28 -21 -12 -6 -22 31 -21 34 2 42 6 47 25 3 13 0
35 -6 48 -9 20 -8 26 4 29 8 3 22 7 31 10 22 7 13 39 -11 43 -12 2 -31 -8 -44
-22z"/>
<path d="M1520 2102 c0 -5 -10 -14 -22 -19 -23 -11 -23 -11 5 -18 17 -5 33 -3
42 5 21 18 18 40 -5 40 -11 0 -20 -4 -20 -8z"/>
<path d="M1760 2101 c0 -5 7 -11 15 -15 30 -11 14 -26 -30 -26 -53 0 -61 -21
-16 -40 16 -6 31 -20 34 -31 4 -13 10 -17 22 -13 9 4 14 13 11 21 -3 8 -3 25
0 38 7 30 44 23 41 -9 -1 -15 4 -21 17 -21 24 0 31 19 13 36 -7 8 -17 27 -21
42 -6 24 -11 27 -46 27 -22 0 -40 -4 -40 -9z"/>
<path d="M6975 2093 c-3 -10 -1 -19 5 -21 38 -13 53 -69 25 -92 -13 -11 -16
-8 -21 19 -7 31 -30 42 -40 18 -3 -8 0 -26 5 -40 8 -20 17 -27 38 -27 67 0
102 31 66 58 -11 8 -17 22 -15 37 7 51 -46 91 -63 48z"/>
<path d="M1601 2091 c-18 -11 -6 -80 15 -88 23 -8 26 1 19 51 -8 48 -11 51
-34 37z"/>
<path d="M7147 2093 c-9 -8 -9 -73 -1 -73 14 0 64 43 64 55 0 7 -10 15 -22 19
-29 7 -33 7 -41 -1z"/>
<path d="M7077 2084 c-13 -14 -7 -54 8 -54 16 0 18 14 6 43 -3 10 -10 15 -14
11z"/>
<path d="M2920 2073 c0 -12 51 -33 74 -32 19 0 18 2 -4 11 -14 5 -33 14 -42
19 -22 11 -28 11 -28 2z"/>
<path d="M4283 2039 c-4 -16 -11 -19 -29 -15 -30 8 -30 6 5 -68 16 -33 32 -73
35 -87 8 -37 49 -93 70 -97 23 -5 23 -6 -25 181 -6 23 -13 57 -16 75 -6 36
-32 44 -40 11z"/>
<path d="M1027 2032 c-21 -23 -22 -46 -3 -61 11 -9 15 -7 19 9 3 11 11 20 17
20 8 0 10 -9 6 -24 -4 -17 -1 -26 10 -30 16 -6 44 9 44 24 0 8 -66 80 -73 80
-2 0 -11 -8 -20 -18z"/>
<path d="M5190 1993 c-7 -21 -19 -47 -26 -58 -16 -22 -19 -55 -6 -55 16 0 42
36 42 58 0 12 9 26 21 32 24 13 23 53 -3 58 -11 2 -20 -8 -28 -35z"/>
<path d="M7192 2016 c1 -10 8 -17 13 -17 15 1 12 24 -3 29 -9 3 -13 -2 -10
-12z"/>
<path d="M1410 2001 c10 -20 27 -26 60 -21 39 5 20 25 -33 34 -36 7 -38 6 -27
-13z"/>
<path d="M7737 2014 c-14 -14 -7 -35 11 -32 9 2 17 10 17 17 0 16 -18 25 -28
15z"/>
<path d="M7620 1975 c-12 -15 -7 -45 8 -45 20 0 45 28 39 44 -8 20 -31 21 -47
1z"/>
<path d="M7180 1963 c0 -10 4 -25 10 -33 8 -12 11 -12 28 3 10 9 25 17 33 17
20 1 -32 29 -53 30 -11 0 -18 -7 -18 -17z"/>
<path d="M7101 1929 c-6 -17 -22 -40 -36 -51 -17 -13 -25 -29 -25 -52 0 -17
-5 -37 -11 -43 -14 -14 -20 -73 -8 -73 5 0 9 -6 9 -14 0 -7 7 -19 15 -26 9 -7
14 -18 12 -24 -3 -6 5 -21 16 -33 24 -27 57 -15 57 22 0 18 -7 25 -30 30 -26
6 -30 11 -30 42 0 19 -7 41 -15 49 -17 17 -20 34 -6 34 5 0 14 -7 21 -15 17
-21 28 -19 35 8 18 65 27 77 56 77 30 0 36 14 19 40 -9 13 -12 12 -25 -4 -18
-24 -30 -15 -16 12 13 24 5 52 -14 52 -7 0 -18 -14 -24 -31z"/>
<path d="M1514 1939 c-4 -7 -2 -15 5 -17 19 -6 57 -45 64 -65 12 -32 25 -9 23
40 l-1 48 -42 3 c-25 2 -44 -2 -49 -9z"/>
<path d="M6835 1932 c-3 -3 -5 -16 -5 -29 0 -18 5 -23 25 -23 13 0 28 6 32 14
4 8 17 15 27 17 11 2 21 10 23 16 3 9 -10 12 -46 12 -28 -1 -53 -4 -56 -7z"/>
<path d="M1422 1918 c-19 -19 -14 -44 12 -72 24 -27 50 -33 61 -16 3 6 3 30
-1 55 -6 40 -9 45 -33 45 -15 0 -32 -5 -39 -12z"/>
<path d="M1670 1910 c0 -11 4 -20 9 -20 6 0 20 -18 32 -40 22 -38 50 -52 64
-30 3 6 15 10 25 10 10 0 22 5 25 10 10 17 -11 35 -55 50 -22 7 -45 19 -51 27
-18 20 -49 16 -49 -7z"/>
<path d="M7492 1918 c6 -18 28 -21 28 -4 0 9 -7 16 -16 16 -9 0 -14 -5 -12
-12z"/>
<path d="M6764 1896 c-7 -29 1 -46 22 -46 9 0 14 11 14 35 0 41 -26 49 -36 11z"/>
<path d="M7310 1910 c0 -12 35 -31 44 -23 8 9 -14 33 -30 33 -8 0 -14 -4 -14
-10z"/>
<path d="M7234 1879 c-8 -14 14 -29 44 -29 30 0 28 18 -4 30 -32 12 -31 12
-40 -1z"/>
<path d="M7485 1870 c-15 -16 -15 -22 -5 -35 7 -8 16 -15 20 -15 10 0 28 43
23 58 -6 17 -17 15 -38 -8z"/>
<path d="M6927 1873 c-4 -3 -7 -15 -7 -25 0 -20 -20 -24 -36 -8 -13 13 -46 2
-41 -14 6 -17 55 -38 76 -31 11 3 22 17 25 30 4 14 11 25 16 25 6 0 10 7 10
15 0 15 -31 21 -43 8z"/>
<path d="M7366 1845 c-10 -16 -26 -25 -41 -25 -29 0 -33 -18 -7 -27 25 -9 52
-34 52 -50 0 -16 -40 -17 -75 -1 -31 14 -38 8 -29 -26 6 -25 8 -26 58 -20 28
4 56 10 61 14 6 4 22 10 38 14 30 7 34 18 12 36 -9 7 -15 29 -15 51 0 52 -30
71 -54 34z"/>
<path d="M5090 1825 c0 -16 6 -25 15 -25 9 0 15 9 15 25 0 16 -6 25 -15 25 -9
0 -15 -9 -15 -25z"/>
<path d="M7841 1830 c-19 -10 -46 -30 -60 -44 -26 -24 -176 -116 -190 -116
-13 0 -41 -36 -41 -52 0 -9 7 -18 15 -22 8 -3 15 -13 15 -23 0 -10 4 -25 10
-33 8 -12 11 -12 28 3 10 9 24 17 30 17 7 0 12 8 12 18 0 11 22 38 50 61 45
38 54 41 100 40 57 -2 73 10 64 48 -4 15 0 25 16 33 17 9 20 19 18 48 -4 44
-19 49 -67 22z"/>
<path d="M990 1828 c0 -7 7 -22 16 -33 12 -17 16 -18 24 -5 6 10 4 20 -7 32
-19 21 -33 23 -33 6z"/>
<path d="M1250 1821 c-15 -4 -26 -15 -28 -29 -4 -29 18 -29 46 1 34 36 31 42
-18 28z"/>
<path d="M6024 1816 c-7 -20 2 -46 16 -46 13 0 13 47 0 55 -6 3 -13 -1 -16 -9z"/>
<path d="M2098 1783 c-3 -42 6 -39 -104 -27 -56 7 -55 7 -257 -110 -161 -93
-173 -101 -198 -124 -13 -13 -55 -44 -94 -70 -61 -40 -78 -47 -133 -50 -74 -5
-76 -18 -8 -40 39 -13 56 -13 92 -4 24 7 53 12 63 12 10 0 24 7 31 15 7 8 19
15 27 15 8 0 35 14 60 30 24 17 52 30 62 30 9 0 21 4 27 8 22 20 123 34 190
27 38 -4 89 -7 112 -6 33 2 49 -2 63 -17 10 -11 44 -28 76 -37 82 -23 83 -23
81 -36 -2 -6 6 -16 17 -22 11 -6 33 -20 48 -30 16 -11 38 -17 49 -14 11 3 27
-1 35 -9 19 -19 68 -18 87 1 30 31 8 46 -121 81 -20 5 -15 25 6 31 22 6 35 29
20 38 -5 4 -18 3 -29 0 -13 -4 -22 -1 -26 9 -5 12 -19 14 -75 9 -60 -5 -69 -4
-69 11 0 12 10 16 41 16 28 0 39 4 36 13 -5 16 -79 14 -111 -2 -34 -19 -62
-11 -58 16 2 17 -3 24 -22 29 -20 5 -31 -1 -54 -27 -22 -24 -34 -30 -48 -25
-17 7 -15 11 19 42 41 38 35 47 -28 42 -43 -3 -54 11 -29 37 14 13 30 16 88
11 39 -3 94 -6 122 -8 28 -2 58 -8 65 -14 18 -15 159 -28 159 -16 0 5 -33 20
-72 32 -80 24 -138 48 -138 56 0 3 7 19 16 36 16 30 12 78 -6 78 -5 0 -10 -17
-12 -37z m182 -347 c0 -32 -13 -39 -51 -31 l-31 7 23 24 c30 32 59 32 59 0z"/>
<path d="M6682 1811 c-10 -6 0 -12 32 -22 25 -7 40 -16 34 -20 -6 -4 -8 -14
-5 -23 5 -14 10 -14 26 -4 17 10 23 9 40 -6 l21 -19 -21 -15 c-16 -11 -18 -17
-9 -26 9 -8 16 -6 28 9 9 11 24 19 34 17 22 -4 31 13 18 38 -8 14 -21 20 -45
20 -24 0 -35 5 -35 14 0 34 -82 60 -118 37z"/>
<path d="M7140 1803 c1 -16 29 -45 38 -39 16 10 1 46 -19 46 -11 0 -19 -3 -19
-7z"/>
<path d="M1315 1745 c-25 -25 -45 -50 -45 -55 0 -17 80 -12 86 5 4 8 17 15 31
15 22 0 24 3 18 27 -7 31 -23 53 -36 53 -5 0 -29 -20 -54 -45z"/>
<path d="M1597 1742 c-20 -22 -22 -42 -4 -42 20 0 57 30 57 46 0 20 -34 18
-53 -4z"/>
<path d="M7130 1741 c0 -10 10 -40 21 -67 18 -39 20 -53 11 -76 -9 -25 -7 -32
14 -55 13 -14 24 -36 24 -49 0 -12 5 -26 10 -29 6 -3 10 -25 10 -48 0 -56 22
-87 61 -87 28 0 29 -1 15 -16 -9 -8 -16 -22 -16 -30 0 -8 -8 -14 -17 -14 -15
0 -15 -1 -2 -12 22 -19 53 -94 46 -113 -7 -16 11 -65 24 -65 13 0 16 25 5 49
-8 18 -7 26 5 35 38 29 -18 247 -80 309 -6 6 -11 24 -11 39 0 16 -9 36 -20 45
-11 10 -20 25 -20 35 0 9 9 20 20 23 11 3 20 12 20 19 0 23 -13 26 -32 9 -17
-15 -21 -15 -29 -3 -15 25 -6 55 19 58 26 4 27 10 7 36 -15 19 -15 19 -29 1
-13 -18 -14 -18 -27 3 -17 27 -29 28 -29 3z"/>
<path d="M5580 1735 c0 -8 5 -15 10 -15 6 0 10 7 10 15 0 8 -4 15 -10 15 -5 0
-10 -7 -10 -15z"/>
<path d="M4048 1713 c-40 -21 -35 -35 10 -27 43 7 57 18 48 33 -9 14 -24 13
-58 -6z"/>
<path d="M6656 1691 c-10 -16 1 -45 24 -66 19 -17 21 -17 38 -2 10 10 23 17
29 17 6 0 16 7 23 15 17 20 -3 45 -36 45 -15 0 -24 -6 -24 -15 0 -20 -20 -19
-35 2 -8 11 -14 13 -19 4z"/>
<path d="M5100 1682 c0 -9 33 -27 67 -37 34 -9 37 12 4 30 -32 16 -71 20 -71
7z"/>
<path d="M7338 1673 c-10 -2 -18 -8 -18 -13 0 -5 -15 -23 -32 -39 l-33 -31 28
0 c32 0 104 60 93 78 -7 12 -9 13 -38 5z"/>
<path d="M7456 1647 c-16 -23 -16 -28 -2 -54 17 -34 11 -106 -10 -124 -8 -7
-14 -31 -14 -60 0 -26 -5 -51 -10 -54 -14 -9 -1 -106 16 -125 10 -10 17 -11
25 -3 13 13 4 33 -17 33 -8 0 -14 4 -14 10 0 21 24 60 42 65 23 8 23 21 -2 53
-16 19 -19 34 -14 56 3 17 8 33 10 35 1 1 18 -9 37 -23 l34 -26 6 42 c6 47 1
62 -14 35 -6 -9 -17 -17 -25 -17 -12 0 -14 13 -10 73 4 53 2 79 -8 92 -13 17
-14 17 -30 -8z"/>
<path d="M6926 1643 c-4 -8 -6 -22 -6 -31 0 -9 -12 -26 -27 -38 -31 -24 -26
-36 25 -66 l30 -18 21 36 c28 48 26 71 -8 104 -23 21 -31 24 -35 13z"/>
<path d="M2325 1610 c-4 -6 -3 -14 0 -20 9 -15 35 -12 35 4 0 17 -27 29 -35
16z"/>
<path d="M7350 1580 c0 -25 4 -30 24 -30 23 0 61 41 49 54 -4 3 -21 6 -40 6
-30 0 -33 -3 -33 -30z"/>
<path d="M2392 1563 c4 -21 33 -25 33 -3 0 8 -8 16 -18 18 -14 3 -18 -1 -15
-15z"/>
<path d="M7870 1540 c0 -5 9 -10 21 -10 11 0 17 5 14 10 -3 6 -13 10 -21 10
-8 0 -14 -4 -14 -10z"/>
<path d="M1350 1515 c0 -12 7 -15 25 -13 14 2 26 8 26 13 0 6 -12 11 -26 13
-18 2 -25 -1 -25 -13z"/>
<path d="M6792 1510 c-47 -26 -49 -29 -23 -46 13 -9 20 -22 17 -31 -10 -26 13
-55 40 -50 15 3 34 -3 47 -13 20 -17 22 -17 54 9 52 41 39 75 -19 47 -17 -9
-37 -16 -45 -16 -21 0 -66 32 -54 39 6 4 17 23 26 44 18 43 9 47 -43 17z"/>
<path d="M7355 1523 c-16 -2 -41 -6 -53 -9 l-24 -5 25 -19 c28 -22 49 -25 78
-10 18 10 28 52 12 49 -5 -1 -21 -4 -38 -6z"/>
<path d="M2560 1500 c20 -13 43 -13 35 0 -3 6 -16 10 -28 10 -18 0 -19 -2 -7
-10z"/>
<path d="M7107 1504 c-8 -8 1 -24 14 -24 5 0 9 7 9 15 0 15 -12 20 -23 9z"/>
<path d="M2400 1477 c0 -32 43 -49 54 -21 8 20 8 19 -26 28 -20 4 -28 3 -28
-7z"/>
<path d="M7023 1484 c-18 -8 -16 -24 2 -24 8 0 24 -9 36 -21 26 -26 36 -17 23
19 -9 26 -35 37 -61 26z"/>
<path d="M7135 1460 c-4 -6 -2 -17 4 -23 15 -15 25 -2 13 19 -7 12 -11 13 -17
4z"/>
<path d="M1075 1420 c-3 -5 3 -10 15 -10 12 0 18 5 15 10 -3 6 -10 10 -15 10
-5 0 -12 -4 -15 -10z"/>
<path d="M2572 1388 c-16 -16 -15 -35 2 -41 19 -7 40 18 32 38 -7 18 -18 19
-34 3z"/>
<path d="M5565 1389 c-7 -11 22 -49 38 -49 5 0 26 -13 46 -28 20 -16 57 -39
83 -51 27 -13 50 -26 53 -31 3 -4 21 -11 40 -14 19 -4 35 -13 35 -20 0 -18
104 -29 149 -16 18 5 84 12 146 16 l113 7 -10 28 c-5 15 -16 30 -23 33 -15 5
-45 -18 -45 -36 0 -11 -58 -6 -204 19 -82 13 -153 44 -170 72 -4 5 -28 13 -54
17 -26 3 -51 10 -57 14 -8 7 -123 50 -132 50 -1 0 -5 -5 -8 -11z"/>
<path d="M7040 1355 c0 -11 7 -15 23 -13 12 2 22 8 22 13 0 6 -10 11 -22 13
-16 2 -23 -2 -23 -13z"/>
<path d="M1020 1344 c0 -27 62 -144 76 -144 17 0 74 -58 74 -75 0 -15 13 -25
92 -76 37 -24 50 -40 58 -68 5 -21 19 -46 30 -56 11 -10 30 -34 41 -52 21 -34
25 -35 76 -16 7 3 16 -4 21 -16 11 -32 151 -107 178 -97 12 5 10 13 -9 43 -12
21 -30 51 -39 68 -9 16 -26 32 -37 35 -12 3 -34 17 -50 33 -16 15 -36 27 -44
27 -8 0 -20 7 -27 15 -7 8 -18 15 -24 15 -7 0 -25 14 -41 30 -16 17 -34 30
-41 30 -7 0 -17 6 -21 14 -4 7 -26 24 -48 38 -22 14 -46 33 -54 42 -7 9 -23
16 -36 16 -17 0 -24 9 -34 43 -7 23 -17 50 -22 59 -5 10 -9 30 -9 45 0 23 -7
31 -43 46 -53 21 -67 22 -67 1z"/>
<path d="M1160 1345 c0 -8 5 -15 10 -15 6 0 10 7 10 15 0 8 -4 15 -10 15 -5 0
-10 -7 -10 -15z"/>
<path d="M2681 1307 c16 -15 33 -21 52 -18 19 2 36 -4 53 -20 19 -18 24 -19
24 -6 0 24 -40 47 -82 47 -21 0 -38 5 -38 10 0 6 -7 10 -17 10 -13 0 -11 -5 8
-23z"/>
<path d="M1154 1309 c-3 -6 1 -18 10 -27 15 -15 16 -14 16 11 0 27 -13 36 -26
16z"/>
<path d="M1670 1309 c0 -7 8 -18 17 -24 17 -13 17 -14 0 -32 -19 -22 -11 -39
10 -21 10 8 20 8 39 -2 17 -10 28 -10 35 -3 7 7 3 12 -15 17 -14 3 -26 13 -26
20 0 8 -7 16 -15 20 -8 3 -15 12 -15 21 0 8 -7 15 -15 15 -8 0 -15 -5 -15 -11z"/>
<path d="M6650 1300 c-7 -14 -19 -20 -33 -18 -15 2 -23 -3 -25 -16 -3 -15 0
-18 21 -12 21 5 31 -1 56 -33 17 -21 31 -46 31 -55 0 -9 7 -19 15 -22 22 -9
18 -32 -10 -60 -24 -24 -25 -26 -8 -48 10 -13 39 -38 66 -57 26 -19 62 -46 80
-61 37 -31 98 -43 158 -29 24 6 53 9 64 8 11 -1 22 3 25 8 3 6 -12 11 -34 13
-53 5 -116 50 -178 128 -27 35 -59 69 -69 74 -10 6 -35 43 -54 84 -20 40 -49
83 -65 95 l-29 21 -11 -20z m192 -277 c18 -16 25 -43 11 -43 -9 0 -53 45 -53
54 0 12 24 6 42 -11z"/>
<path d="M1844 1298 c-10 -15 23 -37 46 -31 11 3 20 14 20 24 0 14 -7 19 -29
19 -17 0 -33 -5 -37 -12z"/>
<path d="M2127 1303 c-12 -11 -8 -23 8 -23 8 0 15 7 15 15 0 16 -12 20 -23 8z"/>
<path d="M6476 1265 c-13 -13 -19 -14 -36 -3 -18 11 -23 10 -31 -4 -7 -12 -22
-18 -49 -18 -29 0 -42 -5 -50 -20 -9 -17 -8 -20 7 -18 25 3 103 -12 103 -21 0
-11 -62 -31 -73 -24 -13 8 -134 5 -159 -3 -10 -3 -16 -9 -13 -14 7 -11 244 -8
261 3 6 3 14 20 18 37 5 29 8 31 41 24 31 -5 35 -4 35 14 0 12 7 25 16 30 9 5
14 14 10 21 -10 16 -62 14 -80 -4z"/>
<path d="M1476 1261 c-8 -12 21 -34 34 -26 17 11 11 35 -9 35 -11 0 -22 -4
-25 -9z"/>
<path d="M2290 1240 c-8 -5 -11 -12 -8 -16 10 -9 38 3 38 16 0 12 -10 13 -30
0z"/>
<path d="M2820 1240 c0 -5 -15 -16 -34 -24 -27 -11 -33 -19 -29 -35 4 -15 -2
-23 -21 -32 -26 -12 -76 -85 -76 -112 0 -8 -7 -28 -15 -43 -8 -16 -15 -41 -15
-56 0 -15 -5 -39 -10 -54 -6 -14 -15 -54 -20 -88 -5 -33 -12 -71 -16 -83 -6
-21 -4 -22 24 -17 27 5 32 2 46 -25 17 -32 43 -40 64 -19 7 7 12 36 12 64 0
43 4 54 19 59 20 6 36 33 26 44 -3 3 -15 0 -26 -7 -15 -10 -24 -10 -34 -2 -9
8 -15 8 -20 0 -10 -16 -23 -12 -41 16 -16 24 -16 27 4 63 12 21 22 47 22 57 1
22 23 54 38 54 15 0 56 52 72 90 12 29 12 34 -4 46 -24 17 -11 36 19 28 34 -9
48 2 34 28 -9 17 -8 24 5 33 8 7 13 15 9 18 -10 11 -33 8 -33 -3z"/>
<path d="M1200 1232 c0 -13 23 -32 37 -32 11 0 11 5 3 20 -10 19 -40 28 -40
12z"/>
<path d="M2076 1232 c6 -4 14 -16 18 -26 5 -15 9 -17 19 -7 9 10 8 15 -7 27
-11 8 -25 14 -30 14 -8 0 -8 -3 0 -8z"/>
<path d="M1400 1205 c0 -10 7 -15 18 -13 21 4 19 22 -2 26 -10 2 -16 -3 -16
-13z"/>
<path d="M1590 1206 c0 -9 7 -16 16 -16 9 0 14 5 12 12 -6 18 -28 21 -28 4z"/>
<path d="M2160 1209 c0 -14 25 -39 39 -39 15 0 14 23 -1 38 -15 15 -38 16 -38
1z"/>
<path d="M2622 1206 c1 -10 8 -17 13 -17 15 1 12 24 -3 29 -9 3 -13 -2 -10
-12z"/>
<path d="M2873 1179 c-14 -35 -10 -49 14 -49 8 0 29 -6 46 -13 18 -8 59 -22
91 -33 32 -10 75 -30 95 -44 20 -14 54 -34 76 -45 22 -11 42 -23 45 -26 9 -11
102 -48 175 -70 221 -66 245 -71 385 -70 180 0 274 11 278 32 2 11 -6 19 -23
23 -29 7 -92 -2 -100 -14 -8 -12 -224 -10 -254 2 -14 7 -53 14 -86 17 -56 6
-60 8 -63 32 -4 31 -37 46 -50 22 -8 -13 -15 -12 -60 2 -28 10 -56 23 -62 30
-8 9 -28 11 -70 8 -66 -6 -43 -21 -205 131 -47 45 -52 47 -93 42 -51 -7 -105
15 -96 39 4 10 0 15 -13 15 -12 0 -23 -11 -30 -31z"/>
<path d="M2383 1188 c-6 -7 -13 -21 -16 -30 -5 -15 -1 -18 24 -18 33 0 48 22
29 45 -15 18 -25 19 -37 3z"/>
<path d="M6566 1183 c-3 -3 -6 -15 -6 -25 0 -12 -7 -18 -21 -18 -30 0 -18 -24
14 -28 14 -2 31 -10 37 -18 7 -8 26 -14 42 -14 l29 0 -21 30 c-12 17 -28 30
-36 30 -8 0 -14 9 -14 19 0 21 -13 34 -24 24z"/>
<path d="M5759 1176 c-2 -3 -54 -12 -114 -20 -114 -16 -182 -35 -194 -54 -11
-18 -63 -33 -92 -27 -34 8 -48 -11 -23 -31 18 -13 18 -15 -6 -34 -14 -11 -41
-25 -60 -31 -19 -6 -43 -19 -53 -27 -12 -11 -41 -17 -80 -18 -34 -2 -98 -7
-142 -13 -227 -30 -244 -32 -290 -20 -51 13 -65 33 -65 96 0 41 -34 93 -44 67
-3 -9 -6 -28 -6 -43 0 -63 -80 -135 -262 -235 -58 -32 -76 -37 -130 -37 -65 1
-131 -6 -158 -16 -19 -7 21 -20 105 -35 90 -15 285 -21 285 -9 0 6 -11 11 -24
11 -25 0 -39 21 -30 43 3 6 24 28 46 47 38 33 43 34 109 31 234 -11 485 2 552
28 16 6 43 11 60 11 18 0 45 7 61 15 15 8 45 15 66 15 46 0 88 30 92 67 3 24
11 30 71 50 38 12 80 32 94 43 28 22 63 26 80 9 7 -7 19 -3 41 15 16 14 41 26
54 26 14 0 33 9 43 20 10 11 28 20 40 20 13 0 33 9 46 20 l24 19 -46 1 c-25 0
-48 -2 -50 -4z"/>
<path d="M2496 1161 c-3 -5 3 -16 14 -26 19 -17 20 -17 20 2 0 21 -25 39 -34
24z"/>
<path d="M2620 1149 c0 -15 -4 -19 -16 -15 -17 6 -44 -9 -44 -25 0 -5 7 -9 15
-9 9 0 18 -7 21 -15 10 -24 32 -17 49 15 21 41 20 70 -5 70 -14 0 -20 -7 -20
-21z"/>
<path d="M6470 1150 c0 -5 10 -10 23 -10 18 0 19 2 7 10 -19 13 -30 13 -30 0z"/>
<path d="M7405 1148 c-9 -22 -2 -63 10 -63 14 0 18 41 6 62 -9 17 -10 17 -16
1z"/>
<path d="M7030 1143 c1 -5 7 -19 15 -33 9 -17 10 -29 3 -37 -12 -15 -7 -68 7
-67 6 1 25 4 43 7 31 6 32 5 32 -27 0 -31 3 -34 51 -49 59 -19 64 -18 72 20 5
25 10 28 49 31 24 1 54 4 68 5 19 1 26 -3 28 -19 2 -16 -7 -27 -32 -42 -39
-23 -47 -42 -18 -42 22 0 69 31 88 59 17 24 11 79 -10 87 -7 3 -30 1 -52 -4
-22 -5 -63 -6 -92 -2 -45 5 -52 4 -52 -11 0 -23 -32 -49 -38 -31 -2 7 -17 19
-33 27 -16 9 -29 24 -29 34 0 10 -11 23 -25 29 -14 6 -25 18 -25 25 0 8 -8 21
-18 30 -20 18 -32 22 -32 10z"/>
<path d="M1405 1130 c-10 -16 6 -32 26 -27 11 3 23 -2 29 -11 8 -15 11 -15 20
-2 7 11 5 19 -11 33 -23 19 -54 22 -64 7z"/>
<path d="M1940 1120 c0 -11 7 -20 15 -20 8 0 15 9 15 20 0 11 -7 20 -15 20 -8
0 -15 -9 -15 -20z"/>
<path d="M2047 1125 c-18 -13 -18 -14 3 -25 25 -13 52 2 43 26 -7 18 -23 17
-46 -1z"/>
<path d="M6019 1119 c-12 -18 -24 -22 -64 -21 -36 1 -57 -5 -74 -19 -35 -29
-16 -44 35 -29 22 7 57 15 79 20 22 4 54 12 70 18 17 6 43 14 59 19 51 14 39
28 -27 31 -56 3 -66 1 -78 -19z"/>
<path d="M1826 1114 c-10 -27 -7 -34 18 -34 24 0 41 23 30 41 -9 15 -41 10
-48 -7z"/>
<path d="M2305 1120 c-4 -6 -3 -16 3 -22 6 -6 12 -6 17 2 4 6 3 16 -3 22 -6 6
-12 6 -17 -2z"/>
<path d="M1537 1113 c-16 -15 -4 -33 46 -67 29 -20 64 -36 80 -36 20 0 31 -7
39 -25 8 -18 22 -27 49 -31 25 -4 40 -13 44 -25 7 -20 20 -25 29 -10 10 16
104 -22 115 -46 17 -37 44 -18 37 25 -7 44 -12 49 -38 33 -17 -11 -24 -9 -46
11 -15 13 -33 31 -40 41 -15 20 -43 22 -61 5 -10 -11 -16 -8 -30 11 -11 14
-23 21 -30 17 -7 -5 -25 5 -43 23 -33 32 -48 39 -48 21 0 -27 -50 7 -63 43 -6
17 -28 23 -40 10z"/>
<path d="M1700 1092 c0 -10 3 -22 7 -25 10 -11 32 13 26 29 -8 20 -33 17 -33
-4z"/>
<path d="M2156 1084 c-11 -28 -7 -33 30 -40 49 -9 65 9 33 35 -29 25 -55 27
-63 5z"/>
<path d="M2000 1059 c0 -22 22 -49 40 -49 25 0 33 15 20 40 -11 21 -60 29 -60
9z"/>
<path d="M2915 1020 c3 -5 14 -10 25 -10 10 0 20 -6 23 -14 8 -19 47 -28 47
-10 0 8 -8 17 -17 20 -10 3 -26 10 -35 15 -23 12 -51 12 -43 -1z"/>
<path d="M2505 1010 c-3 -6 -3 -19 0 -30 4 -13 -1 -31 -14 -49 -28 -39 -28
-91 -1 -91 11 0 20 6 20 14 0 7 9 25 21 40 24 30 29 104 8 117 -18 11 -26 11
-34 -1z"/>
<path d="M2710 937 c-16 -71 -11 -88 18 -59 25 25 30 83 8 101 -12 10 -16 3
-26 -42z"/>
<path d="M4303 956 c-35 -30 -25 -43 16 -22 16 9 37 16 46 16 20 0 19 16 -1
24 -25 9 -31 8 -61 -18z"/>
<path d="M6440 966 c0 -9 7 -16 16 -16 9 0 14 5 12 12 -6 18 -28 21 -28 4z"/>
<path d="M6237 963 c-3 -5 -2 -15 2 -22 7 -10 10 -10 16 -1 4 6 3 16 -3 22 -5
5 -12 6 -15 1z"/>
<path d="M3090 945 c0 -8 2 -15 4 -15 2 0 11 -3 20 -6 23 -9 20 9 -4 24 -17
10 -20 10 -20 -3z"/>
<path d="M2241 941 c-9 -6 -10 -11 -2 -15 13 -8 31 1 31 15 0 11 -11 11 -29 0z"/>
<path d="M4136 928 c42 -52 73 -61 109 -34 16 12 17 16 6 30 -9 11 -18 13 -30
7 -18 -10 -68 -3 -77 10 -3 5 -10 9 -16 9 -6 0 -3 -10 8 -22z"/>
<path d="M6307 923 c-40 -20 -34 -58 8 -58 23 0 31 5 33 22 2 12 0 29 -5 37
-7 12 -12 12 -36 -1z"/>
<path d="M6590 925 c-17 -20 -4 -35 31 -35 35 0 37 12 5 33 -21 14 -26 14 -36
2z"/>
<path d="M3770 910 c0 -16 7 -20 30 -20 34 0 39 14 11 30 -29 15 -41 12 -41
-10z"/>
<path d="M5566 914 c-4 -12 -14 -14 -36 -9 -27 6 -30 4 -30 -18 0 -20 11 -31
46 -51 26 -14 56 -26 68 -26 23 0 23 -1 17 103 -1 22 -56 24 -65 1z"/>
<path d="M5665 920 c-3 -5 1 -13 10 -16 22 -9 29 1 11 15 -10 8 -16 9 -21 1z"/>
<path d="M2010 896 c-6 -8 -10 -25 -8 -38 4 -32 40 -31 48 2 12 46 -13 68 -40
36z"/>
<path d="M6144 887 c-8 -21 1 -47 16 -47 19 0 23 31 7 48 -15 14 -17 14 -23
-1z"/>
<path d="M2116 873 c-3 -10 -9 -23 -12 -30 -4 -9 1 -9 20 0 27 13 36 47 12 47
-7 0 -16 -8 -20 -17z"/>
<path d="M5712 865 c-20 -20 -22 -27 -12 -44 12 -24 40 -28 40 -7 0 7 3 28 6
45 8 36 -2 38 -34 6z"/>
<path d="M7216 865 c-22 -33 -21 -35 14 -35 28 0 50 22 50 49 0 22 -48 11 -64
-14z"/>
<path d="M5835 860 c-4 -6 -3 -14 0 -20 9 -15 35 -12 35 4 0 17 -27 29 -35 16z"/>
<path d="M2322 843 c5 -26 38 -29 38 -4 0 15 -6 21 -21 21 -14 0 -19 -5 -17
-17z"/>
<path d="M6030 847 c-31 -16 -38 -37 -11 -37 11 0 25 9 31 21 15 27 10 31 -20
16z"/>
<path d="M7127 813 c-6 -58 6 -93 32 -93 27 0 34 15 19 40 -10 15 -10 24 -2
38 9 14 8 23 -6 40 -27 33 -37 27 -43 -25z"/>
<path d="M2156 833 c-11 -11 -6 -23 9 -23 8 0 15 4 15 9 0 13 -16 22 -24 14z"/>
<path d="M3115 819 c-10 -15 3 -25 16 -12 7 7 7 13 1 17 -6 3 -14 1 -17 -5z"/>
<path d="M3164 819 c-9 -15 12 -33 30 -26 9 4 16 13 16 22 0 17 -35 21 -46 4z"/>
<path d="M2210 816 c0 -3 11 -17 25 -32 22 -24 25 -25 31 -9 5 12 1 23 -11 31
-18 13 -45 19 -45 10z"/>
<path d="M1712 773 c-12 -13 -20 -28 -17 -33 7 -12 72 -30 108 -30 16 0 43
-11 61 -25 18 -14 42 -25 54 -25 11 0 27 -9 35 -21 9 -12 34 -25 59 -30 23 -6
57 -23 73 -38 38 -35 169 -91 215 -91 85 0 112 0 138 1 43 2 212 -18 260 -30
35 -9 47 -9 65 4 12 8 35 15 51 15 32 0 103 12 226 37 63 13 104 14 250 6 304
-17 459 -16 540 3 l73 18 21 -25 c28 -31 71 -59 93 -59 15 0 16 -2 3 -10 -22
-14 12 -24 60 -17 30 4 40 2 40 -9 0 -16 22 -22 115 -28 99 -7 220 -22 232
-29 5 -3 45 -9 89 -12 43 -4 95 -8 114 -10 76 -9 210 -15 305 -16 55 0 130 0
168 0 53 0 78 -5 114 -25 26 -13 54 -22 64 -19 9 3 32 -3 51 -13 18 -10 39
-17 46 -14 7 2 29 -4 50 -14 36 -17 130 -29 202 -25 47 3 168 3 262 0 48 -1
82 2 91 10 10 7 23 8 38 3 14 -5 53 -5 94 0 39 6 88 10 109 9 22 0 44 3 50 8
6 5 54 14 106 20 52 7 127 21 165 32 39 11 88 25 110 32 22 6 45 14 51 18 5 5
36 15 68 23 32 9 72 24 90 36 19 11 41 20 50 20 16 0 83 47 124 88 12 12 30
22 39 22 28 0 73 51 73 82 0 28 0 28 -30 13 -17 -9 -30 -20 -30 -25 0 -6 -9
-10 -19 -10 -11 0 -26 -7 -35 -15 -8 -8 -22 -15 -31 -15 -9 0 -31 -11 -48 -24
-38 -28 -111 -62 -152 -72 -16 -4 -43 -16 -59 -27 -16 -11 -45 -24 -65 -28
-45 -9 -130 -37 -154 -50 -9 -5 -45 -12 -80 -15 -34 -3 -71 -9 -82 -14 -11 -5
-49 -11 -85 -15 -95 -8 -104 -9 -116 -17 -6 -4 -25 -1 -42 8 -22 10 -37 12
-49 6 -45 -24 -99 -26 -478 -18 -129 3 -237 34 -276 80 -25 29 -102 37 -354
36 -126 0 -266 5 -310 10 -44 6 -123 13 -175 17 -52 3 -104 10 -114 16 -11 5
-45 13 -75 18 -31 4 -81 15 -111 24 -30 10 -75 23 -100 31 -94 28 -126 43
-151 73 -22 27 -30 30 -60 25 -19 -4 -47 -14 -64 -22 -40 -21 -495 -22 -565
-1 -73 21 -235 16 -303 -9 -35 -13 -81 -22 -116 -22 -44 0 -64 -5 -81 -20 -14
-12 -37 -20 -60 -20 -21 0 -51 -3 -67 -6 -23 -5 -35 -1 -50 15 -17 19 -23 20
-53 10 -75 -27 -346 46 -440 117 -8 6 -42 19 -75 28 -33 10 -67 22 -75 27 -33
20 -64 29 -81 24 -11 -4 -19 -2 -19 3 0 14 -77 52 -103 51 -12 -1 -32 -12 -45
-26z"/>
<path d="M5540 761 c0 -21 8 -49 18 -62 38 -52 42 -66 26 -80 -11 -9 -14 -23
-11 -46 3 -18 1 -35 -4 -38 -12 -8 -12 -62 1 -86 13 -24 49 -25 56 -1 3 9 17
41 31 69 23 47 25 60 18 120 -4 38 -10 61 -13 53 -5 -17 -31 -40 -45 -40 -5 0
-7 16 -5 35 3 29 1 35 -14 35 -14 0 -18 8 -18 40 0 33 -3 40 -20 40 -17 0 -20
-7 -20 -39z"/>
<path d="M5877 794 c-8 -8 1 -24 14 -24 5 0 9 7 9 15 0 15 -12 20 -23 9z"/>
<path d="M6807 783 c-9 -8 -9 -63 0 -63 25 0 73 27 73 41 0 24 -55 41 -73 22z"/>
<path d="M2174 765 c-18 -14 -18 -14 3 -15 12 0 26 -7 31 -16 5 -9 16 -14 26
-13 13 3 11 9 -13 31 -25 24 -30 26 -47 13z"/>
<path d="M4790 751 c0 -21 39 -36 54 -21 15 15 -2 40 -29 40 -18 0 -25 -5 -25
-19z"/>
<path d="M6140 755 c0 -8 7 -15 15 -15 8 0 15 7 15 15 0 8 -7 15 -15 15 -8 0
-15 -7 -15 -15z"/>
<path d="M6625 744 c21 -16 19 -23 -10 -34 -23 -9 -25 -14 -20 -42 3 -18 1
-40 -4 -48 -8 -12 -13 -12 -36 0 -22 12 -28 12 -40 -1 -13 -12 -10 -18 19 -41
39 -31 73 -28 82 8 3 13 12 28 19 34 9 7 11 24 8 50 -4 31 -2 41 11 46 9 3 16
14 16 25 0 14 -7 18 -30 16 -25 -2 -28 -4 -15 -13z"/>
<path d="M7215 752 c-14 -10 -20 -116 -6 -108 6 4 11 16 11 27 0 11 7 31 16
44 21 32 6 58 -21 37z"/>
<path d="M2265 731 c-7 -12 12 -24 25 -16 11 7 4 25 -10 25 -5 0 -11 -4 -15
-9z"/>
<path d="M5802 723 c4 -22 43 -25 43 -3 0 8 -11 16 -23 18 -19 3 -23 0 -20
-15z"/>
<path d="M6352 731 c4 -13 18 -16 19 -4 0 4 -5 9 -11 12 -7 2 -11 -2 -8 -8z"/>
<path d="M6741 721 c-15 -27 -14 -31 9 -31 13 0 20 7 20 19 0 28 -17 35 -29
12z"/>
<path d="M7050 701 c-12 -23 -13 -61 -2 -61 17 0 54 49 49 64 -9 22 -34 20
-47 -3z"/>
<path d="M4593 697 c-4 -9 -36 -19 -73 -25 l-65 -9 55 -1 c80 -1 135 10 135
28 0 20 -41 25 -52 7z"/>
<path d="M4720 701 c0 -15 16 -22 34 -15 25 9 19 24 -9 24 -14 0 -25 -4 -25
-9z"/>
<path d="M6413 691 c-4 -15 -13 -21 -32 -21 -39 0 -59 -38 -41 -79 9 -23 19
-31 38 -31 13 0 31 -8 38 -17 12 -17 13 -17 19 -1 10 25 -24 58 -61 58 -27 0
-31 3 -27 20 3 10 25 29 49 41 44 21 53 32 33 44 -6 4 -13 -2 -16 -14z"/>
<path d="M6879 683 c-5 -14 -17 -32 -27 -40 -16 -12 -16 -14 2 -28 22 -17 36
-19 36 -6 0 4 12 20 26 36 22 24 27 25 37 12 9 -11 18 -13 35 -6 31 12 27 29
-7 29 -16 0 -31 6 -35 15 -3 8 -17 15 -31 15 -18 0 -28 -7 -36 -27z"/>
<path d="M2487 673 c-12 -11 -8 -23 8 -23 8 0 15 7 15 15 0 16 -12 20 -23 8z"/>
<path d="M5753 620 c-2 -44 2 -60 11 -60 8 0 15 19 19 51 7 55 3 69 -16 69 -9
0 -13 -20 -14 -60z"/>
<path d="M6505 670 c-8 -12 20 -24 35 -15 6 3 8 11 5 16 -8 12 -32 12 -40 -1z"/>
<path d="M6696 671 c-3 -5 1 -11 9 -15 8 -3 15 -12 15 -21 0 -8 6 -15 13 -15
26 0 26 13 1 37 -28 26 -31 27 -38 14z"/>
<path d="M6790 665 c0 -8 2 -15 4 -15 2 0 11 -3 20 -6 12 -4 16 0 16 15 0 14
-6 21 -20 21 -11 0 -20 -7 -20 -15z"/>
<path d="M6248 649 c-22 -12 -24 -59 -3 -59 17 0 20 -25 5 -35 -5 -3 -10 -13
-10 -21 0 -10 7 -13 25 -8 20 5 25 2 25 -12 1 -26 50 -86 50 -61 0 9 -5 17
-11 17 -6 0 -9 21 -8 57 3 50 0 57 -20 64 -13 5 -22 16 -20 26 4 44 -2 50 -33
32z"/>
<path d="M6447 633 c-4 -3 -7 -17 -7 -30 0 -33 24 -24 28 10 3 26 -7 35 -21
20z"/>
<path d="M6081 616 c-6 -7 -8 -21 -5 -30 4 -9 0 -24 -8 -34 -8 -9 -18 -25 -21
-34 -7 -19 -32 -24 -42 -9 -3 5 -1 12 5 16 13 8 13 35 0 35 -5 0 -19 -9 -31
-21 -17 -17 -19 -26 -12 -57 6 -27 15 -38 31 -40 28 -4 82 48 82 80 0 13 7 32
15 42 26 34 12 84 -14 52z"/>
<path d="M5505 610 c-8 -14 3 -30 21 -30 8 0 14 9 14 20 0 21 -24 28 -35 10z"/>
<path d="M6157 603 c-4 -3 -7 -18 -7 -33 0 -15 -9 -39 -21 -54 -23 -30 -18
-46 15 -46 44 0 59 42 47 133 -1 9 -25 9 -34 0z"/>
<path d="M6660 571 c0 -13 29 -35 37 -28 7 8 -15 37 -28 37 -5 0 -9 -4 -9 -9z"/>
<path d="M6470 535 c0 -28 15 -34 24 -9 10 25 7 34 -9 34 -9 0 -15 -9 -15 -25z"/>
<path d="M5729 488 c-5 -63 8 -108 32 -108 14 0 19 7 19 28 0 49 -47 123 -51
80z"/>
<path d="M6227 438 c-4 -12 -4 -24 -1 -27 8 -9 37 27 30 38 -11 17 -23 13 -29
-11z"/>
<path d="M5485 372 c14 -14 63 -19 67 -7 2 6 -15 11 -37 13 -26 2 -37 0 -30
-6z"/>
<path d="M4340 35 c0 -9 5 -15 11 -13 6 2 11 8 11 13 0 5 -5 11 -11 13 -6 2
-11 -4 -11 -13z"/>
<path d="M4547 23 c-16 -16 -4 -23 39 -23 40 0 45 2 34 15 -13 15 -61 21 -73
8z"/>
</g>
</svg>
